<ttFont>
<head>
    <!-- Most of this table will be recalculated by the compiler -->
    <tableVersion value="1.0"/>
    <fontRevision value="1.0"/>
    <checkSumAdjustment value="0xf30614c3"/>
    <magicNumber value="0x5f0f3cf5"/>
    <flags value="00000000 00001001"/>
    <unitsPerEm value="1000"/>
    <created value="Sun Jun  7 06:09:12 2015"/>
    <modified value="Sun Jun  7 06:16:48 2015"/>
    <xMin value="-272"/>
    <yMin value="-400"/>
    <xMax value="805"/>
    <yMax value="1060"/>
    <macStyle value="00000000 00000010"/>
    <lowestRecPPEM value="9"/>
    <fontDirectionHint value="2"/>
    <indexToLocFormat value="0"/>
    <glyphDataFormat value="0"/>
  </head>
    <TTGlyph name=".notdef" xMin="85" yMin="0" xMax="515" yMax="660">
      <contour>
        <pt x="85" y="0" on="1"/>
        <pt x="85" y="660" on="1"/>
        <pt x="515" y="660" on="1"/>
        <pt x="515" y="0" on="1"/>
      </contour>
      <contour>
        <pt x="130" y="31" on="1"/>
        <pt x="466" y="31" on="1"/>
        <pt x="364" y="209" on="1"/>
        <pt x="302" y="315" on="1"/>
        <pt x="298" y="315" on="1"/>
        <pt x="233" y="209" on="1"/>
      </contour>
      <contour>
        <pt x="122" y="72" on="1"/>
        <pt x="277" y="340" on="1"/>
        <pt x="122" y="612" on="1"/>
      </contour>
      <contour>
        <pt x="298" y="365" on="1"/>
        <pt x="302" y="365" on="1"/>
        <pt x="356" y="457" on="1"/>
        <pt x="452" y="627" on="1"/>
        <pt x="146" y="627" on="1"/>
        <pt x="241" y="457" on="1"/>
      </contour>
      <contour>
        <pt x="323" y="340" on="1"/>
        <pt x="476" y="72" on="1"/>
        <pt x="476" y="612" on="1"/>
      </contour>
    </TTGlyph>
    <TTGlyph name="A" xMin="-8" yMin="0" xMax="488" yMax="660">
      <contour>
        <pt x="248" y="400" on="1"/>
        <pt x="172" y="264" on="1"/>
        <pt x="423" y="264" on="1"/>
        <pt x="406" y="396" on="1"/>
        <pt x="398" y="453" on="0"/>
        <pt x="385" y="571" on="0"/>
        <pt x="377" y="627" on="1"/>
        <pt x="372" y="627" on="1"/>
        <pt x="339" y="567" on="0"/>
        <pt x="280" y="459" on="0"/>
      </contour>
      <contour>
        <pt x="-8" y="0" on="1"/>
        <pt x="366" y="660" on="1"/>
        <pt x="396" y="660" on="1"/>
        <pt x="488" y="0" on="1"/>
        <pt x="458" y="0" on="1"/>
        <pt x="427" y="238" on="1"/>
        <pt x="157" y="238" on="1"/>
        <pt x="24" y="0" on="1"/>
      </contour>
    </TTGlyph>
    <TTGlyph name="AE" xMin="-59" yMin="0" xMax="651" yMax="660">
      <contour>
        <pt x="231" y="395" on="1"/>
        <pt x="139" y="254" on="1"/>
        <pt x="316" y="254" on="1"/>
        <pt x="391" y="632" on="1"/>
        <pt x="385" y="632" on="1"/>
        <pt x="347" y="573" on="0"/>
        <pt x="271" y="458" on="0"/>
      </contour>
      <contour>
        <pt x="-59" y="0" on="1"/>
        <pt x="377" y="660" on="1"/>
        <pt x="651" y="660" on="1"/>
        <pt x="646" y="635" on="1"/>
        <pt x="420" y="635" on="1"/>
        <pt x="366" y="365" on="1"/>
        <pt x="546" y="365" on="1"/>
        <pt x="541" y="340" on="1"/>
        <pt x="361" y="340" on="1"/>
        <pt x="299" y="26" on="1"/>
        <pt x="534" y="26" on="1"/>
        <pt x="529" y="0" on="1"/>
        <pt x="265" y="0" on="1"/>
        <pt x="310" y="228" on="1"/>
        <pt x="122" y="228" on="1"/>
        <pt x="-26" y="0" on="1"/>
      </contour>
    </TTGlyph>
    <TTGlyph name="AEacute" xMin="-59" yMin="0" xMax="651" yMax="842">
      <component glyphName="AE" x="0" y="0" flags="0x204"/>
      <component glyphName="acutecmb.cap" x="126" y="0" flags="0x4"/>
    </TTGlyph>
    <TTGlyph name="AEmacron" xMin="-59" yMin="0" xMax="651" yMax="762">
      <component glyphName="AE" x="0" y="0" flags="0x204"/>
      <component glyphName="macroncmb.cap" x="126" y="0" flags="0x4"/>
    </TTGlyph>
    <TTGlyph name="Aacute" xMin="-8" yMin="0" xMax="518" yMax="842">
      <component glyphName="A" x="0" y="0" flags="0x204"/>
      <component glyphName="acutecmb.cap" x="0" y="0" flags="0x4"/>
    </TTGlyph>
    <TTGlyph name="Abreve" xMin="-8" yMin="0" xMax="534" yMax="838">
      <component glyphName="A" x="0" y="0" flags="0x204"/>
      <component glyphName="brevecmb.cap" x="0" y="0" flags="0x4"/>
    </TTGlyph>
    <TTGlyph name="Abreveacute" xMin="-8" yMin="0" xMax="534" yMax="932">
      <component glyphName="A" x="0" y="0" flags="0x204"/>
      <component glyphName="breveacutecmb.cap" x="0" y="0" flags="0x4"/>
    </TTGlyph>
    <TTGlyph name="Abrevedotbelow" xMin="-8" yMin="-223" xMax="534" yMax="838">
      <component glyphName="A" x="0" y="0" flags="0x204"/>
      <component glyphName="brevecmb.cap" x="0" y="0" flags="0x4"/>
      <component glyphName="dotaccentcmb" x="-143" y="-823" flags="0x4"/>
    </TTGlyph>
    <TTGlyph name="Abrevegrave" xMin="-8" yMin="0" xMax="534" yMax="938">
      <component glyphName="A" x="0" y="0" flags="0x204"/>
      <component glyphName="brevegravecmb.cap" x="0" y="0" flags="0x4"/>
    </TTGlyph>
    <TTGlyph name="Abrevehoi" xMin="-8" yMin="0" xMax="534" yMax="934">
      <component glyphName="A" x="0" y="0" flags="0x204"/>
      <component glyphName="brevehoicmb.cap" x="0" y="0" flags="0x4"/>
    </TTGlyph>
    <TTGlyph name="Abrevetilde" xMin="-8" yMin="0" xMax="557" yMax="920">
      <component glyphName="A" x="0" y="0" flags="0x204"/>
      <component glyphName="brevetildecmb.cap" x="0" y="0" flags="0x4"/>
    </TTGlyph>
    <TTGlyph name="Acaron" xMin="-8" yMin="0" xMax="534" yMax="840">
      <component glyphName="A" x="0" y="0" flags="0x204"/>
      <component glyphName="caroncmb.cap" x="0" y="0" flags="0x4"/>
    </TTGlyph>
    <TTGlyph name="Acircumflex" xMin="-8" yMin="0" xMax="512" yMax="840">
      <component glyphName="A" x="0" y="0" flags="0x204"/>
      <component glyphName="circumflexcmb.cap" x="0" y="0" flags="0x4"/>
    </TTGlyph>
    <TTGlyph name="Acircumflexacute" xMin="-8" yMin="0" xMax="602" yMax="878">
      <component glyphName="A" x="0" y="0" flags="0x204"/>
      <component glyphName="circumflexacutecmb.cap" x="0" y="0" flags="0x4"/>
    </TTGlyph>
    <TTGlyph name="Acircumflexdotbelow" xMin="-8" yMin="-223" xMax="512" yMax="840">
      <component glyphName="A" x="0" y="0" flags="0x204"/>
      <component glyphName="circumflexcmb.cap" x="0" y="0" flags="0x4"/>
      <component glyphName="dotaccentcmb" x="-143" y="-823" flags="0x4"/>
    </TTGlyph>
    <TTGlyph name="Acircumflexgrave" xMin="-8" yMin="0" xMax="492" yMax="885">
      <component glyphName="A" x="0" y="0" flags="0x204"/>
      <component glyphName="circumflexgravecmb.cap" x="0" y="0" flags="0x4"/>
    </TTGlyph>
    <TTGlyph name="Acircumflexhoi" xMin="-8" yMin="0" xMax="573" yMax="896">
      <component glyphName="A" x="0" y="0" flags="0x204"/>
      <component glyphName="circumflexhoicmb.cap" x="0" y="0" flags="0x4"/>
    </TTGlyph>
    <TTGlyph name="Acircumflextilde" xMin="-8" yMin="0" xMax="554" yMax="920">
      <component glyphName="A" x="0" y="0" flags="0x204"/>
      <component glyphName="circumflextildecmb.cap" x="0" y="0" flags="0x4"/>
    </TTGlyph>
    <TTGlyph name="Adieresis" xMin="-8" yMin="0" xMax="502" yMax="790">
      <component glyphName="A" x="0" y="0" flags="0x204"/>
      <component glyphName="dieresiscmb.cap" x="0" y="0" flags="0x4"/>
    </TTGlyph>
    <TTGlyph name="Adotbelow" xMin="-8" yMin="-223" xMax="488" yMax="660">
      <component glyphName="A" x="0" y="0" flags="0x204"/>
      <component glyphName="dotaccentcmb" x="-143" y="-823" flags="0x4"/>
    </TTGlyph>
    <TTGlyph name="Agrave" xMin="-8" yMin="0" xMax="488" yMax="848">
      <component glyphName="A" x="0" y="0" flags="0x204"/>
      <component glyphName="gravecmb.cap" x="0" y="0" flags="0x4"/>
    </TTGlyph>
    <TTGlyph name="Ahoi" xMin="-8" yMin="0" xMax="488" yMax="860">
      <component glyphName="A" x="0" y="0" flags="0x204"/>
      <component glyphName="hoicmb.cap" x="0" y="0" flags="0x4"/>
    </TTGlyph>
    <TTGlyph name="Amacron" xMin="-8" yMin="0" xMax="506" yMax="762">
      <component glyphName="A" x="0" y="0" flags="0x204"/>
      <component glyphName="macroncmb.cap" x="0" y="0" flags="0x4"/>
    </TTGlyph>
    <TTGlyph name="Aogonek" xMin="-8" yMin="-224" xMax="504" yMax="660">
      <contour>
        <pt x="430" y="-224" on="1"/>
        <pt x="414" y="-224" on="0"/>
        <pt x="383" y="-216" on="0"/>
        <pt x="359" y="-199" on="0"/>
        <pt x="344" y="-172" on="0"/>
        <pt x="344" y="-152" on="1"/>
        <pt x="344" y="-128" on="0"/>
        <pt x="364" y="-84" on="0"/>
        <pt x="397" y="-45" on="0"/>
        <pt x="438" y="-13" on="0"/>
        <pt x="460" y="0" on="1"/>
        <pt x="458" y="0" on="1"/>
        <pt x="427" y="238" on="1"/>
        <pt x="157" y="238" on="1"/>
        <pt x="24" y="0" on="1"/>
        <pt x="-8" y="0" on="1"/>
        <pt x="366" y="660" on="1"/>
        <pt x="396" y="660" on="1"/>
        <pt x="488" y="0" on="1"/>
        <pt x="465" y="-15" on="0"/>
        <pt x="424" y="-50" on="0"/>
        <pt x="391" y="-87" on="0"/>
        <pt x="372" y="-125" on="0"/>
        <pt x="372" y="-144" on="1"/>
        <pt x="372" y="-173" on="0"/>
        <pt x="409" y="-198" on="0"/>
        <pt x="436" y="-198" on="1"/>
        <pt x="453" y="-198" on="0"/>
        <pt x="480" y="-187" on="0"/>
        <pt x="492" y="-178" on="1"/>
        <pt x="504" y="-196" on="1"/>
        <pt x="490" y="-208" on="0"/>
        <pt x="454" y="-224" on="0"/>
      </contour>
      <contour>
        <pt x="248" y="400" on="1"/>
        <pt x="172" y="264" on="1"/>
        <pt x="423" y="264" on="1"/>
        <pt x="406" y="396" on="1"/>
        <pt x="398" y="453" on="0"/>
        <pt x="385" y="571" on="0"/>
        <pt x="377" y="627" on="1"/>
        <pt x="372" y="627" on="1"/>
        <pt x="339" y="567" on="0"/>
        <pt x="280" y="459" on="0"/>
      </contour>
    </TTGlyph>
    <TTGlyph name="Aring" xMin="-8" yMin="0" xMax="488" yMax="866">
      <component glyphName="A" x="0" y="0" flags="0x204"/>
      <component glyphName="ringcmb.cap" x="0" y="0" flags="0x4"/>
    </TTGlyph>
    <TTGlyph name="Aringacute" xMin="-8" yMin="0" xMax="508" yMax="932">
      <contour>
        <pt x="248" y="400" on="1"/>
        <pt x="172" y="264" on="1"/>
        <pt x="423" y="264" on="1"/>
        <pt x="406" y="396" on="1"/>
        <pt x="398" y="453" on="0"/>
        <pt x="385" y="571" on="0"/>
        <pt x="377" y="627" on="1"/>
        <pt x="372" y="627" on="1"/>
        <pt x="339" y="567" on="0"/>
        <pt x="280" y="459" on="0"/>
      </contour>
      <contour>
        <pt x="-8" y="0" on="1"/>
        <pt x="366" y="660" on="1"/>
        <pt x="396" y="660" on="1"/>
        <pt x="488" y="0" on="1"/>
        <pt x="458" y="0" on="1"/>
        <pt x="427" y="238" on="1"/>
        <pt x="157" y="238" on="1"/>
        <pt x="24" y="0" on="1"/>
      </contour>
      <contour>
        <pt x="386" y="702" on="1"/>
        <pt x="357" y="702" on="0"/>
        <pt x="314" y="738" on="0"/>
        <pt x="314" y="776" on="1"/>
        <pt x="314" y="803" on="0"/>
        <pt x="342" y="846" on="0"/>
        <pt x="365" y="857" on="1"/>
        <pt x="494" y="932" on="1"/>
        <pt x="508" y="908" on="1"/>
        <pt x="424" y="864" on="1"/>
        <pt x="447" y="859" on="0"/>
        <pt x="478" y="824" on="0"/>
        <pt x="478" y="792" on="1"/>
        <pt x="478" y="754" on="0"/>
        <pt x="425" y="702" on="0"/>
      </contour>
      <contour>
        <pt x="388" y="724" on="1"/>
        <pt x="414" y="724" on="0"/>
        <pt x="454" y="761" on="0"/>
        <pt x="454" y="790" on="1"/>
        <pt x="454" y="816" on="0"/>
        <pt x="428" y="844" on="0"/>
        <pt x="404" y="844" on="1"/>
        <pt x="378" y="844" on="0"/>
        <pt x="338" y="807" on="0"/>
        <pt x="338" y="778" on="1"/>
        <pt x="338" y="752" on="0"/>
        <pt x="365" y="724" on="0"/>
      </contour>
    </TTGlyph>
    <TTGlyph name="Atilde" xMin="-8" yMin="0" xMax="558" yMax="832">
      <component glyphName="A" x="0" y="0" flags="0x204"/>
      <component glyphName="tildecmb.cap" x="0" y="0" flags="0x4"/>
    </TTGlyph>
    <TTGlyph name="B" xMin="54" yMin="0" xMax="532" yMax="660">
      <contour>
        <pt x="54" y="0" on="1"/>
        <pt x="186" y="660" on="1"/>
        <pt x="342" y="660" on="1"/>
        <pt x="440" y="660" on="0"/>
        <pt x="532" y="584" on="0"/>
        <pt x="532" y="518" on="1"/>
        <pt x="532" y="480" on="0"/>
        <pt x="503" y="422" on="0"/>
        <pt x="458" y="380" on="0"/>
        <pt x="405" y="356" on="0"/>
        <pt x="382" y="352" on="1"/>
        <pt x="382" y="348" on="1"/>
        <pt x="406" y="343" on="0"/>
        <pt x="451" y="321" on="0"/>
        <pt x="487" y="286" on="0"/>
        <pt x="508" y="237" on="0"/>
        <pt x="508" y="206" on="1"/>
        <pt x="508" y="153" on="0"/>
        <pt x="470" y="76" on="0"/>
        <pt x="401" y="25" on="0"/>
        <pt x="303" y="0" on="0"/>
        <pt x="244" y="0" on="1"/>
      </contour>
      <contour>
        <pt x="156" y="364" on="1"/>
        <pt x="274" y="364" on="1"/>
        <pt x="388" y="364" on="0"/>
        <pt x="502" y="450" on="0"/>
        <pt x="502" y="516" on="1"/>
        <pt x="502" y="544" on="0"/>
        <pt x="484" y="588" on="0"/>
        <pt x="442" y="618" on="0"/>
        <pt x="375" y="634" on="0"/>
        <pt x="326" y="634" on="1"/>
        <pt x="210" y="634" on="1"/>
      </contour>
      <contour>
        <pt x="88" y="26" on="1"/>
        <pt x="226" y="26" on="1"/>
        <pt x="282" y="26" on="0"/>
        <pt x="375" y="45" on="0"/>
        <pt x="441" y="87" on="0"/>
        <pt x="478" y="155" on="0"/>
        <pt x="478" y="203" on="1"/>
        <pt x="478" y="261" on="0"/>
        <pt x="381" y="338" on="0"/>
        <pt x="292" y="338" on="1"/>
        <pt x="152" y="338" on="1"/>
      </contour>
    </TTGlyph>
    <TTGlyph name="Blinebelow" xMin="54" yMin="-181" xMax="532" yMax="660">
      <component glyphName="B" x="0" y="0" flags="0x204"/>
      <component glyphName="macroncmb" x="-139" y="-789" flags="0x4"/>
    </TTGlyph>
    <TTGlyph name="Bstroke" xMin="20" yMin="0" xMax="542" yMax="660">
      <contour>
        <pt x="64" y="0" on="1"/>
        <pt x="100" y="178" on="1"/>
        <pt x="20" y="178" on="1"/>
        <pt x="26" y="201" on="1"/>
        <pt x="105" y="205" on="1"/>
        <pt x="196" y="660" on="1"/>
        <pt x="352" y="660" on="1"/>
        <pt x="450" y="660" on="0"/>
        <pt x="542" y="584" on="0"/>
        <pt x="542" y="518" on="1"/>
        <pt x="542" y="480" on="0"/>
        <pt x="513" y="422" on="0"/>
        <pt x="468" y="380" on="0"/>
        <pt x="415" y="356" on="0"/>
        <pt x="392" y="352" on="1"/>
        <pt x="392" y="348" on="1"/>
        <pt x="416" y="343" on="0"/>
        <pt x="461" y="321" on="0"/>
        <pt x="497" y="286" on="0"/>
        <pt x="518" y="237" on="0"/>
        <pt x="518" y="206" on="1"/>
        <pt x="518" y="153" on="0"/>
        <pt x="480" y="76" on="0"/>
        <pt x="411" y="25" on="0"/>
        <pt x="313" y="0" on="0"/>
        <pt x="254" y="0" on="1"/>
      </contour>
      <contour>
        <pt x="98" y="26" on="1"/>
        <pt x="236" y="26" on="1"/>
        <pt x="292" y="26" on="0"/>
        <pt x="385" y="45" on="0"/>
        <pt x="451" y="87" on="0"/>
        <pt x="488" y="155" on="0"/>
        <pt x="488" y="203" on="1"/>
        <pt x="488" y="261" on="0"/>
        <pt x="391" y="338" on="0"/>
        <pt x="302" y="338" on="1"/>
        <pt x="162" y="338" on="1"/>
        <pt x="135" y="205" on="1"/>
        <pt x="308" y="205" on="1"/>
        <pt x="304" y="178" on="1"/>
        <pt x="129" y="178" on="1"/>
      </contour>
      <contour>
        <pt x="166" y="364" on="1"/>
        <pt x="284" y="364" on="1"/>
        <pt x="398" y="364" on="0"/>
        <pt x="512" y="450" on="0"/>
        <pt x="512" y="516" on="1"/>
        <pt x="512" y="544" on="0"/>
        <pt x="494" y="588" on="0"/>
        <pt x="452" y="618" on="0"/>
        <pt x="385" y="634" on="0"/>
        <pt x="336" y="634" on="1"/>
        <pt x="220" y="634" on="1"/>
      </contour>
    </TTGlyph>
    <TTGlyph name="C" xMin="84" yMin="-12" xMax="568" yMax="672">
      <contour>
        <pt x="304" y="-12" on="1"/>
        <pt x="248" y="-12" on="0"/>
        <pt x="166" y="28" on="0"/>
        <pt x="111" y="97" on="0"/>
        <pt x="84" y="191" on="0"/>
        <pt x="84" y="246" on="1"/>
        <pt x="84" y="318" on="0"/>
        <pt x="129" y="469" on="0"/>
        <pt x="214" y="593" on="0"/>
        <pt x="337" y="672" on="0"/>
        <pt x="416" y="672" on="1"/>
        <pt x="472" y="672" on="0"/>
        <pt x="545" y="618" on="0"/>
        <pt x="568" y="580" on="1"/>
        <pt x="544" y="564" on="1"/>
        <pt x="524" y="600" on="0"/>
        <pt x="461" y="646" on="0"/>
        <pt x="414" y="646" on="1"/>
        <pt x="342" y="646" on="0"/>
        <pt x="230" y="571" on="0"/>
        <pt x="154" y="455" on="0"/>
        <pt x="114" y="316" on="0"/>
        <pt x="114" y="252" on="1"/>
        <pt x="114" y="202" on="0"/>
        <pt x="136" y="115" on="0"/>
        <pt x="183" y="51" on="0"/>
        <pt x="256" y="14" on="0"/>
        <pt x="306" y="14" on="1"/>
        <pt x="353" y="14" on="0"/>
        <pt x="430" y="48" on="0"/>
        <pt x="468" y="80" on="1"/>
        <pt x="486" y="60" on="1"/>
        <pt x="444" y="25" on="0"/>
        <pt x="358" y="-12" on="0"/>
      </contour>
    </TTGlyph>
    <TTGlyph name="Cacute" xMin="84" yMin="-12" xMax="568" yMax="842">
      <component glyphName="C" x="0" y="0" flags="0x204"/>
      <component glyphName="acutecmb.cap" x="26" y="0" flags="0x4"/>
    </TTGlyph>
    <TTGlyph name="Ccaron" xMin="84" yMin="-12" xMax="568" yMax="840">
      <component glyphName="C" x="0" y="0" flags="0x204"/>
      <component glyphName="caroncmb.cap" x="26" y="0" flags="0x4"/>
    </TTGlyph>
    <TTGlyph name="Ccedilla" xMin="84" yMin="-216" xMax="568" yMax="672">
      <component glyphName="C" x="0" y="0" flags="0x204"/>
      <component glyphName="cedillacmb.cap" x="50" y="0" flags="0x4"/>
    </TTGlyph>
    <TTGlyph name="Ccircumflex" xMin="84" yMin="-12" xMax="568" yMax="840">
      <component glyphName="C" x="0" y="0" flags="0x204"/>
      <component glyphName="circumflexcmb.cap" x="26" y="0" flags="0x4"/>
    </TTGlyph>
    <TTGlyph name="Cdotaccent" xMin="84" yMin="-12" xMax="568" yMax="794">
      <component glyphName="C" x="0" y="0" flags="0x204"/>
      <component glyphName="dotaccentcmb.cap" x="26" y="0" flags="0x4"/>
    </TTGlyph>
    <TTGlyph name="D" xMin="30" yMin="0" xMax="550" yMax="660">
      <contour>
        <pt x="30" y="0" on="1"/>
        <pt x="162" y="660" on="1"/>
        <pt x="280" y="660" on="1"/>
        <pt x="348" y="660" on="0"/>
        <pt x="450" y="624" on="0"/>
        <pt x="517" y="557" on="0"/>
        <pt x="550" y="462" on="0"/>
        <pt x="550" y="404" on="1"/>
        <pt x="550" y="320" on="0"/>
        <pt x="504" y="173" on="0"/>
        <pt x="413" y="63" on="0"/>
        <pt x="277" y="0" on="0"/>
        <pt x="186" y="0" on="1"/>
      </contour>
      <contour>
        <pt x="64" y="26" on="1"/>
        <pt x="188" y="26" on="1"/>
        <pt x="269" y="26" on="0"/>
        <pt x="393" y="84" on="0"/>
        <pt x="477" y="186" on="0"/>
        <pt x="520" y="323" on="0"/>
        <pt x="520" y="402" on="1"/>
        <pt x="520" y="454" on="0"/>
        <pt x="490" y="540" on="0"/>
        <pt x="430" y="601" on="0"/>
        <pt x="339" y="634" on="0"/>
        <pt x="278" y="634" on="1"/>
        <pt x="186" y="634" on="1"/>
      </contour>
    </TTGlyph>
    <TTGlyph name="Dcaron" xMin="30" yMin="0" xMax="550" yMax="840">
      <component glyphName="D" x="0" y="0" flags="0x204"/>
      <component glyphName="caroncmb.cap" x="-13" y="0" flags="0x4"/>
    </TTGlyph>
    <TTGlyph name="Dcroat" xMin="18" yMin="0" xMax="550" yMax="660">
      <component glyphName="Eth" x="0" y="0" flags="0x204"/>
    </TTGlyph>
    <TTGlyph name="Ddotbelow" xMin="30" yMin="-223" xMax="550" yMax="660">
      <component glyphName="D" x="0" y="0" flags="0x204"/>
      <component glyphName="dotaccentcmb" x="-173" y="-823" flags="0x4"/>
    </TTGlyph>
    <TTGlyph name="Delta.math" xMin="-5" yMin="0" xMax="490" yMax="660">
      <contour>
        <pt x="-5" y="0" on="1"/>
        <pt x="-2" y="16" on="1"/>
        <pt x="360" y="660" on="1"/>
        <pt x="386" y="660" on="1"/>
        <pt x="490" y="16" on="1"/>
        <pt x="487" y="0" on="1"/>
      </contour>
      <contour>
        <pt x="33" y="26" on="1"/>
        <pt x="459" y="26" on="1"/>
        <pt x="401" y="393" on="1"/>
        <pt x="368" y="618" on="1"/>
        <pt x="364" y="618" on="1"/>
        <pt x="238" y="393" on="1"/>
      </contour>
    </TTGlyph>
    <TTGlyph name="Dlinebelow" xMin="30" yMin="-181" xMax="550" yMax="660">
      <component glyphName="D" x="0" y="0" flags="0x204"/>
      <component glyphName="macroncmb" x="-169" y="-789" flags="0x4"/>
    </TTGlyph>
    <TTGlyph name="E" xMin="78" yMin="0" xMax="596" yMax="660">
      <contour>
        <pt x="78" y="0" on="1"/>
        <pt x="210" y="660" on="1"/>
        <pt x="596" y="660" on="1"/>
        <pt x="590" y="634" on="1"/>
        <pt x="234" y="634" on="1"/>
        <pt x="180" y="364" on="1"/>
        <pt x="478" y="364" on="1"/>
        <pt x="472" y="338" on="1"/>
        <pt x="176" y="338" on="1"/>
        <pt x="112" y="26" on="1"/>
        <pt x="478" y="26" on="1"/>
        <pt x="472" y="0" on="1"/>
      </contour>
    </TTGlyph>
    <TTGlyph name="Eacute" xMin="78" yMin="0" xMax="596" yMax="842">
      <component glyphName="E" x="0" y="0" flags="0x204"/>
      <component glyphName="acutecmb.cap" x="44" y="0" flags="0x4"/>
    </TTGlyph>
    <TTGlyph name="Ebreve" xMin="78" yMin="0" xMax="596" yMax="838">
      <component glyphName="E" x="0" y="0" flags="0x204"/>
      <component glyphName="brevecmb.cap" x="44" y="0" flags="0x4"/>
    </TTGlyph>
    <TTGlyph name="Ecaron" xMin="78" yMin="0" xMax="596" yMax="840">
      <component glyphName="E" x="0" y="0" flags="0x204"/>
      <component glyphName="caroncmb.cap" x="44" y="0" flags="0x4"/>
    </TTGlyph>
    <TTGlyph name="Ecircumflex" xMin="78" yMin="0" xMax="596" yMax="840">
      <component glyphName="E" x="0" y="0" flags="0x204"/>
      <component glyphName="circumflexcmb.cap" x="44" y="0" flags="0x4"/>
    </TTGlyph>
    <TTGlyph name="Ecircumflexacute" xMin="78" yMin="0" xMax="646" yMax="878">
      <component glyphName="E" x="0" y="0" flags="0x204"/>
      <component glyphName="circumflexacutecmb.cap" x="44" y="0" flags="0x4"/>
    </TTGlyph>
    <TTGlyph name="Ecircumflexdotbelow" xMin="78" yMin="-223" xMax="596" yMax="840">
      <component glyphName="E" x="0" y="0" flags="0x204"/>
      <component glyphName="circumflexcmb.cap" x="44" y="0" flags="0x4"/>
      <component glyphName="dotaccentcmb" x="-103" y="-823" flags="0x4"/>
    </TTGlyph>
    <TTGlyph name="Ecircumflexgrave" xMin="78" yMin="0" xMax="596" yMax="885">
      <component glyphName="E" x="0" y="0" flags="0x204"/>
      <component glyphName="circumflexgravecmb.cap" x="44" y="0" flags="0x4"/>
    </TTGlyph>
    <TTGlyph name="Ecircumflexhoi" xMin="78" yMin="0" xMax="617" yMax="896">
      <component glyphName="E" x="0" y="0" flags="0x204"/>
      <component glyphName="circumflexhoicmb.cap" x="44" y="0" flags="0x4"/>
    </TTGlyph>
    <TTGlyph name="Ecircumflextilde" xMin="78" yMin="0" xMax="598" yMax="920">
      <component glyphName="E" x="0" y="0" flags="0x204"/>
      <component glyphName="circumflextildecmb.cap" x="44" y="0" flags="0x4"/>
    </TTGlyph>
    <TTGlyph name="Edieresis" xMin="78" yMin="0" xMax="596" yMax="790">
      <component glyphName="E" x="0" y="0" flags="0x204"/>
      <component glyphName="dieresiscmb.cap" x="44" y="0" flags="0x4"/>
    </TTGlyph>
    <TTGlyph name="Edotaccent" xMin="78" yMin="0" xMax="596" yMax="794">
      <component glyphName="E" x="0" y="0" flags="0x204"/>
      <component glyphName="dotaccentcmb.cap" x="44" y="0" flags="0x4"/>
    </TTGlyph>
    <TTGlyph name="Edotbelow" xMin="78" yMin="-223" xMax="596" yMax="660">
      <component glyphName="E" x="0" y="0" flags="0x204"/>
      <component glyphName="dotaccentcmb" x="-103" y="-823" flags="0x4"/>
    </TTGlyph>
    <TTGlyph name="Egrave" xMin="78" yMin="0" xMax="596" yMax="848">
      <component glyphName="E" x="0" y="0" flags="0x204"/>
      <component glyphName="gravecmb.cap" x="44" y="0" flags="0x4"/>
    </TTGlyph>
    <TTGlyph name="Ehoi" xMin="78" yMin="0" xMax="596" yMax="860">
      <component glyphName="E" x="0" y="0" flags="0x204"/>
      <component glyphName="hoicmb.cap" x="44" y="0" flags="0x4"/>
    </TTGlyph>
    <TTGlyph name="Emacron" xMin="78" yMin="0" xMax="596" yMax="762">
      <component glyphName="E" x="0" y="0" flags="0x204"/>
      <component glyphName="macroncmb.cap" x="44" y="0" flags="0x4"/>
    </TTGlyph>
    <TTGlyph name="Emacronacute" xMin="78" yMin="0" xMax="596" yMax="932">
      <component glyphName="E" x="0" y="0" flags="0x204"/>
      <component glyphName="macronacutecmb.cap" x="44" y="0" flags="0x4"/>
    </TTGlyph>
    <TTGlyph name="Eng" xMin="32" yMin="-12" xMax="550" yMax="672">
      <contour>
        <pt x="322" y="-12" on="1"/>
        <pt x="305" y="-12" on="0"/>
        <pt x="266" y="-2" on="0"/>
        <pt x="252" y="6" on="1"/>
        <pt x="267" y="30" on="1"/>
        <pt x="280" y="22" on="0"/>
        <pt x="306" y="14" on="0"/>
        <pt x="324" y="14" on="1"/>
        <pt x="364" y="14" on="0"/>
        <pt x="435" y="90" on="0"/>
        <pt x="489" y="213" on="0"/>
        <pt x="520" y="370" on="0"/>
        <pt x="520" y="450" on="1"/>
        <pt x="520" y="505" on="0"/>
        <pt x="498" y="580" on="0"/>
        <pt x="459" y="626" on="0"/>
        <pt x="403" y="646" on="0"/>
        <pt x="370" y="646" on="1"/>
        <pt x="332" y="646" on="0"/>
        <pt x="220" y="593" on="0"/>
        <pt x="170" y="542" on="1"/>
        <pt x="62" y="0" on="1"/>
        <pt x="32" y="0" on="1"/>
        <pt x="164" y="660" on="1"/>
        <pt x="194" y="660" on="1"/>
        <pt x="178" y="580" on="1"/>
        <pt x="197" y="599" on="0"/>
        <pt x="247" y="632" on="0"/>
        <pt x="300" y="657" on="0"/>
        <pt x="351" y="672" on="0"/>
        <pt x="372" y="672" on="1"/>
        <pt x="412" y="672" on="0"/>
        <pt x="477" y="648" on="0"/>
        <pt x="524" y="595" on="0"/>
        <pt x="550" y="513" on="0"/>
        <pt x="550" y="456" on="1"/>
        <pt x="550" y="366" on="0"/>
        <pt x="516" y="197" on="0"/>
        <pt x="455" y="67" on="0"/>
        <pt x="371" y="-12" on="0"/>
      </contour>
    </TTGlyph>
    <TTGlyph name="Eng.a" xMin="36" yMin="-150" xMax="576" yMax="660">
      <contour>
        <pt x="328" y="-150" on="1"/>
        <pt x="307" y="-150" on="0"/>
        <pt x="281" y="-140" on="0"/>
        <pt x="270" y="-134" on="1"/>
        <pt x="282" y="-110" on="1"/>
        <pt x="291" y="-116" on="0"/>
        <pt x="310" y="-124" on="0"/>
        <pt x="330" y="-124" on="1"/>
        <pt x="360" y="-124" on="0"/>
        <pt x="404" y="-70" on="0"/>
        <pt x="416" y="-8" on="1"/>
        <pt x="234" y="488" on="1"/>
        <pt x="188" y="618" on="1"/>
        <pt x="184" y="618" on="1"/>
        <pt x="176" y="571" on="0"/>
        <pt x="161" y="485" on="0"/>
        <pt x="152" y="438" on="1"/>
        <pt x="66" y="0" on="1"/>
        <pt x="36" y="0" on="1"/>
        <pt x="168" y="660" on="1"/>
        <pt x="200" y="660" on="1"/>
        <pt x="378" y="172" on="1"/>
        <pt x="424" y="42" on="1"/>
        <pt x="428" y="42" on="1"/>
        <pt x="436" y="89" on="0"/>
        <pt x="451" y="177" on="0"/>
        <pt x="460" y="222" on="1"/>
        <pt x="546" y="660" on="1"/>
        <pt x="576" y="660" on="1"/>
        <pt x="440" y="-20" on="1"/>
        <pt x="428" y="-80" on="0"/>
        <pt x="373" y="-150" on="0"/>
      </contour>
    </TTGlyph>
    <TTGlyph name="Eogonek" xMin="78" yMin="-224" xMax="596" yMax="660">
      <contour>
        <pt x="382" y="-224" on="1"/>
        <pt x="366" y="-224" on="0"/>
        <pt x="335" y="-216" on="0"/>
        <pt x="311" y="-199" on="0"/>
        <pt x="296" y="-172" on="0"/>
        <pt x="296" y="-152" on="1"/>
        <pt x="296" y="-128" on="0"/>
        <pt x="315" y="-84" on="0"/>
        <pt x="346" y="-45" on="0"/>
        <pt x="387" y="-12" on="0"/>
        <pt x="410" y="0" on="1"/>
        <pt x="78" y="0" on="1"/>
        <pt x="210" y="660" on="1"/>
        <pt x="596" y="660" on="1"/>
        <pt x="590" y="634" on="1"/>
        <pt x="234" y="634" on="1"/>
        <pt x="180" y="364" on="1"/>
        <pt x="478" y="364" on="1"/>
        <pt x="472" y="338" on="1"/>
        <pt x="176" y="338" on="1"/>
        <pt x="112" y="26" on="1"/>
        <pt x="478" y="26" on="1"/>
        <pt x="472" y="0" on="1"/>
        <pt x="470" y="0" on="1"/>
        <pt x="451" y="0" on="0"/>
        <pt x="401" y="-27" on="0"/>
        <pt x="356" y="-69" on="0"/>
        <pt x="324" y="-120" on="0"/>
        <pt x="324" y="-144" on="1"/>
        <pt x="324" y="-173" on="0"/>
        <pt x="361" y="-198" on="0"/>
        <pt x="388" y="-198" on="1"/>
        <pt x="405" y="-198" on="0"/>
        <pt x="432" y="-187" on="0"/>
        <pt x="444" y="-178" on="1"/>
        <pt x="456" y="-196" on="1"/>
        <pt x="442" y="-208" on="0"/>
        <pt x="406" y="-224" on="0"/>
      </contour>
    </TTGlyph>
    <TTGlyph name="Eth" xMin="18" yMin="0" xMax="550" yMax="660">
      <contour>
        <pt x="30" y="0" on="1"/>
        <pt x="98" y="338" on="1"/>
        <pt x="18" y="338" on="1"/>
        <pt x="24" y="362" on="1"/>
        <pt x="103" y="364" on="1"/>
        <pt x="162" y="660" on="1"/>
        <pt x="280" y="660" on="1"/>
        <pt x="348" y="660" on="0"/>
        <pt x="450" y="624" on="0"/>
        <pt x="517" y="557" on="0"/>
        <pt x="550" y="462" on="0"/>
        <pt x="550" y="404" on="1"/>
        <pt x="550" y="320" on="0"/>
        <pt x="504" y="173" on="0"/>
        <pt x="413" y="63" on="0"/>
        <pt x="277" y="0" on="0"/>
        <pt x="186" y="0" on="1"/>
      </contour>
      <contour>
        <pt x="64" y="26" on="1"/>
        <pt x="188" y="26" on="1"/>
        <pt x="269" y="26" on="0"/>
        <pt x="393" y="84" on="0"/>
        <pt x="477" y="186" on="0"/>
        <pt x="520" y="323" on="0"/>
        <pt x="520" y="402" on="1"/>
        <pt x="520" y="454" on="0"/>
        <pt x="490" y="540" on="0"/>
        <pt x="430" y="601" on="0"/>
        <pt x="339" y="634" on="0"/>
        <pt x="278" y="634" on="1"/>
        <pt x="186" y="634" on="1"/>
        <pt x="132" y="364" on="1"/>
        <pt x="304" y="364" on="1"/>
        <pt x="298" y="338" on="1"/>
        <pt x="127" y="338" on="1"/>
      </contour>
    </TTGlyph>
    <TTGlyph name="Etilde" xMin="78" yMin="0" xMax="602" yMax="832">
      <component glyphName="E" x="0" y="0" flags="0x204"/>
      <component glyphName="tildecmb.cap" x="44" y="0" flags="0x4"/>
    </TTGlyph>
    <TTGlyph name="Euro" xMin="44" yMin="-12" xMax="594" yMax="652">
      <contour>
        <pt x="303" y="-12" on="1"/>
        <pt x="259" y="-12" on="0"/>
        <pt x="192" y="23" on="0"/>
        <pt x="145" y="87" on="0"/>
        <pt x="121" y="177" on="0"/>
        <pt x="121" y="233" on="1"/>
        <pt x="121" y="254" on="1"/>
        <pt x="44" y="254" on="1"/>
        <pt x="50" y="274" on="1"/>
        <pt x="123" y="278" on="1"/>
        <pt x="126" y="321" on="0"/>
        <pt x="135" y="360" on="1"/>
        <pt x="66" y="360" on="1"/>
        <pt x="71" y="380" on="1"/>
        <pt x="141" y="384" on="1"/>
        <pt x="158" y="445" on="0"/>
        <pt x="218" y="545" on="0"/>
        <pt x="297" y="614" on="0"/>
        <pt x="390" y="652" on="0"/>
        <pt x="441" y="652" on="1"/>
        <pt x="497" y="652" on="0"/>
        <pt x="568" y="597" on="0"/>
        <pt x="594" y="555" on="1"/>
        <pt x="572" y="540" on="1"/>
        <pt x="546" y="582" on="0"/>
        <pt x="485" y="627" on="0"/>
        <pt x="438" y="627" on="1"/>
        <pt x="396" y="627" on="0"/>
        <pt x="315" y="593" on="0"/>
        <pt x="245" y="530" on="0"/>
        <pt x="189" y="440" on="0"/>
        <pt x="172" y="384" on="1"/>
        <pt x="487" y="384" on="1"/>
        <pt x="481" y="360" on="1"/>
        <pt x="166" y="360" on="1"/>
        <pt x="156" y="323" on="0"/>
        <pt x="153" y="278" on="1"/>
        <pt x="425" y="278" on="1"/>
        <pt x="418" y="254" on="1"/>
        <pt x="151" y="254" on="1"/>
        <pt x="151" y="233" on="1"/>
        <pt x="151" y="184" on="0"/>
        <pt x="171" y="103" on="0"/>
        <pt x="212" y="46" on="0"/>
        <pt x="271" y="15" on="0"/>
        <pt x="310" y="15" on="1"/>
        <pt x="360" y="15" on="0"/>
        <pt x="446" y="63" on="0"/>
        <pt x="489" y="108" on="1"/>
        <pt x="509" y="90" on="1"/>
        <pt x="467" y="45" on="0"/>
        <pt x="369" y="-12" on="0"/>
      </contour>
    </TTGlyph>
    <TTGlyph name="F" xMin="98" yMin="0" xMax="610" yMax="660">
      <contour>
        <pt x="98" y="0" on="1"/>
        <pt x="230" y="660" on="1"/>
        <pt x="610" y="660" on="1"/>
        <pt x="604" y="634" on="1"/>
        <pt x="254" y="634" on="1"/>
        <pt x="198" y="352" on="1"/>
        <pt x="490" y="352" on="1"/>
        <pt x="484" y="326" on="1"/>
        <pt x="194" y="326" on="1"/>
        <pt x="128" y="0" on="1"/>
      </contour>
    </TTGlyph>
    <TTGlyph name="G" xMin="74" yMin="-12" xMax="568" yMax="672">
      <contour>
        <pt x="304" y="-12" on="1"/>
        <pt x="245" y="-12" on="0"/>
        <pt x="159" y="26" on="0"/>
        <pt x="102" y="95" on="0"/>
        <pt x="74" y="190" on="0"/>
        <pt x="74" y="246" on="1"/>
        <pt x="74" y="319" on="0"/>
        <pt x="118" y="471" on="0"/>
        <pt x="205" y="594" on="0"/>
        <pt x="333" y="672" on="0"/>
        <pt x="416" y="672" on="1"/>
        <pt x="472" y="672" on="0"/>
        <pt x="545" y="616" on="0"/>
        <pt x="568" y="580" on="1"/>
        <pt x="544" y="564" on="1"/>
        <pt x="524" y="599" on="0"/>
        <pt x="461" y="646" on="0"/>
        <pt x="414" y="646" on="1"/>
        <pt x="339" y="646" on="0"/>
        <pt x="223" y="571" on="0"/>
        <pt x="145" y="455" on="0"/>
        <pt x="104" y="316" on="0"/>
        <pt x="104" y="252" on="1"/>
        <pt x="104" y="203" on="0"/>
        <pt x="126" y="117" on="0"/>
        <pt x="174" y="52" on="0"/>
        <pt x="251" y="14" on="0"/>
        <pt x="306" y="14" on="1"/>
        <pt x="354" y="14" on="0"/>
        <pt x="426" y="45" on="0"/>
        <pt x="450" y="68" on="1"/>
        <pt x="494" y="290" on="1"/>
        <pt x="336" y="290" on="1"/>
        <pt x="342" y="316" on="1"/>
        <pt x="530" y="316" on="1"/>
        <pt x="476" y="54" on="1"/>
        <pt x="441" y="24" on="0"/>
        <pt x="357" y="-12" on="0"/>
      </contour>
    </TTGlyph>
    <TTGlyph name="Gacute" xMin="74" yMin="-12" xMax="568" yMax="842">
      <component glyphName="G" x="0" y="0" flags="0x204"/>
      <component glyphName="acutecmb.cap" x="26" y="0" flags="0x4"/>
    </TTGlyph>
    <TTGlyph name="Gbreve" xMin="74" yMin="-12" xMax="568" yMax="838">
      <component glyphName="G" x="0" y="0" flags="0x204"/>
      <component glyphName="brevecmb.cap" x="26" y="0" flags="0x4"/>
    </TTGlyph>
    <TTGlyph name="Gcaron" xMin="74" yMin="-12" xMax="568" yMax="840">
      <component glyphName="G" x="0" y="0" flags="0x204"/>
      <component glyphName="caroncmb.cap" x="26" y="0" flags="0x4"/>
    </TTGlyph>
    <TTGlyph name="Gcircumflex" xMin="74" yMin="-12" xMax="568" yMax="840">
      <component glyphName="G" x="0" y="0" flags="0x204"/>
      <component glyphName="circumflexcmb.cap" x="26" y="0" flags="0x4"/>
    </TTGlyph>
    <TTGlyph name="Gcommaaccent" xMin="74" yMin="-216" xMax="568" yMax="672">
      <component glyphName="G" x="0" y="0" flags="0x204"/>
      <component glyphName="commabelowcmb" x="66" y="0" flags="0x4"/>
    </TTGlyph>
    <TTGlyph name="Gdotaccent" xMin="74" yMin="-12" xMax="568" yMax="794">
      <component glyphName="G" x="0" y="0" flags="0x204"/>
      <component glyphName="dotaccentcmb.cap" x="26" y="0" flags="0x4"/>
    </TTGlyph>
    <TTGlyph name="Germandbls" xMin="31" yMin="-12" xMax="550" yMax="672">
      <contour>
        <pt x="333" y="-12" on="1"/>
        <pt x="277" y="-12" on="0"/>
        <pt x="197" y="33" on="0"/>
        <pt x="174" y="68" on="1"/>
        <pt x="197" y="86" on="1"/>
        <pt x="220" y="51" on="0"/>
        <pt x="285" y="15" on="0"/>
        <pt x="334" y="15" on="1"/>
        <pt x="373" y="15" on="0"/>
        <pt x="438" y="40" on="0"/>
        <pt x="483" y="83" on="0"/>
        <pt x="508" y="140" on="0"/>
        <pt x="508" y="172" on="1"/>
        <pt x="508" y="240" on="0"/>
        <pt x="412" y="315" on="0"/>
        <pt x="320" y="338" on="1"/>
        <pt x="323" y="366" on="1"/>
        <pt x="518" y="549" on="1"/>
        <pt x="500" y="594" on="0"/>
        <pt x="431" y="646" on="0"/>
        <pt x="380" y="646" on="1"/>
        <pt x="340" y="646" on="0"/>
        <pt x="266" y="621" on="0"/>
        <pt x="204" y="567" on="0"/>
        <pt x="157" y="482" on="0"/>
        <pt x="145" y="422" on="1"/>
        <pt x="61" y="0" on="1"/>
        <pt x="31" y="0" on="1"/>
        <pt x="118" y="434" on="1"/>
        <pt x="128" y="487" on="0"/>
        <pt x="173" y="575" on="0"/>
        <pt x="240" y="638" on="0"/>
        <pt x="328" y="672" on="0"/>
        <pt x="381" y="672" on="1"/>
        <pt x="449" y="672" on="0"/>
        <pt x="533" y="600" on="0"/>
        <pt x="550" y="541" on="1"/>
        <pt x="351" y="357" on="1"/>
        <pt x="449" y="330" on="0"/>
        <pt x="538" y="241" on="0"/>
        <pt x="538" y="173" on="1"/>
        <pt x="538" y="136" on="0"/>
        <pt x="511" y="69" on="0"/>
        <pt x="459" y="18" on="0"/>
        <pt x="382" y="-12" on="0"/>
      </contour>
    </TTGlyph>
    <TTGlyph name="Ghook" xMin="74" yMin="-12" xMax="646" yMax="790">
      <contour>
        <pt x="568" y="580" on="1"/>
        <pt x="544" y="564" on="1"/>
        <pt x="524" y="599" on="0"/>
        <pt x="461" y="646" on="0"/>
        <pt x="414" y="646" on="1"/>
        <pt x="339" y="646" on="0"/>
        <pt x="223" y="571" on="0"/>
        <pt x="145" y="455" on="0"/>
        <pt x="104" y="316" on="0"/>
        <pt x="104" y="252" on="1"/>
        <pt x="104" y="203" on="0"/>
        <pt x="126" y="117" on="0"/>
        <pt x="174" y="52" on="0"/>
        <pt x="251" y="14" on="0"/>
        <pt x="306" y="14" on="1"/>
        <pt x="354" y="14" on="0"/>
        <pt x="426" y="45" on="0"/>
        <pt x="450" y="68" on="1"/>
        <pt x="494" y="290" on="1"/>
        <pt x="336" y="290" on="1"/>
        <pt x="342" y="316" on="1"/>
        <pt x="530" y="316" on="1"/>
        <pt x="476" y="54" on="1"/>
        <pt x="441" y="24" on="0"/>
        <pt x="357" y="-12" on="0"/>
        <pt x="304" y="-12" on="1"/>
        <pt x="245" y="-12" on="0"/>
        <pt x="159" y="26" on="0"/>
        <pt x="102" y="95" on="0"/>
        <pt x="74" y="190" on="0"/>
        <pt x="74" y="246" on="1"/>
        <pt x="74" y="319" on="0"/>
        <pt x="118" y="471" on="0"/>
        <pt x="205" y="594" on="0"/>
        <pt x="333" y="672" on="0"/>
        <pt x="416" y="672" on="1"/>
        <pt x="449" y="672" on="0"/>
        <pt x="502" y="651" on="0"/>
        <pt x="522" y="634" on="1"/>
        <pt x="517" y="651" on="0"/>
        <pt x="514" y="677" on="0"/>
        <pt x="514" y="688" on="1"/>
        <pt x="514" y="736" on="0"/>
        <pt x="559" y="790" on="0"/>
        <pt x="600" y="790" on="1"/>
        <pt x="615" y="790" on="0"/>
        <pt x="635" y="782" on="0"/>
        <pt x="646" y="774" on="1"/>
        <pt x="634" y="752" on="1"/>
        <pt x="625" y="758" on="0"/>
        <pt x="609" y="764" on="0"/>
        <pt x="598" y="764" on="1"/>
        <pt x="569" y="764" on="0"/>
        <pt x="540" y="721" on="0"/>
        <pt x="540" y="694" on="1"/>
        <pt x="540" y="662" on="0"/>
        <pt x="552" y="612" on="0"/>
      </contour>
    </TTGlyph>
    <TTGlyph name="Gmacron" xMin="74" yMin="-12" xMax="568" yMax="762">
      <component glyphName="G" x="0" y="0" flags="0x204"/>
      <component glyphName="macroncmb.cap" x="26" y="0" flags="0x4"/>
    </TTGlyph>
    <TTGlyph name="Gtilde" xMin="74" yMin="-12" xMax="584" yMax="832">
      <component glyphName="G" x="0" y="0" flags="0x204"/>
      <component glyphName="tildecmb.cap" x="26" y="0" flags="0x4"/>
    </TTGlyph>
    <TTGlyph name="H" xMin="30" yMin="0" xMax="578" yMax="660">
      <contour>
        <pt x="30" y="0" on="1"/>
        <pt x="162" y="660" on="1"/>
        <pt x="192" y="660" on="1"/>
        <pt x="132" y="364" on="1"/>
        <pt x="488" y="364" on="1"/>
        <pt x="548" y="660" on="1"/>
        <pt x="578" y="660" on="1"/>
        <pt x="446" y="0" on="1"/>
        <pt x="416" y="0" on="1"/>
        <pt x="484" y="338" on="1"/>
        <pt x="128" y="338" on="1"/>
        <pt x="60" y="0" on="1"/>
      </contour>
    </TTGlyph>
    <TTGlyph name="Hbar" xMin="30" yMin="0" xMax="626" yMax="660">
      <contour>
        <pt x="52" y="498" on="1"/>
        <pt x="56" y="518" on="1"/>
        <pt x="134" y="522" on="1"/>
        <pt x="162" y="660" on="1"/>
        <pt x="192" y="660" on="1"/>
        <pt x="164" y="522" on="1"/>
        <pt x="520" y="522" on="1"/>
        <pt x="548" y="660" on="1"/>
        <pt x="578" y="660" on="1"/>
        <pt x="550" y="522" on="1"/>
        <pt x="626" y="522" on="1"/>
        <pt x="620" y="498" on="1"/>
        <pt x="546" y="498" on="1"/>
        <pt x="446" y="0" on="1"/>
        <pt x="416" y="0" on="1"/>
        <pt x="484" y="338" on="1"/>
        <pt x="128" y="338" on="1"/>
        <pt x="60" y="0" on="1"/>
        <pt x="30" y="0" on="1"/>
        <pt x="130" y="498" on="1"/>
      </contour>
      <contour>
        <pt x="132" y="364" on="1"/>
        <pt x="488" y="364" on="1"/>
        <pt x="515" y="498" on="1"/>
        <pt x="159" y="498" on="1"/>
      </contour>
    </TTGlyph>
    <TTGlyph name="Hbrevebelow" xMin="30" yMin="-219" xMax="578" yMax="660">
      <component glyphName="H" x="0" y="0" flags="0x204"/>
      <component glyphName="brevecmb" x="-155" y="-789" flags="0x4"/>
    </TTGlyph>
    <TTGlyph name="Hcircumflex" xMin="30" yMin="0" xMax="578" yMax="840">
      <component glyphName="H" x="0" y="0" flags="0x204"/>
      <component glyphName="circumflexcmb.cap" x="0" y="0" flags="0x4"/>
    </TTGlyph>
    <TTGlyph name="Hdotbelow" xMin="30" yMin="-223" xMax="578" yMax="660">
      <component glyphName="H" x="0" y="0" flags="0x204"/>
      <component glyphName="dotaccentcmb" x="-159" y="-823" flags="0x4"/>
    </TTGlyph>
    <TTGlyph name="I" xMin="50" yMin="0" xMax="558" yMax="660">
      <contour>
        <pt x="50" y="0" on="1"/>
        <pt x="56" y="26" on="1"/>
        <pt x="226" y="26" on="1"/>
        <pt x="348" y="634" on="1"/>
        <pt x="176" y="634" on="1"/>
        <pt x="182" y="660" on="1"/>
        <pt x="558" y="660" on="1"/>
        <pt x="552" y="634" on="1"/>
        <pt x="378" y="634" on="1"/>
        <pt x="256" y="26" on="1"/>
        <pt x="430" y="26" on="1"/>
        <pt x="424" y="0" on="1"/>
      </contour>
    </TTGlyph>
    <TTGlyph name="IJ" xMin="68" yMin="-150" xMax="542" yMax="660">
      <contour>
        <pt x="68" y="0" on="1"/>
        <pt x="200" y="660" on="1"/>
        <pt x="230" y="660" on="1"/>
        <pt x="98" y="0" on="1"/>
      </contour>
      <contour>
        <pt x="294" y="-150" on="1"/>
        <pt x="273" y="-150" on="0"/>
        <pt x="247" y="-140" on="0"/>
        <pt x="236" y="-134" on="1"/>
        <pt x="248" y="-108" on="1"/>
        <pt x="257" y="-114" on="0"/>
        <pt x="276" y="-122" on="0"/>
        <pt x="296" y="-122" on="1"/>
        <pt x="326" y="-122" on="0"/>
        <pt x="365" y="-67" on="0"/>
        <pt x="376" y="-20" on="1"/>
        <pt x="512" y="660" on="1"/>
        <pt x="542" y="660" on="1"/>
        <pt x="408" y="-12" on="1"/>
        <pt x="395" y="-77" on="0"/>
        <pt x="339" y="-150" on="0"/>
      </contour>
    </TTGlyph>
    <TTGlyph name="IJacute" xMin="68" yMin="-150" xMax="676" yMax="842">
      <component glyphName="IJ" x="0" y="0" flags="0x204"/>
      <component glyphName="acutecmb.cap" x="-153" y="0" flags="0x4"/>
      <component glyphName="acutecmb.cap" x="158" y="0" flags="0x4"/>
    </TTGlyph>
    <TTGlyph name="Iacute" xMin="50" yMin="0" xMax="558" yMax="842">
      <component glyphName="I" x="0" y="0" flags="0x204"/>
      <component glyphName="acutecmb.cap" x="0" y="0" flags="0x4"/>
    </TTGlyph>
    <TTGlyph name="Ibreve" xMin="50" yMin="0" xMax="558" yMax="838">
      <component glyphName="I" x="0" y="0" flags="0x204"/>
      <component glyphName="brevecmb.cap" x="0" y="0" flags="0x4"/>
    </TTGlyph>
    <TTGlyph name="Icaron" xMin="50" yMin="0" xMax="558" yMax="840">
      <component glyphName="I" x="0" y="0" flags="0x204"/>
      <component glyphName="caroncmb.cap" x="0" y="0" flags="0x4"/>
    </TTGlyph>
    <TTGlyph name="Icircumflex" xMin="50" yMin="0" xMax="558" yMax="840">
      <component glyphName="I" x="0" y="0" flags="0x204"/>
      <component glyphName="circumflexcmb.cap" x="0" y="0" flags="0x4"/>
    </TTGlyph>
    <TTGlyph name="Idieresis" xMin="50" yMin="0" xMax="558" yMax="790">
      <component glyphName="I" x="0" y="0" flags="0x204"/>
      <component glyphName="dieresiscmb.cap" x="0" y="0" flags="0x4"/>
    </TTGlyph>
    <TTGlyph name="Idotaccent" xMin="50" yMin="0" xMax="558" yMax="794">
      <component glyphName="I" x="0" y="0" flags="0x204"/>
      <component glyphName="dotaccentcmb.cap" x="0" y="0" flags="0x4"/>
    </TTGlyph>
    <TTGlyph name="Idotbelow" xMin="50" yMin="-223" xMax="558" yMax="660">
      <component glyphName="I" x="0" y="0" flags="0x204"/>
      <component glyphName="dotaccentcmb" x="-159" y="-823" flags="0x4"/>
    </TTGlyph>
    <TTGlyph name="Igrave" xMin="50" yMin="0" xMax="558" yMax="848">
      <component glyphName="I" x="0" y="0" flags="0x204"/>
      <component glyphName="gravecmb.cap" x="0" y="0" flags="0x4"/>
    </TTGlyph>
    <TTGlyph name="Ihoi" xMin="50" yMin="0" xMax="558" yMax="860">
      <component glyphName="I" x="0" y="0" flags="0x204"/>
      <component glyphName="hoicmb.cap" x="0" y="0" flags="0x4"/>
    </TTGlyph>
    <TTGlyph name="Imacron" xMin="50" yMin="0" xMax="558" yMax="762">
      <component glyphName="I" x="0" y="0" flags="0x204"/>
      <component glyphName="macroncmb.cap" x="0" y="0" flags="0x4"/>
    </TTGlyph>
    <TTGlyph name="Iogonek" xMin="50" yMin="-224" xMax="558" yMax="660">
      <contour>
        <pt x="212" y="-224" on="1"/>
        <pt x="196" y="-224" on="0"/>
        <pt x="165" y="-216" on="0"/>
        <pt x="141" y="-199" on="0"/>
        <pt x="126" y="-172" on="0"/>
        <pt x="126" y="-152" on="1"/>
        <pt x="126" y="-129" on="0"/>
        <pt x="143" y="-85" on="0"/>
        <pt x="170" y="-46" on="0"/>
        <pt x="203" y="-13" on="0"/>
        <pt x="220" y="0" on="1"/>
        <pt x="50" y="0" on="1"/>
        <pt x="56" y="26" on="1"/>
        <pt x="226" y="26" on="1"/>
        <pt x="348" y="634" on="1"/>
        <pt x="176" y="634" on="1"/>
        <pt x="182" y="660" on="1"/>
        <pt x="558" y="660" on="1"/>
        <pt x="552" y="634" on="1"/>
        <pt x="378" y="634" on="1"/>
        <pt x="256" y="26" on="1"/>
        <pt x="430" y="26" on="1"/>
        <pt x="424" y="0" on="1"/>
        <pt x="254" y="0" on="1"/>
        <pt x="210" y="-29" on="0"/>
        <pt x="154" y="-108" on="0"/>
        <pt x="154" y="-144" on="1"/>
        <pt x="154" y="-173" on="0"/>
        <pt x="191" y="-198" on="0"/>
        <pt x="218" y="-198" on="1"/>
        <pt x="235" y="-198" on="0"/>
        <pt x="262" y="-187" on="0"/>
        <pt x="274" y="-178" on="1"/>
        <pt x="286" y="-196" on="1"/>
        <pt x="272" y="-208" on="0"/>
        <pt x="236" y="-224" on="0"/>
      </contour>
    </TTGlyph>
    <TTGlyph name="Itilde" xMin="50" yMin="0" xMax="558" yMax="832">
      <component glyphName="I" x="0" y="0" flags="0x204"/>
      <component glyphName="tildecmb.cap" x="0" y="0" flags="0x4"/>
    </TTGlyph>
    <TTGlyph name="J" xMin="36" yMin="-12" xMax="516" yMax="660">
      <contour>
        <pt x="198" y="-12" on="1"/>
        <pt x="141" y="-12" on="0"/>
        <pt x="56" y="44" on="0"/>
        <pt x="36" y="82" on="1"/>
        <pt x="58" y="98" on="1"/>
        <pt x="82" y="57" on="0"/>
        <pt x="151" y="14" on="0"/>
        <pt x="202" y="14" on="1"/>
        <pt x="283" y="14" on="0"/>
        <pt x="376" y="114" on="0"/>
        <pt x="396" y="214" on="1"/>
        <pt x="480" y="634" on="1"/>
        <pt x="190" y="634" on="1"/>
        <pt x="196" y="660" on="1"/>
        <pt x="516" y="660" on="1"/>
        <pt x="426" y="211" on="1"/>
        <pt x="403" y="99" on="0"/>
        <pt x="296" y="-12" on="0"/>
      </contour>
    </TTGlyph>
    <TTGlyph name="Jcircumflex" xMin="36" yMin="-12" xMax="516" yMax="840">
      <component glyphName="J" x="0" y="0" flags="0x204"/>
      <component glyphName="circumflexcmb.cap" x="-13" y="0" flags="0x4"/>
    </TTGlyph>
    <TTGlyph name="K" xMin="64" yMin="0" xMax="600" yMax="660">
      <contour>
        <pt x="600" y="660" on="1"/>
        <pt x="315" y="396" on="1"/>
        <pt x="508" y="0" on="1"/>
        <pt x="476" y="0" on="1"/>
        <pt x="294" y="376" on="1"/>
        <pt x="142" y="236" on="1"/>
        <pt x="94" y="0" on="1"/>
        <pt x="64" y="0" on="1"/>
        <pt x="196" y="660" on="1"/>
        <pt x="226" y="660" on="1"/>
        <pt x="150" y="282" on="1"/>
        <pt x="154" y="282" on="1"/>
        <pt x="562" y="660" on="1"/>
      </contour>
    </TTGlyph>
    <TTGlyph name="Kcommaaccent" xMin="64" yMin="-216" xMax="600" yMax="660">
      <component glyphName="K" x="0" y="0" flags="0x204"/>
      <component glyphName="commabelowcmb" x="66" y="0" flags="0x4"/>
    </TTGlyph>
    <TTGlyph name="Kdotbelow" xMin="64" yMin="-223" xMax="600" yMax="660">
      <component glyphName="K" x="0" y="0" flags="0x204"/>
      <component glyphName="dotaccentcmb" x="-93" y="-823" flags="0x4"/>
    </TTGlyph>
    <TTGlyph name="Klinebelow" xMin="64" yMin="-181" xMax="600" yMax="660">
      <component glyphName="K" x="0" y="0" flags="0x204"/>
      <component glyphName="macroncmb" x="-89" y="-789" flags="0x4"/>
    </TTGlyph>
    <TTGlyph name="L" xMin="126" yMin="0" xMax="514" yMax="660">
      <contour>
        <pt x="126" y="0" on="1"/>
        <pt x="258" y="660" on="1"/>
        <pt x="288" y="660" on="1"/>
        <pt x="162" y="26" on="1"/>
        <pt x="514" y="26" on="1"/>
        <pt x="508" y="0" on="1"/>
      </contour>
    </TTGlyph>
    <TTGlyph name="Lacute" xMin="126" yMin="0" xMax="514" yMax="842">
      <component glyphName="L" x="0" y="0" flags="0x204"/>
      <component glyphName="acutecmb.cap" x="-93" y="0" flags="0x4"/>
    </TTGlyph>
    <TTGlyph name="Lcaron" xMin="126" yMin="0" xMax="514" yMax="812">
      <component glyphName="L" x="0" y="0" flags="0x204"/>
      <component glyphName="caron.a" x="106" y="0" flags="0x4"/>
    </TTGlyph>
    <TTGlyph name="Lcat" xMin="10" yMin="0" xMax="554" yMax="660">
      <contour>
        <pt x="10" y="0" on="1"/>
        <pt x="142" y="660" on="1"/>
        <pt x="172" y="660" on="1"/>
        <pt x="46" y="26" on="1"/>
        <pt x="248" y="26" on="1"/>
        <pt x="242" y="0" on="1"/>
      </contour>
      <contour>
        <pt x="240" y="294" on="1"/>
        <pt x="220" y="294" on="0"/>
        <pt x="198" y="319" on="0"/>
        <pt x="198" y="340" on="1"/>
        <pt x="198" y="353" on="0"/>
        <pt x="208" y="377" on="0"/>
        <pt x="226" y="396" on="0"/>
        <pt x="248" y="408" on="0"/>
        <pt x="260" y="408" on="1"/>
        <pt x="280" y="408" on="0"/>
        <pt x="302" y="383" on="0"/>
        <pt x="302" y="362" on="1"/>
        <pt x="302" y="349" on="0"/>
        <pt x="292" y="325" on="0"/>
        <pt x="274" y="306" on="0"/>
        <pt x="252" y="294" on="0"/>
      </contour>
      <contour>
        <pt x="316" y="0" on="1"/>
        <pt x="448" y="660" on="1"/>
        <pt x="478" y="660" on="1"/>
        <pt x="352" y="26" on="1"/>
        <pt x="554" y="26" on="1"/>
        <pt x="548" y="0" on="1"/>
      </contour>
    </TTGlyph>
    <TTGlyph name="Lcommaaccent" xMin="126" yMin="-216" xMax="514" yMax="660">
      <component glyphName="L" x="0" y="0" flags="0x204"/>
      <component glyphName="commabelowcmb" x="86" y="0" flags="0x4"/>
    </TTGlyph>
    <TTGlyph name="Ldot" xMin="126" yMin="0" xMax="534" yMax="660">
      <component glyphName="L" x="0" y="0" flags="0x204"/>
      <component glyphName="dotaccentcmb" x="130" y="-299" flags="0x4"/>
    </TTGlyph>
    <TTGlyph name="Ldotbelow" xMin="126" yMin="-223" xMax="514" yMax="660">
      <component glyphName="L" x="0" y="0" flags="0x204"/>
      <component glyphName="dotaccentcmb" x="-73" y="-823" flags="0x4"/>
    </TTGlyph>
    <TTGlyph name="Ldotbelowmacron" xMin="126" yMin="-223" xMax="514" yMax="762">
      <component glyphName="L" x="0" y="0" flags="0x204"/>
      <component glyphName="macroncmb.cap" x="-93" y="0" flags="0x4"/>
      <component glyphName="dotaccentcmb" x="-73" y="-823" flags="0x4"/>
    </TTGlyph>
    <TTGlyph name="Llinebelow" xMin="126" yMin="-181" xMax="514" yMax="660">
      <component glyphName="L" x="0" y="0" flags="0x204"/>
      <component glyphName="macroncmb" x="-69" y="-789" flags="0x4"/>
    </TTGlyph>
    <TTGlyph name="Lslash" xMin="70" yMin="0" xMax="514" yMax="660">
      <contour>
        <pt x="80" y="218" on="1"/>
        <pt x="70" y="242" on="1"/>
        <pt x="185" y="294" on="1"/>
        <pt x="258" y="660" on="1"/>
        <pt x="288" y="660" on="1"/>
        <pt x="218" y="307" on="1"/>
        <pt x="460" y="422" on="1"/>
        <pt x="470" y="398" on="1"/>
        <pt x="212" y="277" on="1"/>
        <pt x="162" y="26" on="1"/>
        <pt x="514" y="26" on="1"/>
        <pt x="508" y="0" on="1"/>
        <pt x="126" y="0" on="1"/>
        <pt x="179" y="264" on="1"/>
      </contour>
    </TTGlyph>
    <TTGlyph name="M" xMin="30" yMin="0" xMax="578" yMax="660">
      <contour>
        <pt x="30" y="0" on="1"/>
        <pt x="162" y="660" on="1"/>
        <pt x="206" y="660" on="1"/>
        <pt x="266" y="313" on="1"/>
        <pt x="279" y="219" on="1"/>
        <pt x="283" y="219" on="1"/>
        <pt x="333" y="314" on="1"/>
        <pt x="535" y="660" on="1"/>
        <pt x="578" y="660" on="1"/>
        <pt x="446" y="0" on="1"/>
        <pt x="416" y="0" on="1"/>
        <pt x="517" y="502" on="1"/>
        <pt x="529" y="564" on="0"/>
        <pt x="546" y="626" on="1"/>
        <pt x="542" y="626" on="1"/>
        <pt x="530" y="600" on="0"/>
        <pt x="502" y="548" on="0"/>
        <pt x="484" y="516" on="1"/>
        <pt x="289" y="181" on="1"/>
        <pt x="259" y="181" on="1"/>
        <pt x="204" y="517" on="1"/>
        <pt x="200" y="542" on="0"/>
        <pt x="190" y="599" on="0"/>
        <pt x="186" y="626" on="1"/>
        <pt x="182" y="626" on="1"/>
        <pt x="177" y="595" on="0"/>
        <pt x="166" y="532" on="0"/>
        <pt x="160" y="502" on="1"/>
        <pt x="60" y="0" on="1"/>
      </contour>
    </TTGlyph>
    <TTGlyph name="Macute" xMin="30" yMin="0" xMax="578" yMax="842">
      <component glyphName="M" x="0" y="0" flags="0x204"/>
      <component glyphName="acutecmb.cap" x="0" y="0" flags="0x4"/>
    </TTGlyph>
    <TTGlyph name="Mdotaccent" xMin="30" yMin="0" xMax="578" yMax="794">
      <component glyphName="M" x="0" y="0" flags="0x204"/>
      <component glyphName="dotaccentcmb.cap" x="0" y="0" flags="0x4"/>
    </TTGlyph>
    <TTGlyph name="Mdotbelow" xMin="30" yMin="-223" xMax="578" yMax="660">
      <component glyphName="M" x="0" y="0" flags="0x204"/>
      <component glyphName="dotaccentcmb" x="-159" y="-823" flags="0x4"/>
    </TTGlyph>
    <TTGlyph name="N" xMin="36" yMin="0" xMax="576" yMax="660">
      <contour>
        <pt x="36" y="0" on="1"/>
        <pt x="168" y="660" on="1"/>
        <pt x="200" y="660" on="1"/>
        <pt x="378" y="172" on="1"/>
        <pt x="424" y="42" on="1"/>
        <pt x="428" y="42" on="1"/>
        <pt x="436" y="89" on="0"/>
        <pt x="451" y="177" on="0"/>
        <pt x="460" y="222" on="1"/>
        <pt x="546" y="660" on="1"/>
        <pt x="576" y="660" on="1"/>
        <pt x="444" y="0" on="1"/>
        <pt x="412" y="0" on="1"/>
        <pt x="234" y="488" on="1"/>
        <pt x="188" y="618" on="1"/>
        <pt x="184" y="618" on="1"/>
        <pt x="176" y="571" on="0"/>
        <pt x="161" y="485" on="0"/>
        <pt x="152" y="438" on="1"/>
        <pt x="66" y="0" on="1"/>
      </contour>
    </TTGlyph>
    <TTGlyph name="Nacute" xMin="36" yMin="0" xMax="576" yMax="842">
      <component glyphName="N" x="0" y="0" flags="0x204"/>
      <component glyphName="acutecmb.cap" x="6" y="0" flags="0x4"/>
    </TTGlyph>
    <TTGlyph name="Ncaron" xMin="36" yMin="0" xMax="576" yMax="840">
      <component glyphName="N" x="0" y="0" flags="0x204"/>
      <component glyphName="caroncmb.cap" x="6" y="0" flags="0x4"/>
    </TTGlyph>
    <TTGlyph name="Ncommaaccent" xMin="36" yMin="-216" xMax="576" yMax="660">
      <component glyphName="N" x="0" y="0" flags="0x204"/>
      <component glyphName="commabelowcmb" x="16" y="0" flags="0x4"/>
    </TTGlyph>
    <TTGlyph name="Ndotaccent" xMin="36" yMin="0" xMax="576" yMax="794">
      <component glyphName="N" x="0" y="0" flags="0x204"/>
      <component glyphName="dotaccentcmb.cap" x="6" y="0" flags="0x4"/>
    </TTGlyph>
    <TTGlyph name="Ndotbelow" xMin="36" yMin="-223" xMax="576" yMax="660">
      <component glyphName="N" x="0" y="0" flags="0x204"/>
      <component glyphName="dotaccentcmb" x="-143" y="-823" flags="0x4"/>
    </TTGlyph>
    <TTGlyph name="Ngrave" xMin="36" yMin="0" xMax="576" yMax="848">
      <component glyphName="N" x="0" y="0" flags="0x204"/>
      <component glyphName="gravecmb.cap" x="6" y="0" flags="0x4"/>
    </TTGlyph>
    <TTGlyph name="Nlinebelow" xMin="36" yMin="-181" xMax="576" yMax="660">
      <component glyphName="N" x="0" y="0" flags="0x204"/>
      <component glyphName="macroncmb" x="-139" y="-789" flags="0x4"/>
    </TTGlyph>
    <TTGlyph name="Ntilde" xMin="36" yMin="0" xMax="576" yMax="832">
      <component glyphName="N" x="0" y="0" flags="0x204"/>
      <component glyphName="tildecmb.cap" x="6" y="0" flags="0x4"/>
    </TTGlyph>
    <TTGlyph name="O" xMin="50" yMin="-12" xMax="560" yMax="672">
      <contour>
        <pt x="256" y="-12" on="1"/>
        <pt x="206" y="-12" on="0"/>
        <pt x="130" y="26" on="0"/>
        <pt x="77" y="93" on="0"/>
        <pt x="50" y="186" on="0"/>
        <pt x="50" y="242" on="1"/>
        <pt x="50" y="291" on="0"/>
        <pt x="68" y="393" on="0"/>
        <pt x="103" y="488" on="0"/>
        <pt x="154" y="573" on="0"/>
        <pt x="222" y="636" on="0"/>
        <pt x="305" y="672" on="0"/>
        <pt x="354" y="672" on="1"/>
        <pt x="403" y="672" on="0"/>
        <pt x="480" y="634" on="0"/>
        <pt x="533" y="567" on="0"/>
        <pt x="560" y="473" on="0"/>
        <pt x="560" y="418" on="1"/>
        <pt x="560" y="344" on="0"/>
        <pt x="520" y="192" on="0"/>
        <pt x="443" y="67" on="0"/>
        <pt x="329" y="-12" on="0"/>
      </contour>
      <contour>
        <pt x="258" y="14" on="1"/>
        <pt x="302" y="14" on="0"/>
        <pt x="377" y="49" on="0"/>
        <pt x="437" y="109" on="0"/>
        <pt x="483" y="189" on="0"/>
        <pt x="514" y="277" on="0"/>
        <pt x="530" y="370" on="0"/>
        <pt x="530" y="414" on="1"/>
        <pt x="530" y="465" on="0"/>
        <pt x="508" y="550" on="0"/>
        <pt x="464" y="612" on="0"/>
        <pt x="397" y="646" on="0"/>
        <pt x="352" y="646" on="1"/>
        <pt x="286" y="646" on="0"/>
        <pt x="184" y="570" on="0"/>
        <pt x="115" y="453" on="0"/>
        <pt x="80" y="311" on="0"/>
        <pt x="80" y="246" on="1"/>
        <pt x="80" y="195" on="0"/>
        <pt x="102" y="110" on="0"/>
        <pt x="146" y="48" on="0"/>
        <pt x="213" y="14" on="0"/>
      </contour>
    </TTGlyph>
    <TTGlyph name="OE" xMin="38" yMin="0" xMax="649" yMax="660">
      <contour>
        <pt x="264" y="0" on="1"/>
        <pt x="199" y="0" on="0"/>
        <pt x="113" y="36" on="0"/>
        <pt x="60" y="101" on="0"/>
        <pt x="38" y="191" on="0"/>
        <pt x="38" y="246" on="1"/>
        <pt x="38" y="332" on="0"/>
        <pt x="86" y="483" on="0"/>
        <pt x="176" y="595" on="0"/>
        <pt x="307" y="660" on="0"/>
        <pt x="390" y="660" on="1"/>
        <pt x="649" y="660" on="1"/>
        <pt x="643" y="634" on="1"/>
        <pt x="420" y="634" on="1"/>
        <pt x="366" y="364" on="1"/>
        <pt x="537" y="364" on="1"/>
        <pt x="531" y="338" on="1"/>
        <pt x="362" y="338" on="1"/>
        <pt x="298" y="26" on="1"/>
        <pt x="531" y="26" on="1"/>
        <pt x="525" y="0" on="1"/>
      </contour>
      <contour>
        <pt x="266" y="26" on="1"/>
        <pt x="270" y="26" on="1"/>
        <pt x="392" y="634" on="1"/>
        <pt x="388" y="634" on="1"/>
        <pt x="311" y="634" on="0"/>
        <pt x="191" y="571" on="0"/>
        <pt x="110" y="465" on="0"/>
        <pt x="68" y="325" on="0"/>
        <pt x="68" y="248" on="1"/>
        <pt x="68" y="199" on="0"/>
        <pt x="87" y="118" on="0"/>
        <pt x="132" y="59" on="0"/>
        <pt x="208" y="26" on="0"/>
      </contour>
    </TTGlyph>
    <TTGlyph name="Oacute" xMin="50" yMin="-12" xMax="560" yMax="842">
      <component glyphName="O" x="0" y="0" flags="0x204"/>
      <component glyphName="acutecmb.cap" x="0" y="0" flags="0x4"/>
    </TTGlyph>
    <TTGlyph name="Obreve" xMin="50" yMin="-12" xMax="560" yMax="838">
      <component glyphName="O" x="0" y="0" flags="0x204"/>
      <component glyphName="brevecmb.cap" x="0" y="0" flags="0x4"/>
    </TTGlyph>
    <TTGlyph name="Ocaron" xMin="50" yMin="-12" xMax="560" yMax="840">
      <component glyphName="O" x="0" y="0" flags="0x204"/>
      <component glyphName="caroncmb.cap" x="0" y="0" flags="0x4"/>
    </TTGlyph>
    <TTGlyph name="Ocircumflex" xMin="50" yMin="-12" xMax="560" yMax="840">
      <component glyphName="O" x="0" y="0" flags="0x204"/>
      <component glyphName="circumflexcmb.cap" x="0" y="0" flags="0x4"/>
    </TTGlyph>
    <TTGlyph name="Ocircumflexacute" xMin="50" yMin="-12" xMax="602" yMax="878">
      <component glyphName="O" x="0" y="0" flags="0x204"/>
      <component glyphName="circumflexacutecmb.cap" x="0" y="0" flags="0x4"/>
    </TTGlyph>
    <TTGlyph name="Ocircumflexdotbelow" xMin="50" yMin="-223" xMax="560" yMax="840">
      <component glyphName="O" x="0" y="0" flags="0x204"/>
      <component glyphName="circumflexcmb.cap" x="0" y="0" flags="0x4"/>
      <component glyphName="dotaccentcmb" x="-159" y="-823" flags="0x4"/>
    </TTGlyph>
    <TTGlyph name="Ocircumflexgrave" xMin="50" yMin="-12" xMax="560" yMax="885">
      <component glyphName="O" x="0" y="0" flags="0x204"/>
      <component glyphName="circumflexgravecmb.cap" x="0" y="0" flags="0x4"/>
    </TTGlyph>
    <TTGlyph name="Ocircumflexhoi" xMin="50" yMin="-12" xMax="573" yMax="896">
      <component glyphName="O" x="0" y="0" flags="0x204"/>
      <component glyphName="circumflexhoicmb.cap" x="0" y="0" flags="0x4"/>
    </TTGlyph>
    <TTGlyph name="Ocircumflextilde" xMin="50" yMin="-12" xMax="560" yMax="920">
      <component glyphName="O" x="0" y="0" flags="0x204"/>
      <component glyphName="circumflextildecmb.cap" x="0" y="0" flags="0x4"/>
    </TTGlyph>
    <TTGlyph name="Odieresis" xMin="50" yMin="-12" xMax="560" yMax="790">
      <component glyphName="O" x="0" y="0" flags="0x204"/>
      <component glyphName="dieresiscmb.cap" x="0" y="0" flags="0x4"/>
    </TTGlyph>
    <TTGlyph name="Odotbelow" xMin="50" yMin="-223" xMax="560" yMax="672">
      <component glyphName="O" x="0" y="0" flags="0x204"/>
      <component glyphName="dotaccentcmb" x="-159" y="-823" flags="0x4"/>
    </TTGlyph>
    <TTGlyph name="Ograve" xMin="50" yMin="-12" xMax="560" yMax="848">
      <component glyphName="O" x="0" y="0" flags="0x204"/>
      <component glyphName="gravecmb.cap" x="0" y="0" flags="0x4"/>
    </TTGlyph>
    <TTGlyph name="Ohoi" xMin="50" yMin="-12" xMax="560" yMax="860">
      <component glyphName="O" x="0" y="0" flags="0x204"/>
      <component glyphName="hoicmb.cap" x="0" y="0" flags="0x4"/>
    </TTGlyph>
    <TTGlyph name="Ohorn" xMin="50" yMin="-12" xMax="606" yMax="802">
      <contour>
        <pt x="256" y="-12" on="1"/>
        <pt x="206" y="-12" on="0"/>
        <pt x="130" y="26" on="0"/>
        <pt x="77" y="93" on="0"/>
        <pt x="50" y="186" on="0"/>
        <pt x="50" y="242" on="1"/>
        <pt x="50" y="291" on="0"/>
        <pt x="68" y="393" on="0"/>
        <pt x="103" y="488" on="0"/>
        <pt x="154" y="573" on="0"/>
        <pt x="222" y="636" on="0"/>
        <pt x="305" y="672" on="0"/>
        <pt x="354" y="672" on="1"/>
        <pt x="413" y="672" on="0"/>
        <pt x="458" y="644" on="1"/>
        <pt x="512" y="647" on="0"/>
        <pt x="574" y="698" on="0"/>
        <pt x="574" y="742" on="1"/>
        <pt x="574" y="753" on="0"/>
        <pt x="571" y="775" on="0"/>
        <pt x="566" y="789" on="1"/>
        <pt x="596" y="802" on="1"/>
        <pt x="606" y="772" on="0"/>
        <pt x="606" y="748" on="1"/>
        <pt x="606" y="720" on="0"/>
        <pt x="586" y="677" on="0"/>
        <pt x="553" y="646" on="0"/>
        <pt x="511" y="626" on="0"/>
        <pt x="488" y="621" on="1"/>
        <pt x="523" y="587" on="0"/>
        <pt x="560" y="483" on="0"/>
        <pt x="560" y="418" on="1"/>
        <pt x="560" y="344" on="0"/>
        <pt x="520" y="192" on="0"/>
        <pt x="443" y="67" on="0"/>
        <pt x="329" y="-12" on="0"/>
      </contour>
      <contour>
        <pt x="258" y="14" on="1"/>
        <pt x="302" y="14" on="0"/>
        <pt x="377" y="49" on="0"/>
        <pt x="437" y="109" on="0"/>
        <pt x="483" y="189" on="0"/>
        <pt x="514" y="277" on="0"/>
        <pt x="530" y="370" on="0"/>
        <pt x="530" y="414" on="1"/>
        <pt x="530" y="465" on="0"/>
        <pt x="508" y="550" on="0"/>
        <pt x="464" y="612" on="0"/>
        <pt x="397" y="646" on="0"/>
        <pt x="352" y="646" on="1"/>
        <pt x="286" y="646" on="0"/>
        <pt x="184" y="570" on="0"/>
        <pt x="115" y="453" on="0"/>
        <pt x="80" y="311" on="0"/>
        <pt x="80" y="246" on="1"/>
        <pt x="80" y="195" on="0"/>
        <pt x="102" y="110" on="0"/>
        <pt x="146" y="48" on="0"/>
        <pt x="213" y="14" on="0"/>
      </contour>
    </TTGlyph>
    <TTGlyph name="Ohornacute" xMin="50" yMin="-12" xMax="606" yMax="842">
      <component glyphName="Ohorn" x="0" y="0" flags="0x204"/>
      <component glyphName="acutecmb.cap" x="0" y="0" flags="0x4"/>
    </TTGlyph>
    <TTGlyph name="Ohorndotbelow" xMin="50" yMin="-223" xMax="606" yMax="802">
      <component glyphName="Ohorn" x="0" y="0" flags="0x204"/>
      <component glyphName="dotaccentcmb" x="-159" y="-823" flags="0x4"/>
    </TTGlyph>
    <TTGlyph name="Ohorngrave" xMin="50" yMin="-12" xMax="606" yMax="848">
      <component glyphName="Ohorn" x="0" y="0" flags="0x204"/>
      <component glyphName="gravecmb.cap" x="0" y="0" flags="0x4"/>
    </TTGlyph>
    <TTGlyph name="Ohornhoi" xMin="50" yMin="-12" xMax="606" yMax="860">
      <component glyphName="Ohorn" x="0" y="0" flags="0x204"/>
      <component glyphName="hoicmb.cap" x="0" y="0" flags="0x4"/>
    </TTGlyph>
    <TTGlyph name="Ohorntilde" xMin="50" yMin="-12" xMax="606" yMax="832">
      <component glyphName="Ohorn" x="0" y="0" flags="0x204"/>
      <component glyphName="tildecmb.cap" x="-19" y="0" flags="0x4"/>
    </TTGlyph>
    <TTGlyph name="Ohungarumlaut" xMin="50" yMin="-12" xMax="580" yMax="862">
      <component glyphName="O" x="0" y="0" flags="0x204"/>
      <component glyphName="hungarumlautcmb.cap" x="0" y="0" flags="0x4"/>
    </TTGlyph>
    <TTGlyph name="Omacron" xMin="50" yMin="-12" xMax="560" yMax="762">
      <component glyphName="O" x="0" y="0" flags="0x204"/>
      <component glyphName="macroncmb.cap" x="0" y="0" flags="0x4"/>
    </TTGlyph>
    <TTGlyph name="Omacronacute" xMin="50" yMin="-12" xMax="560" yMax="932">
      <component glyphName="O" x="0" y="0" flags="0x204"/>
      <component glyphName="macronacutecmb.cap" x="0" y="0" flags="0x4"/>
    </TTGlyph>
    <TTGlyph name="Omega.math" xMin="-21" yMin="0" xMax="561" yMax="672">
      <contour>
        <pt x="-21" y="0" on="1"/>
        <pt x="-16" y="26" on="1"/>
        <pt x="121" y="26" on="1"/>
        <pt x="122" y="30" on="1"/>
        <pt x="93" y="67" on="0"/>
        <pt x="50" y="185" on="0"/>
        <pt x="50" y="264" on="1"/>
        <pt x="50" y="346" on="0"/>
        <pt x="97" y="494" on="0"/>
        <pt x="182" y="606" on="0"/>
        <pt x="300" y="672" on="0"/>
        <pt x="371" y="672" on="1"/>
        <pt x="417" y="672" on="0"/>
        <pt x="488" y="635" on="0"/>
        <pt x="536" y="569" on="0"/>
        <pt x="561" y="479" on="0"/>
        <pt x="561" y="426" on="1"/>
        <pt x="561" y="354" on="0"/>
        <pt x="527" y="235" on="0"/>
        <pt x="473" y="138" on="0"/>
        <pt x="403" y="60" on="0"/>
        <pt x="367" y="30" on="1"/>
        <pt x="366" y="26" on="1"/>
        <pt x="499" y="26" on="1"/>
        <pt x="494" y="0" on="1"/>
        <pt x="311" y="0" on="1"/>
        <pt x="315" y="22" on="1"/>
        <pt x="355" y="49" on="0"/>
        <pt x="432" y="125" on="0"/>
        <pt x="493" y="225" on="0"/>
        <pt x="530" y="350" on="0"/>
        <pt x="530" y="425" on="1"/>
        <pt x="530" y="472" on="0"/>
        <pt x="509" y="552" on="0"/>
        <pt x="467" y="611" on="0"/>
        <pt x="404" y="645" on="0"/>
        <pt x="362" y="645" on="1"/>
        <pt x="300" y="645" on="0"/>
        <pt x="196" y="582" on="0"/>
        <pt x="121" y="477" on="0"/>
        <pt x="80" y="337" on="0"/>
        <pt x="80" y="261" on="1"/>
        <pt x="80" y="174" on="0"/>
        <pt x="131" y="54" on="0"/>
        <pt x="166" y="22" on="1"/>
        <pt x="162" y="0" on="1"/>
      </contour>
    </TTGlyph>
    <TTGlyph name="Oogonek" xMin="50" yMin="-224" xMax="560" yMax="672">
      <contour>
        <pt x="210" y="-224" on="1"/>
        <pt x="194" y="-224" on="0"/>
        <pt x="163" y="-216" on="0"/>
        <pt x="139" y="-199" on="0"/>
        <pt x="124" y="-172" on="0"/>
        <pt x="124" y="-152" on="1"/>
        <pt x="124" y="-131" on="0"/>
        <pt x="141" y="-90" on="0"/>
        <pt x="169" y="-53" on="0"/>
        <pt x="207" y="-21" on="0"/>
        <pt x="228" y="-10" on="1"/>
        <pt x="192" y="-7" on="0"/>
        <pt x="127" y="28" on="0"/>
        <pt x="79" y="91" on="0"/>
        <pt x="50" y="183" on="0"/>
        <pt x="50" y="242" on="1"/>
        <pt x="50" y="291" on="0"/>
        <pt x="68" y="393" on="0"/>
        <pt x="103" y="488" on="0"/>
        <pt x="154" y="573" on="0"/>
        <pt x="222" y="636" on="0"/>
        <pt x="305" y="672" on="0"/>
        <pt x="354" y="672" on="1"/>
        <pt x="403" y="672" on="0"/>
        <pt x="480" y="634" on="0"/>
        <pt x="533" y="567" on="0"/>
        <pt x="560" y="473" on="0"/>
        <pt x="560" y="418" on="1"/>
        <pt x="560" y="344" on="0"/>
        <pt x="524" y="203" on="0"/>
        <pt x="457" y="86" on="0"/>
        <pt x="360" y="5" on="0"/>
        <pt x="299" y="-8" on="1"/>
        <pt x="261" y="-16" on="0"/>
        <pt x="206" y="-50" on="0"/>
        <pt x="170" y="-90" on="0"/>
        <pt x="152" y="-130" on="0"/>
        <pt x="152" y="-144" on="1"/>
        <pt x="152" y="-173" on="0"/>
        <pt x="189" y="-198" on="0"/>
        <pt x="216" y="-198" on="1"/>
        <pt x="233" y="-198" on="0"/>
        <pt x="260" y="-187" on="0"/>
        <pt x="272" y="-178" on="1"/>
        <pt x="284" y="-196" on="1"/>
        <pt x="270" y="-208" on="0"/>
        <pt x="234" y="-224" on="0"/>
      </contour>
      <contour>
        <pt x="258" y="14" on="1"/>
        <pt x="302" y="14" on="0"/>
        <pt x="377" y="49" on="0"/>
        <pt x="437" y="109" on="0"/>
        <pt x="483" y="189" on="0"/>
        <pt x="514" y="277" on="0"/>
        <pt x="530" y="370" on="0"/>
        <pt x="530" y="414" on="1"/>
        <pt x="530" y="465" on="0"/>
        <pt x="508" y="550" on="0"/>
        <pt x="464" y="612" on="0"/>
        <pt x="397" y="646" on="0"/>
        <pt x="352" y="646" on="1"/>
        <pt x="286" y="646" on="0"/>
        <pt x="184" y="570" on="0"/>
        <pt x="115" y="453" on="0"/>
        <pt x="80" y="311" on="0"/>
        <pt x="80" y="246" on="1"/>
        <pt x="80" y="195" on="0"/>
        <pt x="102" y="110" on="0"/>
        <pt x="146" y="48" on="0"/>
        <pt x="213" y="14" on="0"/>
      </contour>
    </TTGlyph>
    <TTGlyph name="Oslash" xMin="0" yMin="-20" xMax="610" yMax="680">
      <contour>
        <pt x="256" y="-12" on="1"/>
        <pt x="202" y="-12" on="0"/>
        <pt x="122" y="32" on="0"/>
        <pt x="96" y="70" on="1"/>
        <pt x="18" y="-20" on="1"/>
        <pt x="0" y="-4" on="1"/>
        <pt x="83" y="92" on="1"/>
        <pt x="50" y="153" on="0"/>
        <pt x="50" y="242" on="1"/>
        <pt x="50" y="291" on="0"/>
        <pt x="68" y="393" on="0"/>
        <pt x="103" y="488" on="0"/>
        <pt x="154" y="573" on="0"/>
        <pt x="222" y="636" on="0"/>
        <pt x="305" y="672" on="0"/>
        <pt x="354" y="672" on="1"/>
        <pt x="408" y="672" on="0"/>
        <pt x="488" y="628" on="0"/>
        <pt x="514" y="590" on="1"/>
        <pt x="592" y="680" on="1"/>
        <pt x="610" y="664" on="1"/>
        <pt x="527" y="568" on="1"/>
        <pt x="560" y="506" on="0"/>
        <pt x="560" y="418" on="1"/>
        <pt x="560" y="344" on="0"/>
        <pt x="520" y="192" on="0"/>
        <pt x="443" y="67" on="0"/>
        <pt x="329" y="-12" on="0"/>
      </contour>
      <contour>
        <pt x="80" y="246" on="1"/>
        <pt x="80" y="171" on="0"/>
        <pt x="103" y="116" on="1"/>
        <pt x="495" y="568" on="1"/>
        <pt x="473" y="605" on="0"/>
        <pt x="402" y="646" on="0"/>
        <pt x="352" y="646" on="1"/>
        <pt x="286" y="646" on="0"/>
        <pt x="184" y="570" on="0"/>
        <pt x="115" y="453" on="0"/>
        <pt x="80" y="311" on="0"/>
      </contour>
      <contour>
        <pt x="258" y="14" on="1"/>
        <pt x="302" y="14" on="0"/>
        <pt x="377" y="49" on="0"/>
        <pt x="437" y="109" on="0"/>
        <pt x="483" y="189" on="0"/>
        <pt x="514" y="277" on="0"/>
        <pt x="530" y="370" on="0"/>
        <pt x="530" y="414" on="1"/>
        <pt x="530" y="489" on="0"/>
        <pt x="507" y="544" on="1"/>
        <pt x="115" y="92" on="1"/>
        <pt x="137" y="55" on="0"/>
        <pt x="208" y="14" on="0"/>
      </contour>
    </TTGlyph>
    <TTGlyph name="Oslashacute" xMin="0" yMin="-20" xMax="610" yMax="842">
      <component glyphName="Oslash" x="0" y="0" flags="0x204"/>
      <component glyphName="acutecmb.cap" x="0" y="0" flags="0x4"/>
    </TTGlyph>
    <TTGlyph name="Otilde" xMin="50" yMin="-12" xMax="560" yMax="832">
      <component glyphName="O" x="0" y="0" flags="0x204"/>
      <component glyphName="tildecmb.cap" x="0" y="0" flags="0x4"/>
    </TTGlyph>
    <TTGlyph name="P" xMin="70" yMin="0" xMax="562" yMax="660">
      <contour>
        <pt x="70" y="0" on="1"/>
        <pt x="202" y="660" on="1"/>
        <pt x="370" y="660" on="1"/>
        <pt x="461" y="660" on="0"/>
        <pt x="562" y="588" on="0"/>
        <pt x="562" y="510" on="1"/>
        <pt x="562" y="456" on="0"/>
        <pt x="524" y="375" on="0"/>
        <pt x="452" y="321" on="0"/>
        <pt x="350" y="294" on="0"/>
        <pt x="286" y="294" on="1"/>
        <pt x="158" y="294" on="1"/>
        <pt x="100" y="0" on="1"/>
      </contour>
      <contour>
        <pt x="164" y="320" on="1"/>
        <pt x="280" y="320" on="1"/>
        <pt x="405" y="320" on="0"/>
        <pt x="532" y="414" on="0"/>
        <pt x="532" y="508" on="1"/>
        <pt x="532" y="576" on="0"/>
        <pt x="441" y="634" on="0"/>
        <pt x="352" y="634" on="1"/>
        <pt x="226" y="634" on="1"/>
      </contour>
    </TTGlyph>
    <TTGlyph name="Q" xMin="50" yMin="-150" xMax="560" yMax="672">
      <contour>
        <pt x="391" y="-150" on="1"/>
        <pt x="330" y="-150" on="0"/>
        <pt x="239" y="-83" on="0"/>
        <pt x="226" y="-10" on="1"/>
        <pt x="184" y="-4" on="0"/>
        <pt x="118" y="37" on="0"/>
        <pt x="73" y="103" on="0"/>
        <pt x="50" y="191" on="0"/>
        <pt x="50" y="242" on="1"/>
        <pt x="50" y="291" on="0"/>
        <pt x="68" y="393" on="0"/>
        <pt x="103" y="488" on="0"/>
        <pt x="154" y="573" on="0"/>
        <pt x="222" y="636" on="0"/>
        <pt x="305" y="672" on="0"/>
        <pt x="354" y="672" on="1"/>
        <pt x="403" y="672" on="0"/>
        <pt x="480" y="634" on="0"/>
        <pt x="533" y="567" on="0"/>
        <pt x="560" y="473" on="0"/>
        <pt x="560" y="418" on="1"/>
        <pt x="560" y="344" on="0"/>
        <pt x="520" y="192" on="0"/>
        <pt x="443" y="67" on="0"/>
        <pt x="329" y="-12" on="0"/>
        <pt x="256" y="-12" on="1"/>
        <pt x="267" y="-66" on="0"/>
        <pt x="339" y="-122" on="0"/>
        <pt x="393" y="-122" on="1"/>
        <pt x="443" y="-122" on="0"/>
        <pt x="474" y="-108" on="1"/>
        <pt x="482" y="-134" on="1"/>
        <pt x="462" y="-142" on="0"/>
        <pt x="416" y="-150" on="0"/>
      </contour>
      <contour>
        <pt x="258" y="14" on="1"/>
        <pt x="302" y="14" on="0"/>
        <pt x="377" y="49" on="0"/>
        <pt x="437" y="109" on="0"/>
        <pt x="483" y="189" on="0"/>
        <pt x="514" y="277" on="0"/>
        <pt x="530" y="370" on="0"/>
        <pt x="530" y="414" on="1"/>
        <pt x="530" y="465" on="0"/>
        <pt x="508" y="550" on="0"/>
        <pt x="464" y="612" on="0"/>
        <pt x="397" y="646" on="0"/>
        <pt x="352" y="646" on="1"/>
        <pt x="286" y="646" on="0"/>
        <pt x="184" y="570" on="0"/>
        <pt x="115" y="453" on="0"/>
        <pt x="80" y="311" on="0"/>
        <pt x="80" y="246" on="1"/>
        <pt x="80" y="195" on="0"/>
        <pt x="102" y="110" on="0"/>
        <pt x="146" y="48" on="0"/>
        <pt x="213" y="14" on="0"/>
      </contour>
    </TTGlyph>
    <TTGlyph name="R" xMin="50" yMin="0" xMax="532" yMax="660">
      <contour>
        <pt x="50" y="0" on="1"/>
        <pt x="182" y="660" on="1"/>
        <pt x="342" y="660" on="1"/>
        <pt x="431" y="660" on="0"/>
        <pt x="532" y="593" on="0"/>
        <pt x="532" y="518" on="1"/>
        <pt x="532" y="474" on="0"/>
        <pt x="500" y="401" on="0"/>
        <pt x="442" y="348" on="0"/>
        <pt x="362" y="315" on="0"/>
        <pt x="315" y="311" on="1"/>
        <pt x="444" y="0" on="1"/>
        <pt x="410" y="0" on="1"/>
        <pt x="283" y="310" on="1"/>
        <pt x="142" y="310" on="1"/>
        <pt x="80" y="0" on="1"/>
      </contour>
      <contour>
        <pt x="148" y="336" on="1"/>
        <pt x="270" y="336" on="1"/>
        <pt x="382" y="336" on="0"/>
        <pt x="502" y="431" on="0"/>
        <pt x="502" y="516" on="1"/>
        <pt x="502" y="581" on="0"/>
        <pt x="413" y="634" on="0"/>
        <pt x="324" y="634" on="1"/>
        <pt x="206" y="634" on="1"/>
      </contour>
    </TTGlyph>
    <TTGlyph name="Racute" xMin="50" yMin="0" xMax="532" yMax="842">
      <component glyphName="R" x="0" y="0" flags="0x204"/>
      <component glyphName="acutecmb.cap" x="-3" y="0" flags="0x4"/>
    </TTGlyph>
    <TTGlyph name="Rcaron" xMin="50" yMin="0" xMax="532" yMax="840">
      <component glyphName="R" x="0" y="0" flags="0x204"/>
      <component glyphName="caroncmb.cap" x="-3" y="0" flags="0x4"/>
    </TTGlyph>
    <TTGlyph name="Rcommaaccent" xMin="50" yMin="-216" xMax="532" yMax="660">
      <component glyphName="R" x="0" y="0" flags="0x204"/>
      <component glyphName="commabelowcmb" x="26" y="0" flags="0x4"/>
    </TTGlyph>
    <TTGlyph name="Rdotaccent" xMin="50" yMin="0" xMax="532" yMax="794">
      <component glyphName="R" x="0" y="0" flags="0x204"/>
      <component glyphName="dotaccentcmb.cap" x="-3" y="0" flags="0x4"/>
    </TTGlyph>
    <TTGlyph name="Rdotbelow" xMin="50" yMin="-223" xMax="532" yMax="660">
      <component glyphName="R" x="0" y="0" flags="0x204"/>
      <component glyphName="dotaccentcmb" x="-133" y="-823" flags="0x4"/>
    </TTGlyph>
    <TTGlyph name="Rdotbelowmacron" xMin="50" yMin="-223" xMax="532" yMax="762">
      <component glyphName="R" x="0" y="0" flags="0x204"/>
      <component glyphName="macroncmb.cap" x="-3" y="0" flags="0x4"/>
      <component glyphName="dotaccentcmb" x="-133" y="-823" flags="0x4"/>
    </TTGlyph>
    <TTGlyph name="Rlinebelow" xMin="50" yMin="-181" xMax="532" yMax="660">
      <component glyphName="R" x="0" y="0" flags="0x204"/>
      <component glyphName="macroncmb" x="-129" y="-789" flags="0x4"/>
    </TTGlyph>
    <TTGlyph name="S" xMin="48" yMin="-12" xMax="520" yMax="672">
      <contour>
        <pt x="256" y="-12" on="1"/>
        <pt x="185" y="-12" on="0"/>
        <pt x="81" y="45" on="0"/>
        <pt x="48" y="98" on="1"/>
        <pt x="72" y="114" on="1"/>
        <pt x="104" y="66" on="0"/>
        <pt x="195" y="14" on="0"/>
        <pt x="260" y="14" on="1"/>
        <pt x="297" y="14" on="0"/>
        <pt x="362" y="37" on="0"/>
        <pt x="410" y="79" on="0"/>
        <pt x="438" y="139" on="0"/>
        <pt x="438" y="176" on="1"/>
        <pt x="438" y="221" on="0"/>
        <pt x="391" y="283" on="0"/>
        <pt x="352" y="306" on="1"/>
        <pt x="264" y="358" on="1"/>
        <pt x="244" y="370" on="0"/>
        <pt x="206" y="400" on="0"/>
        <pt x="177" y="436" on="0"/>
        <pt x="160" y="480" on="0"/>
        <pt x="160" y="506" on="1"/>
        <pt x="160" y="539" on="0"/>
        <pt x="187" y="599" on="0"/>
        <pt x="235" y="645" on="0"/>
        <pt x="303" y="672" on="0"/>
        <pt x="344" y="672" on="1"/>
        <pt x="404" y="672" on="0"/>
        <pt x="494" y="620" on="0"/>
        <pt x="520" y="584" on="1"/>
        <pt x="498" y="566" on="1"/>
        <pt x="472" y="599" on="0"/>
        <pt x="392" y="646" on="0"/>
        <pt x="338" y="646" on="1"/>
        <pt x="304" y="646" on="0"/>
        <pt x="250" y="622" on="0"/>
        <pt x="211" y="583" on="0"/>
        <pt x="190" y="535" on="0"/>
        <pt x="190" y="510" on="1"/>
        <pt x="190" y="462" on="0"/>
        <pt x="243" y="404" on="0"/>
        <pt x="278" y="384" on="1"/>
        <pt x="364" y="334" on="1"/>
        <pt x="411" y="307" on="0"/>
        <pt x="468" y="234" on="0"/>
        <pt x="468" y="180" on="1"/>
        <pt x="468" y="136" on="0"/>
        <pt x="435" y="66" on="0"/>
        <pt x="378" y="15" on="0"/>
        <pt x="301" y="-12" on="0"/>
      </contour>
    </TTGlyph>
    <TTGlyph name="Sacute" xMin="48" yMin="-12" xMax="520" yMax="842">
      <component glyphName="S" x="0" y="0" flags="0x204"/>
      <component glyphName="acutecmb.cap" x="-13" y="0" flags="0x4"/>
    </TTGlyph>
    <TTGlyph name="Scaron" xMin="48" yMin="-12" xMax="521" yMax="840">
      <component glyphName="S" x="0" y="0" flags="0x204"/>
      <component glyphName="caroncmb.cap" x="-13" y="0" flags="0x4"/>
    </TTGlyph>
    <TTGlyph name="Scedilla" xMin="48" yMin="-216" xMax="520" yMax="672">
      <component glyphName="S" x="0" y="0" flags="0x204"/>
      <component glyphName="cedillacmb.cap" x="20" y="0" flags="0x4"/>
    </TTGlyph>
    <TTGlyph name="Schwa" xMin="64" yMin="-12" xMax="562" yMax="672">
      <contour>
        <pt x="236" y="-12" on="1"/>
        <pt x="196" y="-12" on="0"/>
        <pt x="133" y="14" on="0"/>
        <pt x="88" y="69" on="0"/>
        <pt x="64" y="155" on="0"/>
        <pt x="64" y="215" on="1"/>
        <pt x="64" y="240" on="0"/>
        <pt x="69" y="295" on="0"/>
        <pt x="74" y="327" on="1"/>
        <pt x="524" y="327" on="1"/>
        <pt x="528" y="351" on="0"/>
        <pt x="532" y="401" on="0"/>
        <pt x="532" y="427" on="1"/>
        <pt x="532" y="526" on="0"/>
        <pt x="455" y="647" on="0"/>
        <pt x="374" y="647" on="1"/>
        <pt x="324" y="647" on="0"/>
        <pt x="227" y="605" on="0"/>
        <pt x="192" y="573" on="1"/>
        <pt x="176" y="593" on="1"/>
        <pt x="211" y="625" on="0"/>
        <pt x="319" y="672" on="0"/>
        <pt x="377" y="672" on="1"/>
        <pt x="471" y="672" on="0"/>
        <pt x="562" y="545" on="0"/>
        <pt x="562" y="430" on="1"/>
        <pt x="562" y="335" on="0"/>
        <pt x="512" y="173" on="0"/>
        <pt x="425" y="55" on="0"/>
        <pt x="305" y="-12" on="0"/>
      </contour>
      <contour>
        <pt x="235" y="14" on="1"/>
        <pt x="286" y="14" on="0"/>
        <pt x="378" y="57" on="0"/>
        <pt x="451" y="133" on="0"/>
        <pt x="505" y="238" on="0"/>
        <pt x="519" y="301" on="1"/>
        <pt x="99" y="301" on="1"/>
        <pt x="91" y="238" on="0"/>
        <pt x="97" y="133" on="0"/>
        <pt x="129" y="57" on="0"/>
        <pt x="189" y="14" on="0"/>
      </contour>
    </TTGlyph>
    <TTGlyph name="Scircumflex" xMin="48" yMin="-12" xMax="520" yMax="840">
      <component glyphName="S" x="0" y="0" flags="0x204"/>
      <component glyphName="circumflexcmb.cap" x="-13" y="0" flags="0x4"/>
    </TTGlyph>
    <TTGlyph name="Scommaaccent" xMin="48" yMin="-216" xMax="520" yMax="672">
      <component glyphName="S" x="0" y="0" flags="0x204"/>
      <component glyphName="commabelowcmb" x="26" y="0" flags="0x4"/>
    </TTGlyph>
    <TTGlyph name="Sdotaccent" xMin="48" yMin="-12" xMax="520" yMax="794">
      <component glyphName="S" x="0" y="0" flags="0x204"/>
      <component glyphName="dotaccentcmb.cap" x="-13" y="0" flags="0x4"/>
    </TTGlyph>
    <TTGlyph name="Sdotbelow" xMin="48" yMin="-223" xMax="520" yMax="672">
      <component glyphName="S" x="0" y="0" flags="0x204"/>
      <component glyphName="dotaccentcmb" x="-133" y="-823" flags="0x4"/>
    </TTGlyph>
    <TTGlyph name="T" xMin="114" yMin="0" xMax="618" yMax="660">
      <contour>
        <pt x="222" y="0" on="1"/>
        <pt x="348" y="632" on="1"/>
        <pt x="114" y="632" on="1"/>
        <pt x="120" y="660" on="1"/>
        <pt x="618" y="660" on="1"/>
        <pt x="612" y="632" on="1"/>
        <pt x="378" y="632" on="1"/>
        <pt x="252" y="0" on="1"/>
      </contour>
    </TTGlyph>
    <TTGlyph name="Tbar" xMin="114" yMin="0" xMax="618" yMax="660">
      <contour>
        <pt x="158" y="362" on="1"/>
        <pt x="162" y="382" on="1"/>
        <pt x="240" y="386" on="1"/>
        <pt x="299" y="386" on="1"/>
        <pt x="348" y="632" on="1"/>
        <pt x="114" y="632" on="1"/>
        <pt x="120" y="660" on="1"/>
        <pt x="618" y="660" on="1"/>
        <pt x="612" y="632" on="1"/>
        <pt x="378" y="632" on="1"/>
        <pt x="329" y="386" on="1"/>
        <pt x="462" y="386" on="1"/>
        <pt x="457" y="362" on="1"/>
        <pt x="324" y="362" on="1"/>
        <pt x="252" y="0" on="1"/>
        <pt x="222" y="0" on="1"/>
        <pt x="294" y="362" on="1"/>
      </contour>
    </TTGlyph>
    <TTGlyph name="Tcaron" xMin="114" yMin="0" xMax="618" yMax="840">
      <component glyphName="T" x="0" y="0" flags="0x204"/>
      <component glyphName="caroncmb.cap" x="0" y="0" flags="0x4"/>
    </TTGlyph>
    <TTGlyph name="Tcedilla" xMin="114" yMin="-216" xMax="618" yMax="660">
      <component glyphName="T" x="0" y="0" flags="0x204"/>
      <component glyphName="cedillacmb.cap" x="-1" y="0" flags="0x4"/>
    </TTGlyph>
    <TTGlyph name="Tcommaaccent" xMin="114" yMin="-216" xMax="618" yMax="660">
      <component glyphName="T" x="0" y="0" flags="0x204"/>
      <component glyphName="commabelowcmb" x="0" y="0" flags="0x4"/>
    </TTGlyph>
    <TTGlyph name="Tdotbelow" xMin="114" yMin="-223" xMax="618" yMax="660">
      <component glyphName="T" x="0" y="0" flags="0x204"/>
      <component glyphName="dotaccentcmb" x="-159" y="-823" flags="0x4"/>
    </TTGlyph>
    <TTGlyph name="Thorn" xMin="65" yMin="0" xMax="543" yMax="660">
      <contour>
        <pt x="65" y="0" on="1"/>
        <pt x="197" y="660" on="1"/>
        <pt x="227" y="660" on="1"/>
        <pt x="203" y="536" on="1"/>
        <pt x="351" y="536" on="1"/>
        <pt x="442" y="536" on="0"/>
        <pt x="543" y="464" on="0"/>
        <pt x="543" y="386" on="1"/>
        <pt x="543" y="332" on="0"/>
        <pt x="505" y="251" on="0"/>
        <pt x="433" y="197" on="0"/>
        <pt x="331" y="170" on="0"/>
        <pt x="267" y="170" on="1"/>
        <pt x="129" y="170" on="1"/>
        <pt x="95" y="0" on="1"/>
      </contour>
      <contour>
        <pt x="135" y="196" on="1"/>
        <pt x="261" y="196" on="1"/>
        <pt x="386" y="196" on="0"/>
        <pt x="513" y="290" on="0"/>
        <pt x="513" y="384" on="1"/>
        <pt x="513" y="452" on="0"/>
        <pt x="422" y="510" on="0"/>
        <pt x="333" y="510" on="1"/>
        <pt x="197" y="510" on="1"/>
      </contour>
    </TTGlyph>
    <TTGlyph name="Tlinebelow" xMin="89" yMin="-181" xMax="618" yMax="660">
      <component glyphName="T" x="0" y="0" flags="0x204"/>
      <component glyphName="macroncmb" x="-155" y="-789" flags="0x4"/>
    </TTGlyph>
    <TTGlyph name="U" xMin="74" yMin="-12" xMax="578" yMax="660">
      <contour>
        <pt x="260" y="-12" on="1"/>
        <pt x="172" y="-12" on="0"/>
        <pt x="74" y="88" on="0"/>
        <pt x="74" y="180" on="1"/>
        <pt x="74" y="200" on="0"/>
        <pt x="77" y="238" on="0"/>
        <pt x="82" y="262" on="1"/>
        <pt x="162" y="660" on="1"/>
        <pt x="192" y="660" on="1"/>
        <pt x="114" y="270" on="1"/>
        <pt x="108" y="246" on="0"/>
        <pt x="104" y="206" on="0"/>
        <pt x="104" y="188" on="1"/>
        <pt x="104" y="105" on="0"/>
        <pt x="184" y="14" on="0"/>
        <pt x="264" y="14" on="1"/>
        <pt x="296" y="14" on="0"/>
        <pt x="358" y="38" on="0"/>
        <pt x="411" y="92" on="0"/>
        <pt x="452" y="177" on="0"/>
        <pt x="464" y="238" on="1"/>
        <pt x="548" y="660" on="1"/>
        <pt x="578" y="660" on="1"/>
        <pt x="492" y="230" on="1"/>
        <pt x="478" y="162" on="0"/>
        <pt x="431" y="70" on="0"/>
        <pt x="369" y="13" on="0"/>
        <pt x="297" y="-12" on="0"/>
      </contour>
    </TTGlyph>
    <TTGlyph name="Uacute" xMin="74" yMin="-12" xMax="578" yMax="842">
      <component glyphName="U" x="0" y="0" flags="0x204"/>
      <component glyphName="acutecmb.cap" x="0" y="0" flags="0x4"/>
    </TTGlyph>
    <TTGlyph name="Ubreve" xMin="74" yMin="-12" xMax="578" yMax="838">
      <component glyphName="U" x="0" y="0" flags="0x204"/>
      <component glyphName="brevecmb.cap" x="0" y="0" flags="0x4"/>
    </TTGlyph>
    <TTGlyph name="Ucaron" xMin="74" yMin="-12" xMax="578" yMax="840">
      <component glyphName="U" x="0" y="0" flags="0x204"/>
      <component glyphName="caroncmb.cap" x="0" y="0" flags="0x4"/>
    </TTGlyph>
    <TTGlyph name="Ucircumflex" xMin="74" yMin="-12" xMax="578" yMax="840">
      <component glyphName="U" x="0" y="0" flags="0x204"/>
      <component glyphName="circumflexcmb.cap" x="0" y="0" flags="0x4"/>
    </TTGlyph>
    <TTGlyph name="Udieresis" xMin="74" yMin="-12" xMax="578" yMax="790">
      <component glyphName="U" x="0" y="0" flags="0x204"/>
      <component glyphName="dieresiscmb.cap" x="0" y="0" flags="0x4"/>
    </TTGlyph>
    <TTGlyph name="Udieresisacute" xMin="74" yMin="-12" xMax="578" yMax="932">
      <component glyphName="U" x="0" y="0" flags="0x204"/>
      <component glyphName="dieresisacutecmb.cap" x="0" y="0" flags="0x4"/>
    </TTGlyph>
    <TTGlyph name="Udieresiscaron" xMin="74" yMin="-12" xMax="578" yMax="924">
      <component glyphName="U" x="0" y="0" flags="0x204"/>
      <component glyphName="dieresiscaroncmb.cap" x="0" y="0" flags="0x4"/>
    </TTGlyph>
    <TTGlyph name="Udieresisgrave" xMin="74" yMin="-12" xMax="578" yMax="938">
      <component glyphName="U" x="0" y="0" flags="0x204"/>
      <component glyphName="dieresisgravecmb.cap" x="0" y="0" flags="0x4"/>
    </TTGlyph>
    <TTGlyph name="Udieresismacron" xMin="74" yMin="-12" xMax="578" yMax="878">
      <component glyphName="U" x="0" y="0" flags="0x204"/>
      <component glyphName="dieresismacroncmb.cap" x="0" y="0" flags="0x4"/>
    </TTGlyph>
    <TTGlyph name="Udotbelow" xMin="74" yMin="-223" xMax="578" yMax="660">
      <component glyphName="U" x="0" y="0" flags="0x204"/>
      <component glyphName="dotaccentcmb" x="-159" y="-823" flags="0x4"/>
    </TTGlyph>
    <TTGlyph name="Ugrave" xMin="74" yMin="-12" xMax="578" yMax="848">
      <component glyphName="U" x="0" y="0" flags="0x204"/>
      <component glyphName="gravecmb.cap" x="0" y="0" flags="0x4"/>
    </TTGlyph>
    <TTGlyph name="Uhoi" xMin="74" yMin="-12" xMax="578" yMax="860">
      <component glyphName="U" x="0" y="0" flags="0x204"/>
      <component glyphName="hoicmb.cap" x="0" y="0" flags="0x4"/>
    </TTGlyph>
    <TTGlyph name="Uhorn" xMin="74" yMin="-12" xMax="696" yMax="818">
      <contour>
        <pt x="260" y="-12" on="1"/>
        <pt x="172" y="-12" on="0"/>
        <pt x="74" y="88" on="0"/>
        <pt x="74" y="180" on="1"/>
        <pt x="74" y="200" on="0"/>
        <pt x="77" y="238" on="0"/>
        <pt x="82" y="262" on="1"/>
        <pt x="162" y="660" on="1"/>
        <pt x="192" y="660" on="1"/>
        <pt x="114" y="270" on="1"/>
        <pt x="108" y="246" on="0"/>
        <pt x="104" y="206" on="0"/>
        <pt x="104" y="188" on="1"/>
        <pt x="104" y="105" on="0"/>
        <pt x="184" y="14" on="0"/>
        <pt x="264" y="14" on="1"/>
        <pt x="296" y="14" on="0"/>
        <pt x="358" y="38" on="0"/>
        <pt x="411" y="92" on="0"/>
        <pt x="452" y="177" on="0"/>
        <pt x="464" y="238" on="1"/>
        <pt x="548" y="660" on="1"/>
        <pt x="550" y="660" on="1"/>
        <pt x="604" y="662" on="0"/>
        <pt x="664" y="714" on="0"/>
        <pt x="664" y="758" on="1"/>
        <pt x="664" y="769" on="0"/>
        <pt x="661" y="791" on="0"/>
        <pt x="656" y="805" on="1"/>
        <pt x="686" y="818" on="1"/>
        <pt x="696" y="788" on="0"/>
        <pt x="696" y="764" on="1"/>
        <pt x="696" y="735" on="0"/>
        <pt x="675" y="690" on="0"/>
        <pt x="641" y="659" on="0"/>
        <pt x="597" y="640" on="0"/>
        <pt x="573" y="636" on="1"/>
        <pt x="492" y="230" on="1"/>
        <pt x="478" y="162" on="0"/>
        <pt x="431" y="70" on="0"/>
        <pt x="369" y="13" on="0"/>
        <pt x="297" y="-12" on="0"/>
      </contour>
    </TTGlyph>
    <TTGlyph name="Uhornacute" xMin="74" yMin="-12" xMax="696" yMax="842">
      <component glyphName="Uhorn" x="0" y="0" flags="0x204"/>
      <component glyphName="acutecmb.cap" x="0" y="0" flags="0x4"/>
    </TTGlyph>
    <TTGlyph name="Uhorndotbelow" xMin="74" yMin="-223" xMax="696" yMax="818">
      <component glyphName="Uhorn" x="0" y="0" flags="0x204"/>
      <component glyphName="dotaccentcmb" x="-159" y="-823" flags="0x4"/>
    </TTGlyph>
    <TTGlyph name="Uhorngrave" xMin="74" yMin="-12" xMax="696" yMax="848">
      <component glyphName="Uhorn" x="0" y="0" flags="0x204"/>
      <component glyphName="gravecmb.cap" x="0" y="0" flags="0x4"/>
    </TTGlyph>
    <TTGlyph name="Uhornhoi" xMin="74" yMin="-12" xMax="696" yMax="860">
      <component glyphName="Uhorn" x="0" y="0" flags="0x204"/>
      <component glyphName="hoicmb.cap" x="0" y="0" flags="0x4"/>
    </TTGlyph>
    <TTGlyph name="Uhorntilde" xMin="74" yMin="-12" xMax="696" yMax="832">
      <component glyphName="Uhorn" x="0" y="0" flags="0x204"/>
      <component glyphName="tildecmb.cap" x="0" y="0" flags="0x4"/>
    </TTGlyph>
    <TTGlyph name="Uhungarumlaut" xMin="74" yMin="-12" xMax="580" yMax="862">
      <component glyphName="U" x="0" y="0" flags="0x204"/>
      <component glyphName="hungarumlautcmb.cap" x="0" y="0" flags="0x4"/>
    </TTGlyph>
    <TTGlyph name="Umacron" xMin="74" yMin="-12" xMax="578" yMax="762">
      <component glyphName="U" x="0" y="0" flags="0x204"/>
      <component glyphName="macroncmb.cap" x="0" y="0" flags="0x4"/>
    </TTGlyph>
    <TTGlyph name="Uogonek" xMin="74" yMin="-224" xMax="578" yMax="660">
      <contour>
        <pt x="210" y="-224" on="1"/>
        <pt x="194" y="-224" on="0"/>
        <pt x="163" y="-216" on="0"/>
        <pt x="139" y="-199" on="0"/>
        <pt x="124" y="-172" on="0"/>
        <pt x="124" y="-152" on="1"/>
        <pt x="124" y="-131" on="0"/>
        <pt x="141" y="-90" on="0"/>
        <pt x="168" y="-54" on="0"/>
        <pt x="203" y="-22" on="0"/>
        <pt x="222" y="-10" on="1"/>
        <pt x="191" y="-5" on="0"/>
        <pt x="137" y="22" on="0"/>
        <pt x="97" y="68" on="0"/>
        <pt x="74" y="135" on="0"/>
        <pt x="74" y="180" on="1"/>
        <pt x="74" y="200" on="0"/>
        <pt x="77" y="238" on="0"/>
        <pt x="82" y="262" on="1"/>
        <pt x="162" y="660" on="1"/>
        <pt x="192" y="660" on="1"/>
        <pt x="114" y="270" on="1"/>
        <pt x="108" y="246" on="0"/>
        <pt x="104" y="206" on="0"/>
        <pt x="104" y="188" on="1"/>
        <pt x="104" y="105" on="0"/>
        <pt x="184" y="14" on="0"/>
        <pt x="264" y="14" on="1"/>
        <pt x="296" y="14" on="0"/>
        <pt x="358" y="38" on="0"/>
        <pt x="411" y="92" on="0"/>
        <pt x="452" y="177" on="0"/>
        <pt x="464" y="238" on="1"/>
        <pt x="548" y="660" on="1"/>
        <pt x="578" y="660" on="1"/>
        <pt x="492" y="230" on="1"/>
        <pt x="469" y="117" on="0"/>
        <pt x="373" y="8" on="0"/>
        <pt x="308" y="-6" on="1"/>
        <pt x="268" y="-14" on="0"/>
        <pt x="210" y="-47" on="0"/>
        <pt x="171" y="-86" on="0"/>
        <pt x="152" y="-127" on="0"/>
        <pt x="152" y="-144" on="1"/>
        <pt x="152" y="-173" on="0"/>
        <pt x="189" y="-198" on="0"/>
        <pt x="216" y="-198" on="1"/>
        <pt x="233" y="-198" on="0"/>
        <pt x="260" y="-187" on="0"/>
        <pt x="272" y="-178" on="1"/>
        <pt x="284" y="-196" on="1"/>
        <pt x="270" y="-208" on="0"/>
        <pt x="234" y="-224" on="0"/>
      </contour>
    </TTGlyph>
    <TTGlyph name="Uring" xMin="74" yMin="-12" xMax="578" yMax="866">
      <component glyphName="U" x="0" y="0" flags="0x204"/>
      <component glyphName="ringcmb.cap" x="0" y="0" flags="0x4"/>
    </TTGlyph>
    <TTGlyph name="Utilde" xMin="74" yMin="-12" xMax="578" yMax="832">
      <component glyphName="U" x="0" y="0" flags="0x204"/>
      <component glyphName="tildecmb.cap" x="0" y="0" flags="0x4"/>
    </TTGlyph>
    <TTGlyph name="V" xMin="150" yMin="0" xMax="617" yMax="660">
      <contour>
        <pt x="222" y="0" on="1"/>
        <pt x="150" y="660" on="1"/>
        <pt x="178" y="660" on="1"/>
        <pt x="220" y="261" on="1"/>
        <pt x="226" y="206" on="0"/>
        <pt x="238" y="94" on="0"/>
        <pt x="244" y="38" on="1"/>
        <pt x="248" y="38" on="1"/>
        <pt x="277" y="92" on="0"/>
        <pt x="339" y="207" on="0"/>
        <pt x="368" y="260" on="1"/>
        <pt x="586" y="660" on="1"/>
        <pt x="617" y="660" on="1"/>
        <pt x="256" y="0" on="1"/>
      </contour>
    </TTGlyph>
    <TTGlyph name="W" xMin="77" yMin="0" xMax="629" yMax="660">
      <contour>
        <pt x="77" y="0" on="1"/>
        <pt x="107" y="660" on="1"/>
        <pt x="136" y="660" on="1"/>
        <pt x="111" y="140" on="1"/>
        <pt x="109" y="113" on="0"/>
        <pt x="107" y="69" on="0"/>
        <pt x="106" y="53" on="1"/>
        <pt x="105" y="35" on="0"/>
        <pt x="104" y="20" on="1"/>
        <pt x="108" y="20" on="1"/>
        <pt x="160" y="142" on="1"/>
        <pt x="312" y="467" on="1"/>
        <pt x="347" y="467" on="1"/>
        <pt x="380" y="210" on="1"/>
        <pt x="383" y="190" on="0"/>
        <pt x="389" y="138" on="0"/>
        <pt x="395" y="86" on="0"/>
        <pt x="400" y="40" on="0"/>
        <pt x="401" y="26" on="1"/>
        <pt x="407" y="26" on="1"/>
        <pt x="440" y="147" on="1"/>
        <pt x="601" y="660" on="1"/>
        <pt x="629" y="660" on="1"/>
        <pt x="423" y="0" on="1"/>
        <pt x="378" y="0" on="1"/>
        <pt x="339" y="316" on="1"/>
        <pt x="337" y="330" on="0"/>
        <pt x="333" y="363" on="0"/>
        <pt x="330" y="394" on="0"/>
        <pt x="327" y="423" on="0"/>
        <pt x="326" y="433" on="1"/>
        <pt x="321" y="433" on="1"/>
        <pt x="313" y="412" on="0"/>
        <pt x="285" y="344" on="0"/>
        <pt x="271" y="315" on="1"/>
        <pt x="123" y="0" on="1"/>
      </contour>
    </TTGlyph>
    <TTGlyph name="Wacute" xMin="77" yMin="0" xMax="629" yMax="842">
      <component glyphName="W" x="0" y="0" flags="0x204"/>
      <component glyphName="acutecmb.cap" x="0" y="0" flags="0x4"/>
    </TTGlyph>
    <TTGlyph name="Wcircumflex" xMin="77" yMin="0" xMax="629" yMax="840">
      <component glyphName="W" x="0" y="0" flags="0x204"/>
      <component glyphName="circumflexcmb.cap" x="0" y="0" flags="0x4"/>
    </TTGlyph>
    <TTGlyph name="Wdieresis" xMin="77" yMin="0" xMax="629" yMax="790">
      <component glyphName="W" x="0" y="0" flags="0x204"/>
      <component glyphName="dieresiscmb.cap" x="0" y="0" flags="0x4"/>
    </TTGlyph>
    <TTGlyph name="Wgrave" xMin="77" yMin="0" xMax="629" yMax="848">
      <component glyphName="W" x="0" y="0" flags="0x204"/>
      <component glyphName="gravecmb.cap" x="0" y="0" flags="0x4"/>
    </TTGlyph>
    <TTGlyph name="X" xMin="18" yMin="0" xMax="580" yMax="660">
      <contour>
        <pt x="18" y="0" on="1"/>
        <pt x="286" y="344" on="1"/>
        <pt x="152" y="660" on="1"/>
        <pt x="184" y="660" on="1"/>
        <pt x="271" y="454" on="1"/>
        <pt x="281" y="431" on="0"/>
        <pt x="300" y="380" on="0"/>
        <pt x="306" y="363" on="1"/>
        <pt x="310" y="363" on="1"/>
        <pt x="318" y="374" on="0"/>
        <pt x="337" y="400" on="0"/>
        <pt x="356" y="425" on="0"/>
        <pt x="373" y="447" on="0"/>
        <pt x="378" y="453" on="1"/>
        <pt x="544" y="660" on="1"/>
        <pt x="580" y="660" on="1"/>
        <pt x="322" y="340" on="1"/>
        <pt x="464" y="0" on="1"/>
        <pt x="432" y="0" on="1"/>
        <pt x="342" y="214" on="1"/>
        <pt x="338" y="223" on="0"/>
        <pt x="328" y="249" on="0"/>
        <pt x="316" y="278" on="0"/>
        <pt x="305" y="306" on="0"/>
        <pt x="301" y="316" on="1"/>
        <pt x="297" y="316" on="1"/>
        <pt x="277" y="288" on="0"/>
        <pt x="238" y="237" on="0"/>
        <pt x="220" y="214" on="1"/>
        <pt x="53" y="0" on="1"/>
      </contour>
    </TTGlyph>
    <TTGlyph name="Y" xMin="126" yMin="0" xMax="610" yMax="660">
      <contour>
        <pt x="224" y="0" on="1"/>
        <pt x="274" y="246" on="1"/>
        <pt x="126" y="660" on="1"/>
        <pt x="156" y="660" on="1"/>
        <pt x="236" y="434" on="1"/>
        <pt x="251" y="392" on="0"/>
        <pt x="281" y="300" on="0"/>
        <pt x="290" y="268" on="1"/>
        <pt x="294" y="268" on="1"/>
        <pt x="303" y="282" on="0"/>
        <pt x="330" y="322" on="0"/>
        <pt x="361" y="367" on="0"/>
        <pt x="394" y="413" on="0"/>
        <pt x="410" y="434" on="1"/>
        <pt x="578" y="660" on="1"/>
        <pt x="610" y="660" on="1"/>
        <pt x="302" y="242" on="1"/>
        <pt x="254" y="0" on="1"/>
      </contour>
    </TTGlyph>
    <TTGlyph name="Yacute" xMin="126" yMin="0" xMax="610" yMax="842">
      <component glyphName="Y" x="0" y="0" flags="0x204"/>
      <component glyphName="acutecmb.cap" x="-13" y="0" flags="0x4"/>
    </TTGlyph>
    <TTGlyph name="Ycircumflex" xMin="126" yMin="0" xMax="610" yMax="840">
      <component glyphName="Y" x="0" y="0" flags="0x204"/>
      <component glyphName="circumflexcmb.cap" x="-13" y="0" flags="0x4"/>
    </TTGlyph>
    <TTGlyph name="Ydieresis" xMin="126" yMin="0" xMax="610" yMax="790">
      <component glyphName="Y" x="0" y="0" flags="0x204"/>
      <component glyphName="dieresiscmb.cap" x="-13" y="0" flags="0x4"/>
    </TTGlyph>
    <TTGlyph name="Ydotaccent" xMin="126" yMin="0" xMax="610" yMax="794">
      <component glyphName="Y" x="0" y="0" flags="0x204"/>
      <component glyphName="dotaccentcmb.cap" x="-13" y="0" flags="0x4"/>
    </TTGlyph>
    <TTGlyph name="Ydotbelow" xMin="126" yMin="-223" xMax="610" yMax="660">
      <component glyphName="Y" x="0" y="0" flags="0x204"/>
      <component glyphName="dotaccentcmb" x="-159" y="-823" flags="0x4"/>
    </TTGlyph>
    <TTGlyph name="Ygrave" xMin="126" yMin="0" xMax="610" yMax="848">
      <component glyphName="Y" x="0" y="0" flags="0x204"/>
      <component glyphName="gravecmb.cap" x="-13" y="0" flags="0x4"/>
    </TTGlyph>
    <TTGlyph name="Yhoi" xMin="126" yMin="0" xMax="610" yMax="860">
      <component glyphName="Y" x="0" y="0" flags="0x204"/>
      <component glyphName="hoicmb.cap" x="-13" y="0" flags="0x4"/>
    </TTGlyph>
    <TTGlyph name="Ytilde" xMin="126" yMin="0" xMax="610" yMax="832">
      <component glyphName="Y" x="0" y="0" flags="0x204"/>
      <component glyphName="tildecmb.cap" x="-13" y="0" flags="0x4"/>
    </TTGlyph>
    <TTGlyph name="Z" xMin="24" yMin="0" xMax="576" yMax="660">
      <contour>
        <pt x="480" y="0" on="1"/>
        <pt x="24" y="0" on="1"/>
        <pt x="28" y="17" on="1"/>
        <pt x="528" y="634" on="1"/>
        <pt x="138" y="634" on="1"/>
        <pt x="144" y="660" on="1"/>
        <pt x="576" y="660" on="1"/>
        <pt x="572" y="642" on="1"/>
        <pt x="71" y="26" on="1"/>
        <pt x="486" y="26" on="1"/>
      </contour>
    </TTGlyph>
    <TTGlyph name="Zacute" xMin="24" yMin="0" xMax="576" yMax="842">
      <component glyphName="Z" x="0" y="0" flags="0x204"/>
      <component glyphName="acutecmb.cap" x="-13" y="0" flags="0x4"/>
    </TTGlyph>
    <TTGlyph name="Zcaron" xMin="24" yMin="0" xMax="576" yMax="840">
      <component glyphName="Z" x="0" y="0" flags="0x204"/>
      <component glyphName="caroncmb.cap" x="-13" y="0" flags="0x4"/>
    </TTGlyph>
    <TTGlyph name="Zdotaccent" xMin="24" yMin="0" xMax="576" yMax="794">
      <component glyphName="Z" x="0" y="0" flags="0x204"/>
      <component glyphName="dotaccentcmb.cap" x="-13" y="0" flags="0x4"/>
    </TTGlyph>
    <TTGlyph name="Zdotbelow" xMin="24" yMin="-223" xMax="576" yMax="660">
      <component glyphName="Z" x="0" y="0" flags="0x204"/>
      <component glyphName="dotaccentcmb" x="-123" y="-823" flags="0x4"/>
    </TTGlyph>
    <TTGlyph name="Zlinebelow" xMin="24" yMin="-181" xMax="576" yMax="660">
      <component glyphName="Z" x="0" y="0" flags="0x204"/>
      <component glyphName="macroncmb" x="-119" y="-789" flags="0x4"/>
    </TTGlyph>
    <TTGlyph name="a" xMin="66" yMin="-12" xMax="538" yMax="490">
      <contour>
        <pt x="236" y="-12" on="1"/>
        <pt x="159" y="-12" on="0"/>
        <pt x="66" y="79" on="0"/>
        <pt x="66" y="170" on="1"/>
        <pt x="66" y="233" on="0"/>
        <pt x="106" y="349" on="0"/>
        <pt x="178" y="437" on="0"/>
        <pt x="276" y="490" on="0"/>
        <pt x="334" y="490" on="1"/>
        <pt x="388" y="490" on="0"/>
        <pt x="469" y="446" on="0"/>
        <pt x="492" y="410" on="1"/>
        <pt x="496" y="410" on="1"/>
        <pt x="514" y="478" on="1"/>
        <pt x="538" y="478" on="1"/>
        <pt x="442" y="0" on="1"/>
        <pt x="418" y="0" on="1"/>
        <pt x="430" y="78" on="1"/>
        <pt x="426" y="78" on="1"/>
        <pt x="385" y="39" on="0"/>
        <pt x="287" y="-12" on="0"/>
      </contour>
      <contour>
        <pt x="238" y="14" on="1"/>
        <pt x="286" y="14" on="0"/>
        <pt x="390" y="71" on="0"/>
        <pt x="438" y="122" on="1"/>
        <pt x="490" y="372" on="1"/>
        <pt x="457" y="422" on="0"/>
        <pt x="377" y="464" on="0"/>
        <pt x="332" y="464" on="1"/>
        <pt x="281" y="464" on="0"/>
        <pt x="194" y="414" on="0"/>
        <pt x="130" y="333" on="0"/>
        <pt x="94" y="230" on="0"/>
        <pt x="94" y="176" on="1"/>
        <pt x="94" y="93" on="0"/>
        <pt x="172" y="14" on="0"/>
      </contour>
    </TTGlyph>
    <TTGlyph name="a.a" xMin="68" yMin="-12" xMax="506" yMax="490">
      <contour>
        <pt x="204" y="-12" on="1"/>
        <pt x="176" y="-12" on="0"/>
        <pt x="126" y="1" on="0"/>
        <pt x="89" y="27" on="0"/>
        <pt x="68" y="67" on="0"/>
        <pt x="68" y="94" on="1"/>
        <pt x="68" y="142" on="0"/>
        <pt x="113" y="211" on="0"/>
        <pt x="210" y="259" on="0"/>
        <pt x="361" y="287" on="0"/>
        <pt x="468" y="294" on="1"/>
        <pt x="472" y="311" on="0"/>
        <pt x="478" y="344" on="0"/>
        <pt x="478" y="358" on="1"/>
        <pt x="478" y="408" on="0"/>
        <pt x="426" y="464" on="0"/>
        <pt x="364" y="464" on="1"/>
        <pt x="331" y="464" on="0"/>
        <pt x="268" y="451" on="0"/>
        <pt x="212" y="430" on="0"/>
        <pt x="165" y="405" on="0"/>
        <pt x="149" y="394" on="1"/>
        <pt x="134" y="418" on="1"/>
        <pt x="151" y="429" on="0"/>
        <pt x="201" y="455" on="0"/>
        <pt x="261" y="476" on="0"/>
        <pt x="330" y="490" on="0"/>
        <pt x="366" y="490" on="1"/>
        <pt x="441" y="490" on="0"/>
        <pt x="506" y="421" on="0"/>
        <pt x="506" y="364" on="1"/>
        <pt x="506" y="353" on="0"/>
        <pt x="504" y="332" on="0"/>
        <pt x="502" y="320" on="1"/>
        <pt x="440" y="0" on="1"/>
        <pt x="416" y="0" on="1"/>
        <pt x="432" y="92" on="1"/>
        <pt x="430" y="92" on="1"/>
        <pt x="408" y="71" on="0"/>
        <pt x="355" y="33" on="0"/>
        <pt x="297" y="5" on="0"/>
        <pt x="235" y="-12" on="0"/>
      </contour>
      <contour>
        <pt x="206" y="14" on="1"/>
        <pt x="263" y="14" on="0"/>
        <pt x="377" y="73" on="0"/>
        <pt x="436" y="126" on="1"/>
        <pt x="464" y="268" on="1"/>
        <pt x="361" y="261" on="0"/>
        <pt x="221" y="235" on="0"/>
        <pt x="135" y="194" on="0"/>
        <pt x="98" y="137" on="0"/>
        <pt x="98" y="100" on="1"/>
        <pt x="98" y="53" on="0"/>
        <pt x="161" y="14" on="0"/>
      </contour>
    </TTGlyph>
    <TTGlyph name="a.supa" xMin="201" yMin="402" xMax="488" yMax="735">
      <contour>
        <pt x="283" y="402" on="1"/>
        <pt x="247" y="402" on="0"/>
        <pt x="201" y="438" on="0"/>
        <pt x="201" y="474" on="1"/>
        <pt x="201" y="532" on="0"/>
        <pt x="323" y="595" on="0"/>
        <pt x="452" y="609" on="1"/>
        <pt x="456" y="629" on="0"/>
        <pt x="456" y="666" on="0"/>
        <pt x="443" y="693" on="0"/>
        <pt x="413" y="709" on="0"/>
        <pt x="388" y="709" on="1"/>
        <pt x="349" y="709" on="0"/>
        <pt x="289" y="683" on="0"/>
        <pt x="267" y="669" on="1"/>
        <pt x="254" y="692" on="1"/>
        <pt x="275" y="706" on="0"/>
        <pt x="351" y="735" on="0"/>
        <pt x="396" y="735" on="1"/>
        <pt x="427" y="735" on="0"/>
        <pt x="465" y="716" on="0"/>
        <pt x="485" y="683" on="0"/>
        <pt x="488" y="638" on="0"/>
        <pt x="483" y="612" on="1"/>
        <pt x="442" y="410" on="1"/>
        <pt x="420" y="410" on="1"/>
        <pt x="425" y="458" on="1"/>
        <pt x="423" y="458" on="1"/>
        <pt x="395" y="436" on="0"/>
        <pt x="324" y="402" on="0"/>
      </contour>
      <contour>
        <pt x="289" y="429" on="1"/>
        <pt x="328" y="429" on="0"/>
        <pt x="392" y="460" on="0"/>
        <pt x="428" y="486" on="1"/>
        <pt x="448" y="586" on="1"/>
        <pt x="339" y="573" on="0"/>
        <pt x="233" y="522" on="0"/>
        <pt x="233" y="475" on="1"/>
        <pt x="233" y="452" on="0"/>
        <pt x="266" y="429" on="0"/>
      </contour>
    </TTGlyph>
    <TTGlyph name="a.sups" xMin="183" yMin="402" xMax="501" yMax="734">
      <contour>
        <pt x="294" y="402" on="1"/>
        <pt x="242" y="402" on="0"/>
        <pt x="183" y="466" on="0"/>
        <pt x="183" y="526" on="1"/>
        <pt x="183" y="574" on="0"/>
        <pt x="215" y="651" on="0"/>
        <pt x="267" y="705" on="0"/>
        <pt x="335" y="734" on="0"/>
        <pt x="371" y="734" on="1"/>
        <pt x="401" y="734" on="0"/>
        <pt x="444" y="714" on="0"/>
        <pt x="465" y="696" on="1"/>
        <pt x="467" y="696" on="1"/>
        <pt x="475" y="726" on="1"/>
        <pt x="501" y="726" on="1"/>
        <pt x="438" y="410" on="1"/>
        <pt x="412" y="410" on="1"/>
        <pt x="417" y="451" on="1"/>
        <pt x="416" y="451" on="1"/>
        <pt x="390" y="431" on="0"/>
        <pt x="329" y="402" on="0"/>
      </contour>
      <contour>
        <pt x="304" y="429" on="1"/>
        <pt x="332" y="429" on="0"/>
        <pt x="391" y="456" on="0"/>
        <pt x="423" y="482" on="1"/>
        <pt x="459" y="669" on="1"/>
        <pt x="436" y="691" on="0"/>
        <pt x="392" y="708" on="0"/>
        <pt x="367" y="708" on="1"/>
        <pt x="338" y="708" on="0"/>
        <pt x="283" y="682" on="0"/>
        <pt x="241" y="635" on="0"/>
        <pt x="215" y="571" on="0"/>
        <pt x="215" y="533" on="1"/>
        <pt x="215" y="485" on="0"/>
        <pt x="259" y="429" on="0"/>
      </contour>
    </TTGlyph>
    <TTGlyph name="aacute" xMin="66" yMin="-12" xMax="538" yMax="740">
      <component glyphName="a" x="0" y="0" flags="0x204"/>
      <component glyphName="acutecmb" x="20" y="0" flags="0x4"/>
    </TTGlyph>
    <TTGlyph name="aacute.a" xMin="68" yMin="-12" xMax="506" yMax="740">
      <component glyphName="a.a" x="0" y="0" flags="0x204"/>
      <component glyphName="acutecmb" x="12" y="0" flags="0x4"/>
    </TTGlyph>
    <TTGlyph name="abreve" xMin="66" yMin="-12" xMax="548" yMax="720">
      <component glyphName="a" x="0" y="0" flags="0x204"/>
      <component glyphName="brevecmb" x="20" y="0" flags="0x4"/>
    </TTGlyph>
    <TTGlyph name="abreve.a" xMin="68" yMin="-12" xMax="540" yMax="720">
      <component glyphName="a.a" x="0" y="0" flags="0x204"/>
      <component glyphName="brevecmb" x="12" y="0" flags="0x4"/>
    </TTGlyph>
    <TTGlyph name="abreveacute" xMin="66" yMin="-12" xMax="548" yMax="811">
      <component glyphName="a" x="0" y="0" flags="0x204"/>
      <component glyphName="breveacutecmb" x="20" y="0" flags="0x4"/>
    </TTGlyph>
    <TTGlyph name="abreveacute.a" xMin="68" yMin="-12" xMax="540" yMax="811">
      <component glyphName="a.a" x="0" y="0" flags="0x204"/>
      <component glyphName="breveacutecmb" x="12" y="0" flags="0x4"/>
    </TTGlyph>
    <TTGlyph name="abrevedotbelow" xMin="66" yMin="-223" xMax="548" yMax="720">
      <component glyphName="a" x="0" y="0" flags="0x204"/>
      <component glyphName="brevecmb" x="20" y="0" flags="0x4"/>
      <component glyphName="dotaccentcmb" x="-145" y="-823" flags="0x4"/>
    </TTGlyph>
    <TTGlyph name="abrevedotbelow.a" xMin="68" yMin="-223" xMax="540" yMax="720">
      <component glyphName="a.a" x="0" y="0" flags="0x204"/>
      <component glyphName="brevecmb" x="12" y="0" flags="0x4"/>
      <component glyphName="dotaccentcmb" x="-123" y="-823" flags="0x4"/>
    </TTGlyph>
    <TTGlyph name="abrevegrave" xMin="66" yMin="-12" xMax="548" yMax="816">
      <component glyphName="a" x="0" y="0" flags="0x204"/>
      <component glyphName="brevegravecmb" x="20" y="0" flags="0x4"/>
    </TTGlyph>
    <TTGlyph name="abrevegrave.a" xMin="68" yMin="-12" xMax="540" yMax="816">
      <component glyphName="a.a" x="0" y="0" flags="0x204"/>
      <component glyphName="brevegravecmb" x="12" y="0" flags="0x4"/>
    </TTGlyph>
    <TTGlyph name="abrevehoi" xMin="66" yMin="-12" xMax="548" yMax="816">
      <component glyphName="a" x="0" y="0" flags="0x204"/>
      <component glyphName="brevehoicmb" x="20" y="0" flags="0x4"/>
    </TTGlyph>
    <TTGlyph name="abrevehoi.a" xMin="68" yMin="-12" xMax="540" yMax="816">
      <component glyphName="a.a" x="0" y="0" flags="0x204"/>
      <component glyphName="brevehoicmb" x="12" y="0" flags="0x4"/>
    </TTGlyph>
    <TTGlyph name="abrevetilde" xMin="66" yMin="-12" xMax="542" yMax="778">
      <component glyphName="a" x="0" y="0" flags="0x204"/>
      <component glyphName="brevetildecmb" x="20" y="0" flags="0x4"/>
    </TTGlyph>
    <TTGlyph name="abrevetilde.a" xMin="68" yMin="-12" xMax="534" yMax="778">
      <component glyphName="a.a" x="0" y="0" flags="0x204"/>
      <component glyphName="brevetildecmb" x="12" y="0" flags="0x4"/>
    </TTGlyph>
    <TTGlyph name="acaron" xMin="66" yMin="-12" xMax="538" yMax="734">
      <component glyphName="a" x="0" y="0" flags="0x204"/>
      <component glyphName="caroncmb" x="20" y="0" flags="0x4"/>
    </TTGlyph>
    <TTGlyph name="acaron.a" xMin="68" yMin="-12" xMax="522" yMax="734">
      <component glyphName="a.a" x="0" y="0" flags="0x204"/>
      <component glyphName="caroncmb" x="12" y="0" flags="0x4"/>
    </TTGlyph>
    <TTGlyph name="acircumflex" xMin="66" yMin="-12" xMax="538" yMax="736">
      <component glyphName="a" x="0" y="0" flags="0x204"/>
      <component glyphName="circumflexcmb" x="20" y="0" flags="0x4"/>
    </TTGlyph>
    <TTGlyph name="acircumflex.a" xMin="68" yMin="-12" xMax="506" yMax="736">
      <component glyphName="a.a" x="0" y="0" flags="0x204"/>
      <component glyphName="circumflexcmb" x="12" y="0" flags="0x4"/>
    </TTGlyph>
    <TTGlyph name="acircumflexacute" xMin="66" yMin="-12" xMax="606" yMax="762">
      <component glyphName="a" x="0" y="0" flags="0x204"/>
      <component glyphName="circumflexacutecmb" x="20" y="0" flags="0x4"/>
    </TTGlyph>
    <TTGlyph name="acircumflexacute.a" xMin="68" yMin="-12" xMax="598" yMax="762">
      <component glyphName="a.a" x="0" y="0" flags="0x204"/>
      <component glyphName="circumflexacutecmb" x="12" y="0" flags="0x4"/>
    </TTGlyph>
    <TTGlyph name="acircumflexdotbelow" xMin="66" yMin="-223" xMax="538" yMax="736">
      <component glyphName="a" x="0" y="0" flags="0x204"/>
      <component glyphName="circumflexcmb" x="20" y="0" flags="0x4"/>
      <component glyphName="dotaccentcmb" x="-145" y="-823" flags="0x4"/>
    </TTGlyph>
    <TTGlyph name="acircumflexdotbelow.a" xMin="68" yMin="-223" xMax="506" yMax="736">
      <component glyphName="a.a" x="0" y="0" flags="0x204"/>
      <component glyphName="circumflexcmb" x="12" y="0" flags="0x4"/>
      <component glyphName="dotaccentcmb" x="-123" y="-823" flags="0x4"/>
    </TTGlyph>
    <TTGlyph name="acircumflexgrave" xMin="66" yMin="-12" xMax="538" yMax="768">
      <component glyphName="a" x="0" y="0" flags="0x204"/>
      <component glyphName="circumflexgravecmb" x="20" y="0" flags="0x4"/>
    </TTGlyph>
    <TTGlyph name="acircumflexgrave.a" xMin="68" yMin="-12" xMax="506" yMax="768">
      <component glyphName="a.a" x="0" y="0" flags="0x204"/>
      <component glyphName="circumflexgravecmb" x="12" y="0" flags="0x4"/>
    </TTGlyph>
    <TTGlyph name="acircumflexhoi" xMin="66" yMin="-12" xMax="571" yMax="770">
      <component glyphName="a" x="0" y="0" flags="0x204"/>
      <component glyphName="circumflexhoicmb" x="20" y="0" flags="0x4"/>
    </TTGlyph>
    <TTGlyph name="acircumflexhoi.a" xMin="68" yMin="-12" xMax="563" yMax="770">
      <component glyphName="a.a" x="0" y="0" flags="0x204"/>
      <component glyphName="circumflexhoicmb" x="12" y="0" flags="0x4"/>
    </TTGlyph>
    <TTGlyph name="acircumflextilde" xMin="66" yMin="-12" xMax="538" yMax="778">
      <component glyphName="a" x="0" y="0" flags="0x204"/>
      <component glyphName="circumflextildecmb" x="20" y="0" flags="0x4"/>
    </TTGlyph>
    <TTGlyph name="acircumflextilde.a" xMin="68" yMin="-12" xMax="530" yMax="778">
      <component glyphName="a.a" x="0" y="0" flags="0x204"/>
      <component glyphName="circumflextildecmb" x="12" y="0" flags="0x4"/>
    </TTGlyph>
    <TTGlyph name="acute" xMin="308" yMin="580" xMax="482" yMax="740">
      <component glyphName="acutecmb" x="0" y="0" flags="0x204"/>
    </TTGlyph>
    <TTGlyph name="acutecmb" xMin="308" yMin="580" xMax="482" yMax="740">
      <contour>
        <pt x="324" y="580" on="1"/>
        <pt x="308" y="598" on="1"/>
        <pt x="462" y="740" on="1"/>
        <pt x="482" y="716" on="1"/>
      </contour>
    </TTGlyph>
    <TTGlyph name="acutecmb.cap" xMin="360" yMin="716" xMax="518" yMax="842">
      <contour>
        <pt x="372" y="716" on="1"/>
        <pt x="360" y="732" on="1"/>
        <pt x="500" y="842" on="1"/>
        <pt x="518" y="816" on="1"/>
      </contour>
    </TTGlyph>
    <TTGlyph name="acutemod" xMin="308" yMin="580" xMax="482" yMax="740">
      <component glyphName="acutecmb" x="0" y="0" flags="0x204"/>
    </TTGlyph>
    <TTGlyph name="adieresis" xMin="66" yMin="-12" xMax="538" yMax="680">
      <component glyphName="a" x="0" y="0" flags="0x204"/>
      <component glyphName="dieresiscmb" x="20" y="0" flags="0x4"/>
    </TTGlyph>
    <TTGlyph name="adieresis.a" xMin="68" yMin="-12" xMax="506" yMax="680">
      <component glyphName="a.a" x="0" y="0" flags="0x204"/>
      <component glyphName="dieresiscmb" x="12" y="0" flags="0x4"/>
    </TTGlyph>
    <TTGlyph name="adotbelow" xMin="66" yMin="-223" xMax="538" yMax="490">
      <component glyphName="a" x="0" y="0" flags="0x204"/>
      <component glyphName="dotaccentcmb" x="-145" y="-823" flags="0x4"/>
    </TTGlyph>
    <TTGlyph name="adotbelow.a" xMin="68" yMin="-223" xMax="506" yMax="490">
      <component glyphName="a.a" x="0" y="0" flags="0x204"/>
      <component glyphName="dotaccentcmb" x="-123" y="-823" flags="0x4"/>
    </TTGlyph>
    <TTGlyph name="ae" xMin="-25" yMin="-12" xMax="602" yMax="490">
      <contour>
        <pt x="77" y="-12" on="1"/>
        <pt x="32" y="-12" on="0"/>
        <pt x="-25" y="39" on="0"/>
        <pt x="-25" y="91" on="1"/>
        <pt x="-25" y="136" on="0"/>
        <pt x="17" y="203" on="0"/>
        <pt x="96" y="253" on="0"/>
        <pt x="210" y="287" on="0"/>
        <pt x="282" y="298" on="1"/>
        <pt x="292" y="335" on="0"/>
        <pt x="292" y="396" on="0"/>
        <pt x="271" y="440" on="0"/>
        <pt x="231" y="464" on="0"/>
        <pt x="200" y="464" on="1"/>
        <pt x="162" y="464" on="0"/>
        <pt x="91" y="431" on="0"/>
        <pt x="68" y="414" on="1"/>
        <pt x="54" y="436" on="1"/>
        <pt x="66" y="444" on="0"/>
        <pt x="98" y="463" on="0"/>
        <pt x="137" y="479" on="0"/>
        <pt x="181" y="490" on="0"/>
        <pt x="204" y="490" on="1"/>
        <pt x="258" y="490" on="0"/>
        <pt x="319" y="425" on="0"/>
        <pt x="319" y="373" on="1"/>
        <pt x="351" y="432" on="0"/>
        <pt x="443" y="490" on="0"/>
        <pt x="492" y="490" on="1"/>
        <pt x="521" y="490" on="0"/>
        <pt x="562" y="467" on="0"/>
        <pt x="589" y="428" on="0"/>
        <pt x="602" y="375" on="0"/>
        <pt x="602" y="345" on="1"/>
        <pt x="602" y="307" on="0"/>
        <pt x="590" y="257" on="0"/>
        <pt x="585" y="242" on="1"/>
        <pt x="298" y="242" on="1"/>
        <pt x="294" y="222" on="0"/>
        <pt x="290" y="181" on="0"/>
        <pt x="290" y="161" on="1"/>
        <pt x="290" y="129" on="0"/>
        <pt x="303" y="75" on="0"/>
        <pt x="331" y="36" on="0"/>
        <pt x="374" y="14" on="0"/>
        <pt x="403" y="14" on="1"/>
        <pt x="438" y="14" on="0"/>
        <pt x="496" y="37" on="0"/>
        <pt x="524" y="56" on="1"/>
        <pt x="537" y="34" on="1"/>
        <pt x="514" y="17" on="0"/>
        <pt x="440" y="-12" on="0"/>
        <pt x="397" y="-12" on="1"/>
        <pt x="368" y="-12" on="0"/>
        <pt x="326" y="5" on="0"/>
        <pt x="295" y="34" on="0"/>
        <pt x="275" y="70" on="0"/>
        <pt x="270" y="90" on="1"/>
        <pt x="220" y="35" on="0"/>
        <pt x="118" y="-12" on="0"/>
      </contour>
      <contour>
        <pt x="80" y="14" on="1"/>
        <pt x="99" y="14" on="0"/>
        <pt x="147" y="28" on="0"/>
        <pt x="196" y="55" on="0"/>
        <pt x="244" y="93" on="0"/>
        <pt x="264" y="118" on="1"/>
        <pt x="263" y="125" on="0"/>
        <pt x="262" y="139" on="0"/>
        <pt x="262" y="145" on="1"/>
        <pt x="262" y="168" on="0"/>
        <pt x="264" y="222" on="0"/>
        <pt x="275" y="272" on="1"/>
        <pt x="212" y="260" on="0"/>
        <pt x="111" y="231" on="0"/>
        <pt x="42" y="190" on="0"/>
        <pt x="5" y="133" on="0"/>
        <pt x="5" y="94" on="1"/>
        <pt x="5" y="54" on="0"/>
        <pt x="47" y="14" on="0"/>
      </contour>
      <contour>
        <pt x="488" y="464" on="1"/>
        <pt x="456" y="464" on="0"/>
        <pt x="399" y="434" on="0"/>
        <pt x="351" y="381" on="0"/>
        <pt x="315" y="309" on="0"/>
        <pt x="304" y="268" on="1"/>
        <pt x="565" y="268" on="1"/>
        <pt x="569" y="288" on="0"/>
        <pt x="573" y="326" on="0"/>
        <pt x="573" y="344" on="1"/>
        <pt x="573" y="401" on="0"/>
        <pt x="533" y="464" on="0"/>
      </contour>
    </TTGlyph>
    <TTGlyph name="aeacute" xMin="-25" yMin="-12" xMax="602" yMax="740">
      <component glyphName="ae" x="0" y="0" flags="0x204"/>
      <component glyphName="acutecmb" x="2" y="0" flags="0x4"/>
    </TTGlyph>
    <TTGlyph name="aemacron" xMin="-25" yMin="-12" xMax="602" yMax="634">
      <component glyphName="ae" x="0" y="0" flags="0x204"/>
      <component glyphName="macroncmb" x="2" y="0" flags="0x4"/>
    </TTGlyph>
    <TTGlyph name="agrave" xMin="66" yMin="-12" xMax="538" yMax="748">
      <component glyphName="a" x="0" y="0" flags="0x204"/>
      <component glyphName="gravecmb" x="20" y="0" flags="0x4"/>
    </TTGlyph>
    <TTGlyph name="agrave.a" xMin="68" yMin="-12" xMax="506" yMax="748">
      <component glyphName="a.a" x="0" y="0" flags="0x204"/>
      <component glyphName="gravecmb" x="12" y="0" flags="0x4"/>
    </TTGlyph>
    <TTGlyph name="ahoi" xMin="66" yMin="-12" xMax="538" yMax="734">
      <component glyphName="a" x="0" y="0" flags="0x204"/>
      <component glyphName="hoicmb" x="20" y="0" flags="0x4"/>
    </TTGlyph>
    <TTGlyph name="ahoi.a" xMin="68" yMin="-12" xMax="506" yMax="734">
      <component glyphName="a.a" x="0" y="0" flags="0x204"/>
      <component glyphName="hoicmb" x="12" y="0" flags="0x4"/>
    </TTGlyph>
    <TTGlyph name="alphalatin" xMin="66" yMin="-12" xMax="538" yMax="490">
      <component glyphName="a" x="0" y="0" flags="0x204"/>
    </TTGlyph>
    <TTGlyph name="alphalatinturned" xMin="52" yMin="-12" xMax="524" yMax="490">
      <contour>
        <pt x="256" y="-12" on="1"/>
        <pt x="205" y="-12" on="0"/>
        <pt x="122" y="33" on="0"/>
        <pt x="96" y="68" on="1"/>
        <pt x="92" y="68" on="1"/>
        <pt x="76" y="0" on="1"/>
        <pt x="52" y="0" on="1"/>
        <pt x="148" y="478" on="1"/>
        <pt x="172" y="478" on="1"/>
        <pt x="158" y="398" on="1"/>
        <pt x="162" y="398" on="1"/>
        <pt x="181" y="415" on="0"/>
        <pt x="226" y="448" on="0"/>
        <pt x="275" y="474" on="0"/>
        <pt x="327" y="490" on="0"/>
        <pt x="354" y="490" on="1"/>
        <pt x="431" y="490" on="0"/>
        <pt x="524" y="392" on="0"/>
        <pt x="524" y="298" on="1"/>
        <pt x="524" y="233" on="0"/>
        <pt x="485" y="120" on="0"/>
        <pt x="414" y="36" on="0"/>
        <pt x="316" y="-12" on="0"/>
      </contour>
      <contour>
        <pt x="258" y="14" on="1"/>
        <pt x="310" y="14" on="0"/>
        <pt x="398" y="60" on="0"/>
        <pt x="461" y="137" on="0"/>
        <pt x="496" y="237" on="0"/>
        <pt x="496" y="292" on="1"/>
        <pt x="496" y="378" on="0"/>
        <pt x="418" y="464" on="0"/>
        <pt x="352" y="464" on="1"/>
        <pt x="329" y="464" on="0"/>
        <pt x="279" y="448" on="0"/>
        <pt x="227" y="421" on="0"/>
        <pt x="175" y="382" on="0"/>
        <pt x="152" y="360" on="1"/>
        <pt x="100" y="102" on="1"/>
        <pt x="135" y="52" on="0"/>
        <pt x="214" y="14" on="0"/>
      </contour>
    </TTGlyph>
    <TTGlyph name="amacron" xMin="66" yMin="-12" xMax="538" yMax="634">
      <component glyphName="a" x="0" y="0" flags="0x204"/>
      <component glyphName="macroncmb" x="20" y="0" flags="0x4"/>
    </TTGlyph>
    <TTGlyph name="amacron.a" xMin="68" yMin="-12" xMax="506" yMax="634">
      <component glyphName="a.a" x="0" y="0" flags="0x204"/>
      <component glyphName="macroncmb" x="12" y="0" flags="0x4"/>
    </TTGlyph>
    <TTGlyph name="ampersand" xMin="30" yMin="-12" xMax="563" yMax="672">
      <contour>
        <pt x="179" y="-12" on="1"/>
        <pt x="147" y="-12" on="0"/>
        <pt x="93" y="7" on="0"/>
        <pt x="53" y="43" on="0"/>
        <pt x="30" y="96" on="0"/>
        <pt x="30" y="130" on="1"/>
        <pt x="30" y="171" on="0"/>
        <pt x="61" y="238" on="0"/>
        <pt x="111" y="294" on="0"/>
        <pt x="176" y="342" on="0"/>
        <pt x="211" y="365" on="1"/>
        <pt x="203" y="395" on="0"/>
        <pt x="193" y="454" on="0"/>
        <pt x="193" y="482" on="1"/>
        <pt x="193" y="525" on="0"/>
        <pt x="219" y="595" on="0"/>
        <pt x="262" y="645" on="0"/>
        <pt x="318" y="672" on="0"/>
        <pt x="347" y="672" on="1"/>
        <pt x="392" y="672" on="0"/>
        <pt x="435" y="619" on="0"/>
        <pt x="435" y="584" on="1"/>
        <pt x="435" y="545" on="0"/>
        <pt x="402" y="481" on="0"/>
        <pt x="347" y="427" on="0"/>
        <pt x="278" y="379" on="0"/>
        <pt x="242" y="355" on="1"/>
        <pt x="262" y="289" on="0"/>
        <pt x="334" y="163" on="0"/>
        <pt x="379" y="111" on="1"/>
        <pt x="427" y="159" on="0"/>
        <pt x="503" y="274" on="0"/>
        <pt x="533" y="341" on="1"/>
        <pt x="563" y="341" on="1"/>
        <pt x="530" y="269" on="0"/>
        <pt x="445" y="143" on="0"/>
        <pt x="396" y="92" on="1"/>
        <pt x="424" y="63" on="0"/>
        <pt x="484" y="23" on="0"/>
        <pt x="507" y="12" on="1"/>
        <pt x="493" y="-12" on="1"/>
        <pt x="469" y="-1" on="0"/>
        <pt x="406" y="41" on="0"/>
        <pt x="376" y="73" on="1"/>
        <pt x="334" y="34" on="0"/>
        <pt x="232" y="-12" on="0"/>
      </contour>
      <contour>
        <pt x="221" y="486" on="1"/>
        <pt x="221" y="436" on="0"/>
        <pt x="235" y="380" on="1"/>
        <pt x="268" y="401" on="0"/>
        <pt x="330" y="444" on="0"/>
        <pt x="378" y="491" on="0"/>
        <pt x="407" y="545" on="0"/>
        <pt x="407" y="577" on="1"/>
        <pt x="407" y="603" on="0"/>
        <pt x="379" y="646" on="0"/>
        <pt x="347" y="646" on="1"/>
        <pt x="320" y="646" on="0"/>
        <pt x="274" y="622" on="0"/>
        <pt x="240" y="579" on="0"/>
        <pt x="221" y="520" on="0"/>
      </contour>
      <contour>
        <pt x="184" y="15" on="1"/>
        <pt x="228" y="15" on="0"/>
        <pt x="321" y="58" on="0"/>
        <pt x="359" y="92" on="1"/>
        <pt x="317" y="142" on="0"/>
        <pt x="242" y="271" on="0"/>
        <pt x="219" y="340" on="1"/>
        <pt x="187" y="319" on="0"/>
        <pt x="130" y="275" on="0"/>
        <pt x="85" y="226" on="0"/>
        <pt x="59" y="170" on="0"/>
        <pt x="59" y="136" on="1"/>
        <pt x="59" y="77" on="0"/>
        <pt x="130" y="15" on="0"/>
      </contour>
    </TTGlyph>
    <TTGlyph name="aogonek" xMin="66" yMin="-224" xMax="538" yMax="490">
      <contour>
        <pt x="374" y="-224" on="1"/>
        <pt x="358" y="-224" on="0"/>
        <pt x="327" y="-216" on="0"/>
        <pt x="303" y="-199" on="0"/>
        <pt x="288" y="-172" on="0"/>
        <pt x="288" y="-152" on="1"/>
        <pt x="288" y="-127" on="0"/>
        <pt x="308" y="-83" on="0"/>
        <pt x="344" y="-46" on="0"/>
        <pt x="391" y="-14" on="0"/>
        <pt x="418" y="0" on="1"/>
        <pt x="430" y="78" on="1"/>
        <pt x="426" y="78" on="1"/>
        <pt x="385" y="39" on="0"/>
        <pt x="287" y="-12" on="0"/>
        <pt x="236" y="-12" on="1"/>
        <pt x="159" y="-12" on="0"/>
        <pt x="66" y="79" on="0"/>
        <pt x="66" y="170" on="1"/>
        <pt x="66" y="233" on="0"/>
        <pt x="106" y="349" on="0"/>
        <pt x="178" y="437" on="0"/>
        <pt x="276" y="490" on="0"/>
        <pt x="334" y="490" on="1"/>
        <pt x="388" y="490" on="0"/>
        <pt x="469" y="446" on="0"/>
        <pt x="492" y="410" on="1"/>
        <pt x="496" y="410" on="1"/>
        <pt x="514" y="478" on="1"/>
        <pt x="538" y="478" on="1"/>
        <pt x="440" y="-8" on="1"/>
        <pt x="383" y="-40" on="0"/>
        <pt x="316" y="-106" on="0"/>
        <pt x="316" y="-144" on="1"/>
        <pt x="316" y="-173" on="0"/>
        <pt x="353" y="-198" on="0"/>
        <pt x="380" y="-198" on="1"/>
        <pt x="397" y="-198" on="0"/>
        <pt x="424" y="-187" on="0"/>
        <pt x="436" y="-178" on="1"/>
        <pt x="448" y="-196" on="1"/>
        <pt x="434" y="-208" on="0"/>
        <pt x="398" y="-224" on="0"/>
      </contour>
      <contour>
        <pt x="238" y="14" on="1"/>
        <pt x="286" y="14" on="0"/>
        <pt x="390" y="71" on="0"/>
        <pt x="438" y="122" on="1"/>
        <pt x="490" y="372" on="1"/>
        <pt x="457" y="422" on="0"/>
        <pt x="377" y="464" on="0"/>
        <pt x="332" y="464" on="1"/>
        <pt x="281" y="464" on="0"/>
        <pt x="194" y="414" on="0"/>
        <pt x="130" y="333" on="0"/>
        <pt x="94" y="230" on="0"/>
        <pt x="94" y="176" on="1"/>
        <pt x="94" y="93" on="0"/>
        <pt x="172" y="14" on="0"/>
      </contour>
    </TTGlyph>
    <TTGlyph name="aogonek.a" xMin="68" yMin="-224" xMax="506" yMax="490">
      <contour>
        <pt x="372" y="-224" on="1"/>
        <pt x="356" y="-224" on="0"/>
        <pt x="325" y="-216" on="0"/>
        <pt x="301" y="-199" on="0"/>
        <pt x="286" y="-172" on="0"/>
        <pt x="286" y="-152" on="1"/>
        <pt x="286" y="-127" on="0"/>
        <pt x="306" y="-83" on="0"/>
        <pt x="342" y="-46" on="0"/>
        <pt x="389" y="-14" on="0"/>
        <pt x="416" y="0" on="1"/>
        <pt x="432" y="92" on="1"/>
        <pt x="430" y="92" on="1"/>
        <pt x="408" y="71" on="0"/>
        <pt x="355" y="33" on="0"/>
        <pt x="297" y="5" on="0"/>
        <pt x="235" y="-12" on="0"/>
        <pt x="204" y="-12" on="1"/>
        <pt x="176" y="-12" on="0"/>
        <pt x="126" y="1" on="0"/>
        <pt x="89" y="27" on="0"/>
        <pt x="68" y="67" on="0"/>
        <pt x="68" y="94" on="1"/>
        <pt x="68" y="142" on="0"/>
        <pt x="113" y="211" on="0"/>
        <pt x="210" y="259" on="0"/>
        <pt x="361" y="287" on="0"/>
        <pt x="468" y="294" on="1"/>
        <pt x="472" y="311" on="0"/>
        <pt x="478" y="344" on="0"/>
        <pt x="478" y="358" on="1"/>
        <pt x="478" y="408" on="0"/>
        <pt x="426" y="464" on="0"/>
        <pt x="364" y="464" on="1"/>
        <pt x="331" y="464" on="0"/>
        <pt x="268" y="451" on="0"/>
        <pt x="212" y="430" on="0"/>
        <pt x="165" y="405" on="0"/>
        <pt x="149" y="394" on="1"/>
        <pt x="134" y="418" on="1"/>
        <pt x="151" y="429" on="0"/>
        <pt x="201" y="455" on="0"/>
        <pt x="261" y="476" on="0"/>
        <pt x="330" y="490" on="0"/>
        <pt x="366" y="490" on="1"/>
        <pt x="441" y="490" on="0"/>
        <pt x="506" y="421" on="0"/>
        <pt x="506" y="364" on="1"/>
        <pt x="506" y="353" on="0"/>
        <pt x="504" y="332" on="0"/>
        <pt x="502" y="320" on="1"/>
        <pt x="438" y="-8" on="1"/>
        <pt x="381" y="-40" on="0"/>
        <pt x="314" y="-106" on="0"/>
        <pt x="314" y="-144" on="1"/>
        <pt x="314" y="-173" on="0"/>
        <pt x="351" y="-198" on="0"/>
        <pt x="378" y="-198" on="1"/>
        <pt x="395" y="-198" on="0"/>
        <pt x="422" y="-187" on="0"/>
        <pt x="434" y="-178" on="1"/>
        <pt x="446" y="-196" on="1"/>
        <pt x="432" y="-208" on="0"/>
        <pt x="396" y="-224" on="0"/>
      </contour>
      <contour>
        <pt x="206" y="14" on="1"/>
        <pt x="263" y="14" on="0"/>
        <pt x="377" y="73" on="0"/>
        <pt x="436" y="126" on="1"/>
        <pt x="464" y="268" on="1"/>
        <pt x="361" y="261" on="0"/>
        <pt x="221" y="235" on="0"/>
        <pt x="135" y="194" on="0"/>
        <pt x="98" y="137" on="0"/>
        <pt x="98" y="100" on="1"/>
        <pt x="98" y="53" on="0"/>
        <pt x="161" y="14" on="0"/>
      </contour>
    </TTGlyph>
    <TTGlyph name="apostrophemod" xMin="239" yMin="418" xMax="431" yMax="700">
      <component glyphName="quoteright" x="0" y="0" flags="0x204"/>
    </TTGlyph>
    <TTGlyph name="approxequal" xMin="97" yMin="171" xMax="503" yMax="490">
      <component glyphName="asciitilde" x="0" y="100" flags="0x204"/>
      <component glyphName="asciitilde" x="0" y="-99" flags="0x4"/>
    </TTGlyph>
    <TTGlyph name="aring" xMin="66" yMin="-12" xMax="538" yMax="732">
      <component glyphName="a" x="0" y="0" flags="0x204"/>
      <component glyphName="ringcmb" x="20" y="0" flags="0x4"/>
    </TTGlyph>
    <TTGlyph name="aring.a" xMin="68" yMin="-12" xMax="506" yMax="732">
      <component glyphName="a.a" x="0" y="0" flags="0x204"/>
      <component glyphName="ringcmb" x="12" y="0" flags="0x4"/>
    </TTGlyph>
    <TTGlyph name="aringacute" xMin="66" yMin="-12" xMax="538" yMax="812">
      <contour>
        <pt x="236" y="-12" on="1"/>
        <pt x="159" y="-12" on="0"/>
        <pt x="66" y="79" on="0"/>
        <pt x="66" y="170" on="1"/>
        <pt x="66" y="233" on="0"/>
        <pt x="106" y="349" on="0"/>
        <pt x="178" y="437" on="0"/>
        <pt x="276" y="490" on="0"/>
        <pt x="334" y="490" on="1"/>
        <pt x="388" y="490" on="0"/>
        <pt x="469" y="446" on="0"/>
        <pt x="492" y="410" on="1"/>
        <pt x="496" y="410" on="1"/>
        <pt x="514" y="478" on="1"/>
        <pt x="538" y="478" on="1"/>
        <pt x="442" y="0" on="1"/>
        <pt x="418" y="0" on="1"/>
        <pt x="430" y="78" on="1"/>
        <pt x="426" y="78" on="1"/>
        <pt x="385" y="39" on="0"/>
        <pt x="287" y="-12" on="0"/>
      </contour>
      <contour>
        <pt x="238" y="14" on="1"/>
        <pt x="286" y="14" on="0"/>
        <pt x="390" y="71" on="0"/>
        <pt x="438" y="122" on="1"/>
        <pt x="490" y="372" on="1"/>
        <pt x="457" y="422" on="0"/>
        <pt x="377" y="464" on="0"/>
        <pt x="332" y="464" on="1"/>
        <pt x="281" y="464" on="0"/>
        <pt x="194" y="414" on="0"/>
        <pt x="130" y="333" on="0"/>
        <pt x="94" y="230" on="0"/>
        <pt x="94" y="176" on="1"/>
        <pt x="94" y="93" on="0"/>
        <pt x="172" y="14" on="0"/>
      </contour>
      <contour>
        <pt x="378" y="548" on="1"/>
        <pt x="345" y="548" on="0"/>
        <pt x="298" y="586" on="0"/>
        <pt x="298" y="624" on="1"/>
        <pt x="298" y="656" on="0"/>
        <pt x="328" y="709" on="0"/>
        <pt x="354" y="722" on="1"/>
        <pt x="484" y="812" on="1"/>
        <pt x="500" y="786" on="1"/>
        <pt x="410" y="731" on="1"/>
        <pt x="438" y="727" on="0"/>
        <pt x="476" y="690" on="0"/>
        <pt x="476" y="656" on="1"/>
        <pt x="476" y="635" on="0"/>
        <pt x="462" y="596" on="0"/>
        <pt x="436" y="566" on="0"/>
        <pt x="400" y="548" on="0"/>
      </contour>
      <contour>
        <pt x="380" y="570" on="1"/>
        <pt x="395" y="570" on="0"/>
        <pt x="421" y="583" on="0"/>
        <pt x="440" y="606" on="0"/>
        <pt x="452" y="637" on="0"/>
        <pt x="452" y="654" on="1"/>
        <pt x="452" y="680" on="0"/>
        <pt x="421" y="710" on="0"/>
        <pt x="394" y="710" on="1"/>
        <pt x="379" y="710" on="0"/>
        <pt x="353" y="697" on="0"/>
        <pt x="334" y="674" on="0"/>
        <pt x="322" y="643" on="0"/>
        <pt x="322" y="626" on="1"/>
        <pt x="322" y="600" on="0"/>
        <pt x="353" y="570" on="0"/>
      </contour>
    </TTGlyph>
    <TTGlyph name="aringacute.a" xMin="68" yMin="-12" xMax="506" yMax="812">
      <contour>
        <pt x="204" y="-12" on="1"/>
        <pt x="176" y="-12" on="0"/>
        <pt x="126" y="1" on="0"/>
        <pt x="89" y="27" on="0"/>
        <pt x="68" y="67" on="0"/>
        <pt x="68" y="94" on="1"/>
        <pt x="68" y="142" on="0"/>
        <pt x="113" y="211" on="0"/>
        <pt x="210" y="259" on="0"/>
        <pt x="361" y="287" on="0"/>
        <pt x="468" y="294" on="1"/>
        <pt x="472" y="311" on="0"/>
        <pt x="478" y="344" on="0"/>
        <pt x="478" y="358" on="1"/>
        <pt x="478" y="408" on="0"/>
        <pt x="426" y="464" on="0"/>
        <pt x="364" y="464" on="1"/>
        <pt x="331" y="464" on="0"/>
        <pt x="268" y="451" on="0"/>
        <pt x="212" y="430" on="0"/>
        <pt x="165" y="405" on="0"/>
        <pt x="149" y="394" on="1"/>
        <pt x="134" y="418" on="1"/>
        <pt x="151" y="429" on="0"/>
        <pt x="201" y="455" on="0"/>
        <pt x="261" y="476" on="0"/>
        <pt x="330" y="490" on="0"/>
        <pt x="366" y="490" on="1"/>
        <pt x="441" y="490" on="0"/>
        <pt x="506" y="421" on="0"/>
        <pt x="506" y="364" on="1"/>
        <pt x="506" y="353" on="0"/>
        <pt x="504" y="332" on="0"/>
        <pt x="502" y="320" on="1"/>
        <pt x="440" y="0" on="1"/>
        <pt x="416" y="0" on="1"/>
        <pt x="432" y="92" on="1"/>
        <pt x="430" y="92" on="1"/>
        <pt x="408" y="71" on="0"/>
        <pt x="355" y="33" on="0"/>
        <pt x="297" y="5" on="0"/>
        <pt x="235" y="-12" on="0"/>
      </contour>
      <contour>
        <pt x="206" y="14" on="1"/>
        <pt x="263" y="14" on="0"/>
        <pt x="377" y="73" on="0"/>
        <pt x="436" y="126" on="1"/>
        <pt x="464" y="268" on="1"/>
        <pt x="361" y="261" on="0"/>
        <pt x="221" y="235" on="0"/>
        <pt x="135" y="194" on="0"/>
        <pt x="98" y="137" on="0"/>
        <pt x="98" y="100" on="1"/>
        <pt x="98" y="53" on="0"/>
        <pt x="161" y="14" on="0"/>
      </contour>
      <contour>
        <pt x="370" y="548" on="1"/>
        <pt x="337" y="548" on="0"/>
        <pt x="290" y="586" on="0"/>
        <pt x="290" y="624" on="1"/>
        <pt x="290" y="656" on="0"/>
        <pt x="320" y="709" on="0"/>
        <pt x="346" y="722" on="1"/>
        <pt x="476" y="812" on="1"/>
        <pt x="492" y="786" on="1"/>
        <pt x="402" y="731" on="1"/>
        <pt x="430" y="727" on="0"/>
        <pt x="468" y="690" on="0"/>
        <pt x="468" y="656" on="1"/>
        <pt x="468" y="635" on="0"/>
        <pt x="454" y="596" on="0"/>
        <pt x="428" y="566" on="0"/>
        <pt x="392" y="548" on="0"/>
      </contour>
      <contour>
        <pt x="372" y="570" on="1"/>
        <pt x="387" y="570" on="0"/>
        <pt x="413" y="583" on="0"/>
        <pt x="432" y="606" on="0"/>
        <pt x="444" y="637" on="0"/>
        <pt x="444" y="654" on="1"/>
        <pt x="444" y="680" on="0"/>
        <pt x="413" y="710" on="0"/>
        <pt x="386" y="710" on="1"/>
        <pt x="371" y="710" on="0"/>
        <pt x="345" y="697" on="0"/>
        <pt x="326" y="674" on="0"/>
        <pt x="314" y="643" on="0"/>
        <pt x="314" y="626" on="1"/>
        <pt x="314" y="600" on="0"/>
        <pt x="345" y="570" on="0"/>
      </contour>
    </TTGlyph>
    <TTGlyph name="arrowboth" xMin="-12" yMin="46" xMax="612" yMax="458">
      <contour>
        <pt x="612" y="254" on="1"/>
        <pt x="612" y="250" on="1"/>
        <pt x="434" y="46" on="1"/>
        <pt x="415" y="66" on="1"/>
        <pt x="570" y="239" on="1"/>
        <pt x="30" y="239" on="1"/>
        <pt x="185" y="66" on="1"/>
        <pt x="166" y="46" on="1"/>
        <pt x="-12" y="250" on="1"/>
        <pt x="-12" y="254" on="1"/>
        <pt x="166" y="458" on="1"/>
        <pt x="185" y="438" on="1"/>
        <pt x="30" y="265" on="1"/>
        <pt x="570" y="265" on="1"/>
        <pt x="415" y="438" on="1"/>
        <pt x="434" y="458" on="1"/>
      </contour>
    </TTGlyph>
    <TTGlyph name="arrowdbldown" xMin="34" yMin="-24" xMax="566" yMax="526">
      <contour>
        <pt x="298" y="-24" on="1"/>
        <pt x="34" y="244" on="1"/>
        <pt x="53" y="263" on="1"/>
        <pt x="186" y="125" on="1"/>
        <pt x="186" y="526" on="1"/>
        <pt x="213" y="526" on="1"/>
        <pt x="213" y="97" on="1"/>
        <pt x="298" y="9" on="1"/>
        <pt x="302" y="9" on="1"/>
        <pt x="387" y="97" on="1"/>
        <pt x="387" y="526" on="1"/>
        <pt x="414" y="526" on="1"/>
        <pt x="414" y="125" on="1"/>
        <pt x="547" y="263" on="1"/>
        <pt x="566" y="244" on="1"/>
        <pt x="302" y="-24" on="1"/>
      </contour>
    </TTGlyph>
    <TTGlyph name="arrowdblleft" xMin="20" yMin="-14" xMax="570" yMax="518">
      <contour>
        <pt x="288" y="-14" on="1"/>
        <pt x="20" y="250" on="1"/>
        <pt x="20" y="254" on="1"/>
        <pt x="288" y="518" on="1"/>
        <pt x="307" y="499" on="1"/>
        <pt x="169" y="366" on="1"/>
        <pt x="570" y="366" on="1"/>
        <pt x="570" y="339" on="1"/>
        <pt x="140" y="339" on="1"/>
        <pt x="52" y="254" on="1"/>
        <pt x="52" y="250" on="1"/>
        <pt x="140" y="165" on="1"/>
        <pt x="570" y="165" on="1"/>
        <pt x="570" y="138" on="1"/>
        <pt x="169" y="138" on="1"/>
        <pt x="307" y="5" on="1"/>
      </contour>
    </TTGlyph>
    <TTGlyph name="arrowdblright" xMin="28" yMin="-14" xMax="578" yMax="518">
      <contour>
        <pt x="310" y="-14" on="1"/>
        <pt x="291" y="5" on="1"/>
        <pt x="429" y="138" on="1"/>
        <pt x="28" y="138" on="1"/>
        <pt x="28" y="165" on="1"/>
        <pt x="458" y="165" on="1"/>
        <pt x="546" y="250" on="1"/>
        <pt x="546" y="254" on="1"/>
        <pt x="458" y="339" on="1"/>
        <pt x="28" y="339" on="1"/>
        <pt x="28" y="366" on="1"/>
        <pt x="429" y="366" on="1"/>
        <pt x="291" y="499" on="1"/>
        <pt x="310" y="518" on="1"/>
        <pt x="578" y="254" on="1"/>
        <pt x="578" y="250" on="1"/>
      </contour>
    </TTGlyph>
    <TTGlyph name="arrowdblup" xMin="34" yMin="-24" xMax="566" yMax="526">
      <contour>
        <pt x="53" y="239" on="1"/>
        <pt x="34" y="258" on="1"/>
        <pt x="298" y="526" on="1"/>
        <pt x="302" y="526" on="1"/>
        <pt x="566" y="258" on="1"/>
        <pt x="547" y="239" on="1"/>
        <pt x="414" y="377" on="1"/>
        <pt x="414" y="-24" on="1"/>
        <pt x="387" y="-24" on="1"/>
        <pt x="387" y="405" on="1"/>
        <pt x="302" y="493" on="1"/>
        <pt x="298" y="493" on="1"/>
        <pt x="213" y="405" on="1"/>
        <pt x="213" y="-24" on="1"/>
        <pt x="186" y="-24" on="1"/>
        <pt x="186" y="377" on="1"/>
      </contour>
    </TTGlyph>
    <TTGlyph name="arrowdown" xMin="34" yMin="-24" xMax="566" yMax="526">
      <contour>
        <pt x="298" y="-24" on="1"/>
        <pt x="34" y="244" on="1"/>
        <pt x="53" y="263" on="1"/>
        <pt x="287" y="20" on="1"/>
        <pt x="287" y="526" on="1"/>
        <pt x="313" y="526" on="1"/>
        <pt x="313" y="20" on="1"/>
        <pt x="547" y="263" on="1"/>
        <pt x="566" y="244" on="1"/>
        <pt x="302" y="-24" on="1"/>
      </contour>
    </TTGlyph>
    <TTGlyph name="arrowdownleft" xMin="104" yMin="55" xMax="503" yMax="454">
      <contour>
        <pt x="107" y="55" on="1"/>
        <pt x="104" y="58" on="1"/>
        <pt x="107" y="434" on="1"/>
        <pt x="133" y="434" on="1"/>
        <pt x="127" y="97" on="1"/>
        <pt x="486" y="454" on="1"/>
        <pt x="503" y="436" on="1"/>
        <pt x="145" y="78" on="1"/>
        <pt x="483" y="85" on="1"/>
        <pt x="483" y="58" on="1"/>
      </contour>
    </TTGlyph>
    <TTGlyph name="arrowdownright" xMin="100" yMin="56" xMax="499" yMax="456">
      <contour>
        <pt x="496" y="56" on="1"/>
        <pt x="120" y="59" on="1"/>
        <pt x="120" y="86" on="1"/>
        <pt x="458" y="79" on="1"/>
        <pt x="100" y="437" on="1"/>
        <pt x="117" y="456" on="1"/>
        <pt x="476" y="98" on="1"/>
        <pt x="469" y="435" on="1"/>
        <pt x="496" y="435" on="1"/>
        <pt x="499" y="59" on="1"/>
      </contour>
    </TTGlyph>
    <TTGlyph name="arrowleft" xMin="20" yMin="-14" xMax="570" yMax="518">
      <contour>
        <pt x="288" y="-14" on="1"/>
        <pt x="20" y="250" on="1"/>
        <pt x="20" y="254" on="1"/>
        <pt x="288" y="518" on="1"/>
        <pt x="307" y="499" on="1"/>
        <pt x="63" y="265" on="1"/>
        <pt x="570" y="265" on="1"/>
        <pt x="570" y="239" on="1"/>
        <pt x="63" y="239" on="1"/>
        <pt x="307" y="5" on="1"/>
      </contour>
    </TTGlyph>
    <TTGlyph name="arrowright" xMin="28" yMin="-14" xMax="578" yMax="518">
      <contour>
        <pt x="310" y="-14" on="1"/>
        <pt x="291" y="5" on="1"/>
        <pt x="535" y="239" on="1"/>
        <pt x="28" y="239" on="1"/>
        <pt x="28" y="265" on="1"/>
        <pt x="535" y="265" on="1"/>
        <pt x="291" y="499" on="1"/>
        <pt x="310" y="518" on="1"/>
        <pt x="578" y="254" on="1"/>
        <pt x="578" y="250" on="1"/>
      </contour>
    </TTGlyph>
    <TTGlyph name="arrowup" xMin="34" yMin="-24" xMax="566" yMax="526">
      <contour>
        <pt x="287" y="-24" on="1"/>
        <pt x="287" y="482" on="1"/>
        <pt x="53" y="239" on="1"/>
        <pt x="34" y="258" on="1"/>
        <pt x="298" y="526" on="1"/>
        <pt x="302" y="526" on="1"/>
        <pt x="566" y="258" on="1"/>
        <pt x="547" y="239" on="1"/>
        <pt x="313" y="482" on="1"/>
        <pt x="313" y="-24" on="1"/>
      </contour>
    </TTGlyph>
    <TTGlyph name="arrowupdn" xMin="94" yMin="-58" xMax="506" yMax="560">
      <contour>
        <pt x="302" y="-58" on="1"/>
        <pt x="298" y="-58" on="1"/>
        <pt x="94" y="120" on="1"/>
        <pt x="114" y="139" on="1"/>
        <pt x="287" y="-16" on="1"/>
        <pt x="287" y="518" on="1"/>
        <pt x="114" y="363" on="1"/>
        <pt x="94" y="382" on="1"/>
        <pt x="298" y="560" on="1"/>
        <pt x="302" y="560" on="1"/>
        <pt x="506" y="382" on="1"/>
        <pt x="486" y="363" on="1"/>
        <pt x="313" y="518" on="1"/>
        <pt x="313" y="-16" on="1"/>
        <pt x="486" y="139" on="1"/>
        <pt x="506" y="120" on="1"/>
      </contour>
    </TTGlyph>
    <TTGlyph name="arrowupdnbse" xMin="60" yMin="-109" xMax="540" yMax="560">
      <contour>
        <pt x="60" y="-109" on="1"/>
        <pt x="60" y="-82" on="1"/>
        <pt x="540" y="-82" on="1"/>
        <pt x="540" y="-109" on="1"/>
      </contour>
      <contour>
        <pt x="302" y="-58" on="1"/>
        <pt x="298" y="-58" on="1"/>
        <pt x="94" y="120" on="1"/>
        <pt x="114" y="139" on="1"/>
        <pt x="287" y="-16" on="1"/>
        <pt x="287" y="518" on="1"/>
        <pt x="114" y="363" on="1"/>
        <pt x="94" y="382" on="1"/>
        <pt x="298" y="560" on="1"/>
        <pt x="302" y="560" on="1"/>
        <pt x="506" y="382" on="1"/>
        <pt x="486" y="363" on="1"/>
        <pt x="313" y="518" on="1"/>
        <pt x="313" y="-16" on="1"/>
        <pt x="486" y="139" on="1"/>
        <pt x="506" y="120" on="1"/>
      </contour>
    </TTGlyph>
    <TTGlyph name="arrowupleft" xMin="99" yMin="48" xMax="498" yMax="448">
      <contour>
        <pt x="481" y="48" on="1"/>
        <pt x="122" y="406" on="1"/>
        <pt x="129" y="69" on="1"/>
        <pt x="102" y="69" on="1"/>
        <pt x="99" y="445" on="1"/>
        <pt x="102" y="448" on="1"/>
        <pt x="478" y="445" on="1"/>
        <pt x="478" y="418" on="1"/>
        <pt x="140" y="425" on="1"/>
        <pt x="498" y="67" on="1"/>
      </contour>
    </TTGlyph>
    <TTGlyph name="arrowupright" xMin="97" yMin="47" xMax="496" yMax="447">
      <contour>
        <pt x="114" y="47" on="1"/>
        <pt x="97" y="66" on="1"/>
        <pt x="455" y="424" on="1"/>
        <pt x="117" y="417" on="1"/>
        <pt x="117" y="444" on="1"/>
        <pt x="493" y="447" on="1"/>
        <pt x="496" y="444" on="1"/>
        <pt x="493" y="68" on="1"/>
        <pt x="467" y="68" on="1"/>
        <pt x="473" y="405" on="1"/>
      </contour>
    </TTGlyph>
    <TTGlyph name="asciicircum" xMin="133" yMin="292" xMax="467" yMax="670">
      <contour>
        <pt x="133" y="292" on="1"/>
        <pt x="283" y="670" on="1"/>
        <pt x="317" y="670" on="1"/>
        <pt x="467" y="292" on="1"/>
        <pt x="437" y="292" on="1"/>
        <pt x="354" y="508" on="1"/>
        <pt x="302" y="639" on="1"/>
        <pt x="298" y="639" on="1"/>
        <pt x="246" y="508" on="1"/>
        <pt x="163" y="292" on="1"/>
      </contour>
    </TTGlyph>
    <TTGlyph name="asciitilde" xMin="97" yMin="270" xMax="503" yMax="390">
      <contour>
        <pt x="390" y="270" on="1"/>
        <pt x="361" y="270" on="0"/>
        <pt x="314" y="299" on="0"/>
        <pt x="271" y="334" on="0"/>
        <pt x="230" y="363" on="0"/>
        <pt x="208" y="363" on="1"/>
        <pt x="195" y="363" on="0"/>
        <pt x="172" y="357" on="0"/>
        <pt x="150" y="339" on="0"/>
        <pt x="130" y="303" on="0"/>
        <pt x="120" y="273" on="1"/>
        <pt x="97" y="280" on="1"/>
        <pt x="118" y="344" on="0"/>
        <pt x="178" y="390" on="0"/>
        <pt x="210" y="390" on="1"/>
        <pt x="238" y="390" on="0"/>
        <pt x="286" y="361" on="0"/>
        <pt x="329" y="326" on="0"/>
        <pt x="370" y="297" on="0"/>
        <pt x="392" y="297" on="1"/>
        <pt x="405" y="297" on="0"/>
        <pt x="428" y="302" on="0"/>
        <pt x="450" y="320" on="0"/>
        <pt x="470" y="356" on="0"/>
        <pt x="480" y="387" on="1"/>
        <pt x="503" y="378" on="1"/>
        <pt x="482" y="315" on="0"/>
        <pt x="422" y="270" on="0"/>
      </contour>
    </TTGlyph>
    <TTGlyph name="asperacutecmb" xMin="239" yMin="560" xMax="477" yMax="752">
      <contour>
        <pt x="304" y="578" on="1"/>
        <pt x="290" y="583" on="0"/>
        <pt x="265" y="596" on="0"/>
        <pt x="247" y="616" on="0"/>
        <pt x="239" y="643" on="0"/>
        <pt x="243" y="662" on="1"/>
        <pt x="246" y="681" on="0"/>
        <pt x="269" y="707" on="0"/>
        <pt x="301" y="725" on="0"/>
        <pt x="341" y="733" on="0"/>
        <pt x="361" y="734" on="1"/>
        <pt x="358" y="708" on="1"/>
        <pt x="321" y="706" on="0"/>
        <pt x="277" y="682" on="0"/>
        <pt x="272" y="658" on="1"/>
        <pt x="267" y="635" on="0"/>
        <pt x="294" y="608" on="0"/>
        <pt x="317" y="600" on="1"/>
      </contour>
      <contour>
        <pt x="354" y="566" on="1"/>
        <pt x="440" y="752" on="1"/>
        <pt x="477" y="744" on="1"/>
        <pt x="377" y="560" on="1"/>
      </contour>
    </TTGlyph>
    <TTGlyph name="aspercmb" xMin="299" yMin="578" xMax="431" yMax="734">
      <contour>
        <pt x="374" y="578" on="1"/>
        <pt x="359" y="583" on="0"/>
        <pt x="330" y="597" on="0"/>
        <pt x="309" y="616" on="0"/>
        <pt x="299" y="643" on="0"/>
        <pt x="303" y="662" on="1"/>
        <pt x="306" y="681" on="0"/>
        <pt x="331" y="707" on="0"/>
        <pt x="366" y="725" on="0"/>
        <pt x="409" y="733" on="0"/>
        <pt x="431" y="734" on="1"/>
        <pt x="428" y="708" on="1"/>
        <pt x="386" y="706" on="0"/>
        <pt x="337" y="682" on="0"/>
        <pt x="332" y="658" on="1"/>
        <pt x="327" y="635" on="0"/>
        <pt x="360" y="609" on="0"/>
        <pt x="387" y="600" on="1"/>
      </contour>
    </TTGlyph>
    <TTGlyph name="aspergravecmb" xMin="229" yMin="560" xMax="426" yMax="752">
      <contour>
        <pt x="294" y="578" on="1"/>
        <pt x="280" y="583" on="0"/>
        <pt x="255" y="596" on="0"/>
        <pt x="237" y="616" on="0"/>
        <pt x="229" y="643" on="0"/>
        <pt x="233" y="662" on="1"/>
        <pt x="236" y="681" on="0"/>
        <pt x="259" y="707" on="0"/>
        <pt x="291" y="725" on="0"/>
        <pt x="331" y="733" on="0"/>
        <pt x="351" y="734" on="1"/>
        <pt x="348" y="708" on="1"/>
        <pt x="311" y="706" on="0"/>
        <pt x="267" y="682" on="0"/>
        <pt x="262" y="658" on="1"/>
        <pt x="257" y="635" on="0"/>
        <pt x="284" y="608" on="0"/>
        <pt x="307" y="600" on="1"/>
      </contour>
      <contour>
        <pt x="401" y="560" on="1"/>
        <pt x="379" y="744" on="1"/>
        <pt x="418" y="752" on="1"/>
        <pt x="426" y="566" on="1"/>
      </contour>
    </TTGlyph>
    <TTGlyph name="aspertildecmb" xMin="249" yMin="562" xMax="519" yMax="778">
      <contour>
        <pt x="369" y="562" on="1"/>
        <pt x="357" y="566" on="0"/>
        <pt x="333" y="577" on="0"/>
        <pt x="315" y="593" on="0"/>
        <pt x="305" y="613" on="0"/>
        <pt x="308" y="626" on="1"/>
        <pt x="311" y="641" on="0"/>
        <pt x="332" y="663" on="0"/>
        <pt x="362" y="676" on="0"/>
        <pt x="399" y="683" on="0"/>
        <pt x="419" y="684" on="1"/>
        <pt x="416" y="660" on="1"/>
        <pt x="345" y="659" on="0"/>
        <pt x="337" y="622" on="1"/>
        <pt x="335" y="610" on="0"/>
        <pt x="360" y="590" on="0"/>
        <pt x="382" y="584" on="1"/>
      </contour>
      <contour>
        <pt x="249" y="704" on="1"/>
        <pt x="252" y="716" on="0"/>
        <pt x="263" y="740" on="0"/>
        <pt x="279" y="761" on="0"/>
        <pt x="303" y="774" on="0"/>
        <pt x="320" y="774" on="1"/>
        <pt x="343" y="774" on="0"/>
        <pt x="377" y="761" on="0"/>
        <pt x="406" y="745" on="0"/>
        <pt x="435" y="732" on="0"/>
        <pt x="452" y="732" on="1"/>
        <pt x="469" y="732" on="0"/>
        <pt x="487" y="755" on="0"/>
        <pt x="495" y="778" on="1"/>
        <pt x="519" y="776" on="1"/>
        <pt x="516" y="764" on="0"/>
        <pt x="505" y="740" on="0"/>
        <pt x="488" y="719" on="0"/>
        <pt x="463" y="706" on="0"/>
        <pt x="447" y="706" on="1"/>
        <pt x="424" y="706" on="0"/>
        <pt x="390" y="719" on="0"/>
        <pt x="360" y="735" on="0"/>
        <pt x="332" y="748" on="0"/>
        <pt x="315" y="748" on="1"/>
        <pt x="298" y="748" on="0"/>
        <pt x="280" y="725" on="0"/>
        <pt x="272" y="702" on="1"/>
      </contour>
    </TTGlyph>
    <TTGlyph name="asterisk" xMin="118" yMin="128" xMax="514" yMax="546">
      <contour>
        <pt x="144" y="135" on="1"/>
        <pt x="124" y="151" on="1"/>
        <pt x="266" y="320" on="1"/>
        <pt x="118" y="391" on="1"/>
        <pt x="130" y="413" on="1"/>
        <pt x="287" y="354" on="1"/>
        <pt x="332" y="546" on="1"/>
        <pt x="357" y="546" on="1"/>
        <pt x="327" y="351" on="1"/>
        <pt x="507" y="413" on="1"/>
        <pt x="514" y="391" on="1"/>
        <pt x="334" y="315" on="1"/>
        <pt x="418" y="141" on="1"/>
        <pt x="394" y="128" on="1"/>
        <pt x="298" y="294" on="1"/>
      </contour>
    </TTGlyph>
    <TTGlyph name="asterisk.a" xMin="168" yMin="348" xMax="524" yMax="712">
      <contour>
        <pt x="200" y="354" on="1"/>
        <pt x="180" y="368" on="1"/>
        <pt x="300" y="516" on="1"/>
        <pt x="168" y="578" on="1"/>
        <pt x="178" y="598" on="1"/>
        <pt x="320" y="545" on="1"/>
        <pt x="358" y="712" on="1"/>
        <pt x="382" y="712" on="1"/>
        <pt x="356" y="544" on="1"/>
        <pt x="516" y="598" on="1"/>
        <pt x="524" y="578" on="1"/>
        <pt x="362" y="510" on="1"/>
        <pt x="430" y="360" on="1"/>
        <pt x="410" y="348" on="1"/>
        <pt x="330" y="490" on="1"/>
      </contour>
    </TTGlyph>
    <TTGlyph name="at" xMin="36" yMin="-142" xMax="564" yMax="628">
      <contour>
        <pt x="268" y="-142" on="1"/>
        <pt x="153" y="-142" on="0"/>
        <pt x="36" y="11" on="0"/>
        <pt x="36" y="148" on="1"/>
        <pt x="36" y="254" on="0"/>
        <pt x="95" y="430" on="0"/>
        <pt x="194" y="557" on="0"/>
        <pt x="325" y="628" on="0"/>
        <pt x="396" y="628" on="1"/>
        <pt x="484" y="628" on="0"/>
        <pt x="564" y="551" on="0"/>
        <pt x="564" y="480" on="1"/>
        <pt x="564" y="459" on="0"/>
        <pt x="561" y="421" on="0"/>
        <pt x="556" y="400" on="1"/>
        <pt x="497" y="100" on="1"/>
        <pt x="474" y="100" on="1"/>
        <pt x="482" y="166" on="1"/>
        <pt x="478" y="166" on="1"/>
        <pt x="448" y="134" on="0"/>
        <pt x="370" y="88" on="0"/>
        <pt x="326" y="88" on="1"/>
        <pt x="303" y="88" on="0"/>
        <pt x="261" y="100" on="0"/>
        <pt x="230" y="125" on="0"/>
        <pt x="212" y="162" on="0"/>
        <pt x="212" y="188" on="1"/>
        <pt x="212" y="272" on="0"/>
        <pt x="365" y="363" on="0"/>
        <pt x="524" y="380" on="1"/>
        <pt x="532" y="413" on="0"/>
        <pt x="538" y="456" on="0"/>
        <pt x="538" y="474" on="1"/>
        <pt x="538" y="533" on="0"/>
        <pt x="472" y="602" on="0"/>
        <pt x="394" y="602" on="1"/>
        <pt x="332" y="602" on="0"/>
        <pt x="213" y="536" on="0"/>
        <pt x="120" y="418" on="0"/>
        <pt x="64" y="253" on="0"/>
        <pt x="64" y="154" on="1"/>
        <pt x="64" y="27" on="0"/>
        <pt x="170" y="-116" on="0"/>
        <pt x="270" y="-116" on="1"/>
        <pt x="312" y="-116" on="0"/>
        <pt x="384" y="-86" on="0"/>
        <pt x="416" y="-62" on="1"/>
        <pt x="430" y="-84" on="1"/>
        <pt x="398" y="-108" on="0"/>
        <pt x="316" y="-142" on="0"/>
      </contour>
      <contour>
        <pt x="328" y="114" on="1"/>
        <pt x="366" y="114" on="0"/>
        <pt x="443" y="159" on="0"/>
        <pt x="490" y="206" on="1"/>
        <pt x="520" y="356" on="1"/>
        <pt x="375" y="336" on="0"/>
        <pt x="240" y="256" on="0"/>
        <pt x="240" y="192" on="1"/>
        <pt x="240" y="151" on="0"/>
        <pt x="292" y="114" on="0"/>
      </contour>
    </TTGlyph>
    <TTGlyph name="at.case" xMin="54" yMin="-12" xMax="579" yMax="672">
      <contour>
        <pt x="274" y="-12" on="1"/>
        <pt x="225" y="-12" on="0"/>
        <pt x="144" y="23" on="0"/>
        <pt x="86" y="91" on="0"/>
        <pt x="54" y="187" on="0"/>
        <pt x="54" y="249" on="1"/>
        <pt x="54" y="345" on="0"/>
        <pt x="113" y="501" on="0"/>
        <pt x="213" y="612" on="0"/>
        <pt x="347" y="672" on="0"/>
        <pt x="421" y="672" on="1"/>
        <pt x="469" y="672" on="0"/>
        <pt x="534" y="641" on="0"/>
        <pt x="570" y="588" on="0"/>
        <pt x="579" y="517" on="0"/>
        <pt x="571" y="477" on="1"/>
        <pt x="512" y="180" on="1"/>
        <pt x="487" y="180" on="1"/>
        <pt x="496" y="242" on="1"/>
        <pt x="492" y="242" on="1"/>
        <pt x="462" y="214" on="0"/>
        <pt x="377" y="168" on="0"/>
        <pt x="332" y="168" on="1"/>
        <pt x="287" y="168" on="0"/>
        <pt x="226" y="217" on="0"/>
        <pt x="226" y="268" on="1"/>
        <pt x="226" y="351" on="0"/>
        <pt x="381" y="442" on="0"/>
        <pt x="539" y="462" on="1"/>
        <pt x="560" y="547" on="0"/>
        <pt x="500" y="647" on="0"/>
        <pt x="414" y="647" on="1"/>
        <pt x="348" y="647" on="0"/>
        <pt x="228" y="589" on="0"/>
        <pt x="137" y="484" on="0"/>
        <pt x="83" y="339" on="0"/>
        <pt x="83" y="251" on="1"/>
        <pt x="83" y="197" on="0"/>
        <pt x="110" y="110" on="0"/>
        <pt x="161" y="48" on="0"/>
        <pt x="233" y="15" on="0"/>
        <pt x="279" y="15" on="1"/>
        <pt x="371" y="15" on="0"/>
        <pt x="438" y="60" on="1"/>
        <pt x="450" y="37" on="1"/>
        <pt x="408" y="11" on="0"/>
        <pt x="321" y="-12" on="0"/>
      </contour>
      <contour>
        <pt x="341" y="195" on="1"/>
        <pt x="380" y="195" on="0"/>
        <pt x="458" y="237" on="0"/>
        <pt x="504" y="282" on="1"/>
        <pt x="535" y="437" on="1"/>
        <pt x="460" y="426" on="0"/>
        <pt x="354" y="397" on="0"/>
        <pt x="287" y="356" on="0"/>
        <pt x="256" y="305" on="0"/>
        <pt x="256" y="272" on="1"/>
        <pt x="256" y="235" on="0"/>
        <pt x="300" y="195" on="0"/>
      </contour>
    </TTGlyph>
    <TTGlyph name="atilde" xMin="66" yMin="-12" xMax="560" yMax="706">
      <component glyphName="a" x="0" y="0" flags="0x204"/>
      <component glyphName="tildecmb" x="20" y="0" flags="0x4"/>
    </TTGlyph>
    <TTGlyph name="atilde.a" xMin="68" yMin="-12" xMax="552" yMax="706">
      <component glyphName="a.a" x="0" y="0" flags="0x204"/>
      <component glyphName="tildecmb" x="12" y="0" flags="0x4"/>
    </TTGlyph>
    <TTGlyph name="aturned" xMin="74" yMin="-12" xMax="512" yMax="490">
      <contour>
        <pt x="376" y="490" on="1"/>
        <pt x="404" y="490" on="0"/>
        <pt x="454" y="477" on="0"/>
        <pt x="491" y="451" on="0"/>
        <pt x="512" y="411" on="0"/>
        <pt x="512" y="384" on="1"/>
        <pt x="512" y="336" on="0"/>
        <pt x="467" y="267" on="0"/>
        <pt x="370" y="219" on="0"/>
        <pt x="218" y="191" on="0"/>
        <pt x="112" y="184" on="1"/>
        <pt x="108" y="167" on="0"/>
        <pt x="102" y="134" on="0"/>
        <pt x="102" y="120" on="1"/>
        <pt x="102" y="70" on="0"/>
        <pt x="154" y="14" on="0"/>
        <pt x="216" y="14" on="1"/>
        <pt x="249" y="14" on="0"/>
        <pt x="312" y="27" on="0"/>
        <pt x="368" y="48" on="0"/>
        <pt x="415" y="73" on="0"/>
        <pt x="431" y="84" on="1"/>
        <pt x="446" y="60" on="1"/>
        <pt x="429" y="49" on="0"/>
        <pt x="379" y="23" on="0"/>
        <pt x="319" y="2" on="0"/>
        <pt x="250" y="-12" on="0"/>
        <pt x="214" y="-12" on="1"/>
        <pt x="139" y="-12" on="0"/>
        <pt x="74" y="57" on="0"/>
        <pt x="74" y="114" on="1"/>
        <pt x="74" y="125" on="0"/>
        <pt x="76" y="146" on="0"/>
        <pt x="78" y="158" on="1"/>
        <pt x="140" y="478" on="1"/>
        <pt x="164" y="478" on="1"/>
        <pt x="148" y="386" on="1"/>
        <pt x="150" y="386" on="1"/>
        <pt x="172" y="407" on="0"/>
        <pt x="225" y="445" on="0"/>
        <pt x="283" y="473" on="0"/>
        <pt x="345" y="490" on="0"/>
      </contour>
      <contour>
        <pt x="374" y="464" on="1"/>
        <pt x="317" y="464" on="0"/>
        <pt x="203" y="405" on="0"/>
        <pt x="144" y="352" on="1"/>
        <pt x="116" y="210" on="1"/>
        <pt x="219" y="217" on="0"/>
        <pt x="359" y="243" on="0"/>
        <pt x="445" y="284" on="0"/>
        <pt x="482" y="340" on="0"/>
        <pt x="482" y="378" on="1"/>
        <pt x="482" y="425" on="0"/>
        <pt x="419" y="464" on="0"/>
      </contour>
    </TTGlyph>
    <TTGlyph name="b" xMin="52" yMin="-12" xMax="524" yMax="722">
      <contour>
        <pt x="256" y="-12" on="1"/>
        <pt x="203" y="-12" on="0"/>
        <pt x="122" y="33" on="0"/>
        <pt x="96" y="68" on="1"/>
        <pt x="92" y="68" on="1"/>
        <pt x="76" y="0" on="1"/>
        <pt x="52" y="0" on="1"/>
        <pt x="196" y="722" on="1"/>
        <pt x="224" y="722" on="1"/>
        <pt x="180" y="506" on="1"/>
        <pt x="156" y="398" on="1"/>
        <pt x="160" y="398" on="1"/>
        <pt x="179" y="415" on="0"/>
        <pt x="225" y="448" on="0"/>
        <pt x="274" y="474" on="0"/>
        <pt x="327" y="490" on="0"/>
        <pt x="354" y="490" on="1"/>
        <pt x="431" y="490" on="0"/>
        <pt x="524" y="392" on="0"/>
        <pt x="524" y="298" on="1"/>
        <pt x="524" y="233" on="0"/>
        <pt x="485" y="120" on="0"/>
        <pt x="415" y="36" on="0"/>
        <pt x="316" y="-12" on="0"/>
      </contour>
      <contour>
        <pt x="258" y="14" on="1"/>
        <pt x="310" y="14" on="0"/>
        <pt x="398" y="60" on="0"/>
        <pt x="461" y="137" on="0"/>
        <pt x="496" y="237" on="0"/>
        <pt x="496" y="292" on="1"/>
        <pt x="496" y="378" on="0"/>
        <pt x="418" y="464" on="0"/>
        <pt x="352" y="464" on="1"/>
        <pt x="329" y="464" on="0"/>
        <pt x="279" y="448" on="0"/>
        <pt x="227" y="421" on="0"/>
        <pt x="175" y="382" on="0"/>
        <pt x="152" y="360" on="1"/>
        <pt x="100" y="102" on="1"/>
        <pt x="135" y="52" on="0"/>
        <pt x="214" y="14" on="0"/>
      </contour>
    </TTGlyph>
    <TTGlyph name="b.sups" xMin="189" yMin="402" xMax="508" yMax="884">
      <contour>
        <pt x="320" y="402" on="1"/>
        <pt x="291" y="402" on="0"/>
        <pt x="245" y="423" on="0"/>
        <pt x="225" y="440" on="1"/>
        <pt x="223" y="440" on="1"/>
        <pt x="214" y="410" on="1"/>
        <pt x="189" y="410" on="1"/>
        <pt x="284" y="884" on="1"/>
        <pt x="314" y="884" on="1"/>
        <pt x="287" y="746" on="1"/>
        <pt x="272" y="684" on="1"/>
        <pt x="301" y="706" on="0"/>
        <pt x="364" y="734" on="0"/>
        <pt x="399" y="734" on="1"/>
        <pt x="455" y="734" on="0"/>
        <pt x="508" y="669" on="0"/>
        <pt x="508" y="614" on="1"/>
        <pt x="508" y="564" on="0"/>
        <pt x="477" y="486" on="0"/>
        <pt x="425" y="431" on="0"/>
        <pt x="357" y="402" on="0"/>
      </contour>
      <contour>
        <pt x="322" y="429" on="1"/>
        <pt x="353" y="429" on="0"/>
        <pt x="409" y="455" on="0"/>
        <pt x="451" y="503" on="0"/>
        <pt x="475" y="569" on="0"/>
        <pt x="475" y="610" on="1"/>
        <pt x="475" y="656" on="0"/>
        <pt x="437" y="707" on="0"/>
        <pt x="392" y="707" on="1"/>
        <pt x="360" y="707" on="0"/>
        <pt x="304" y="681" on="0"/>
        <pt x="269" y="655" on="1"/>
        <pt x="232" y="469" on="1"/>
        <pt x="252" y="448" on="0"/>
        <pt x="295" y="429" on="0"/>
      </contour>
    </TTGlyph>
    <TTGlyph name="backslash" xMin="209" yMin="-160" xMax="388" yMax="710">
      <contour>
        <pt x="361" y="-160" on="1"/>
        <pt x="209" y="710" on="1"/>
        <pt x="236" y="710" on="1"/>
        <pt x="388" y="-160" on="1"/>
      </contour>
    </TTGlyph>
    <TTGlyph name="bar" xMin="286" yMin="-250" xMax="314" yMax="750">
      <contour>
        <pt x="286" y="-250" on="1"/>
        <pt x="286" y="750" on="1"/>
        <pt x="314" y="750" on="1"/>
        <pt x="314" y="-250" on="1"/>
      </contour>
    </TTGlyph>
    <TTGlyph name="bardbl" xMin="187" yMin="-250" xMax="414" yMax="750">
      <component glyphName="bar" x="-99" y="0" flags="0x204"/>
      <component glyphName="bar" x="100" y="0" flags="0x4"/>
    </TTGlyph>
    <TTGlyph name="bhook" xMin="52" yMin="-12" xMax="524" yMax="734">
      <contour>
        <pt x="256" y="-12" on="1"/>
        <pt x="205" y="-12" on="0"/>
        <pt x="122" y="33" on="0"/>
        <pt x="96" y="68" on="1"/>
        <pt x="92" y="68" on="1"/>
        <pt x="76" y="0" on="1"/>
        <pt x="52" y="0" on="1"/>
        <pt x="164" y="558" on="1"/>
        <pt x="183" y="654" on="0"/>
        <pt x="273" y="734" on="0"/>
        <pt x="338" y="734" on="1"/>
        <pt x="359" y="734" on="0"/>
        <pt x="403" y="720" on="0"/>
        <pt x="420" y="708" on="1"/>
        <pt x="406" y="686" on="1"/>
        <pt x="392" y="697" on="0"/>
        <pt x="356" y="708" on="0"/>
        <pt x="336" y="708" on="1"/>
        <pt x="282" y="708" on="0"/>
        <pt x="211" y="639" on="0"/>
        <pt x="192" y="554" on="1"/>
        <pt x="158" y="398" on="1"/>
        <pt x="162" y="398" on="1"/>
        <pt x="181" y="415" on="0"/>
        <pt x="226" y="448" on="0"/>
        <pt x="275" y="474" on="0"/>
        <pt x="327" y="490" on="0"/>
        <pt x="354" y="490" on="1"/>
        <pt x="431" y="490" on="0"/>
        <pt x="524" y="392" on="0"/>
        <pt x="524" y="298" on="1"/>
        <pt x="524" y="233" on="0"/>
        <pt x="485" y="120" on="0"/>
        <pt x="414" y="36" on="0"/>
        <pt x="316" y="-12" on="0"/>
      </contour>
      <contour>
        <pt x="258" y="14" on="1"/>
        <pt x="310" y="14" on="0"/>
        <pt x="398" y="60" on="0"/>
        <pt x="461" y="137" on="0"/>
        <pt x="496" y="237" on="0"/>
        <pt x="496" y="292" on="1"/>
        <pt x="496" y="378" on="0"/>
        <pt x="418" y="464" on="0"/>
        <pt x="352" y="464" on="1"/>
        <pt x="329" y="464" on="0"/>
        <pt x="279" y="448" on="0"/>
        <pt x="227" y="421" on="0"/>
        <pt x="175" y="382" on="0"/>
        <pt x="152" y="360" on="1"/>
        <pt x="100" y="102" on="1"/>
        <pt x="135" y="52" on="0"/>
        <pt x="214" y="14" on="0"/>
      </contour>
    </TTGlyph>
    <TTGlyph name="blinebelow" xMin="52" yMin="-181" xMax="524" yMax="722">
      <component glyphName="b" x="0" y="0" flags="0x204"/>
      <component glyphName="macroncmb" x="-129" y="-789" flags="0x4"/>
    </TTGlyph>
    <TTGlyph name="braceleft" xMin="124" yMin="-152" xMax="586" yMax="708">
      <contour>
        <pt x="328" y="-152" on="1"/>
        <pt x="274" y="-152" on="0"/>
        <pt x="206" y="-114" on="0"/>
        <pt x="206" y="-68" on="1"/>
        <pt x="206" y="-43" on="0"/>
        <pt x="224" y="30" on="0"/>
        <pt x="246" y="107" on="0"/>
        <pt x="264" y="179" on="0"/>
        <pt x="264" y="202" on="1"/>
        <pt x="264" y="214" on="0"/>
        <pt x="254" y="237" on="0"/>
        <pt x="224" y="255" on="0"/>
        <pt x="169" y="266" on="0"/>
        <pt x="124" y="266" on="1"/>
        <pt x="130" y="290" on="1"/>
        <pt x="179" y="290" on="0"/>
        <pt x="241" y="304" on="0"/>
        <pt x="278" y="328" on="0"/>
        <pt x="295" y="357" on="0"/>
        <pt x="298" y="372" on="1"/>
        <pt x="307" y="420" on="0"/>
        <pt x="323" y="529" on="0"/>
        <pt x="334" y="580" on="1"/>
        <pt x="342" y="617" on="0"/>
        <pt x="373" y="667" on="0"/>
        <pt x="416" y="696" on="0"/>
        <pt x="469" y="708" on="0"/>
        <pt x="498" y="708" on="1"/>
        <pt x="586" y="708" on="1"/>
        <pt x="582" y="686" on="1"/>
        <pt x="494" y="686" on="1"/>
        <pt x="443" y="686" on="0"/>
        <pt x="367" y="630" on="0"/>
        <pt x="356" y="576" on="1"/>
        <pt x="347" y="531" on="0"/>
        <pt x="333" y="430" on="0"/>
        <pt x="324" y="382" on="1"/>
        <pt x="315" y="340" on="0"/>
        <pt x="269" y="284" on="0"/>
        <pt x="222" y="278" on="1"/>
        <pt x="222" y="274" on="1"/>
        <pt x="240" y="272" on="0"/>
        <pt x="264" y="258" on="0"/>
        <pt x="279" y="240" on="0"/>
        <pt x="286" y="219" on="0"/>
        <pt x="286" y="210" on="1"/>
        <pt x="286" y="184" on="0"/>
        <pt x="268" y="111" on="0"/>
        <pt x="247" y="34" on="0"/>
        <pt x="230" y="-38" on="0"/>
        <pt x="230" y="-62" on="1"/>
        <pt x="230" y="-96" on="0"/>
        <pt x="284" y="-130" on="0"/>
        <pt x="334" y="-130" on="1"/>
        <pt x="420" y="-130" on="1"/>
        <pt x="414" y="-152" on="1"/>
      </contour>
    </TTGlyph>
    <TTGlyph name="braceright" xMin="5" yMin="-152" xMax="467" yMax="708">
      <contour>
        <pt x="5" y="-152" on="1"/>
        <pt x="9" y="-130" on="1"/>
        <pt x="97" y="-130" on="1"/>
        <pt x="148" y="-130" on="0"/>
        <pt x="224" y="-74" on="0"/>
        <pt x="235" y="-20" on="1"/>
        <pt x="244" y="25" on="0"/>
        <pt x="258" y="126" on="0"/>
        <pt x="267" y="174" on="1"/>
        <pt x="276" y="216" on="0"/>
        <pt x="322" y="272" on="0"/>
        <pt x="369" y="278" on="1"/>
        <pt x="369" y="282" on="1"/>
        <pt x="351" y="284" on="0"/>
        <pt x="326" y="298" on="0"/>
        <pt x="311" y="316" on="0"/>
        <pt x="305" y="337" on="0"/>
        <pt x="305" y="346" on="1"/>
        <pt x="305" y="371" on="0"/>
        <pt x="322" y="445" on="0"/>
        <pt x="343" y="522" on="0"/>
        <pt x="361" y="594" on="0"/>
        <pt x="361" y="618" on="1"/>
        <pt x="361" y="652" on="0"/>
        <pt x="307" y="686" on="0"/>
        <pt x="257" y="686" on="1"/>
        <pt x="171" y="686" on="1"/>
        <pt x="177" y="708" on="1"/>
        <pt x="263" y="708" on="1"/>
        <pt x="317" y="708" on="0"/>
        <pt x="385" y="670" on="0"/>
        <pt x="385" y="624" on="1"/>
        <pt x="385" y="599" on="0"/>
        <pt x="367" y="526" on="0"/>
        <pt x="345" y="449" on="0"/>
        <pt x="327" y="377" on="0"/>
        <pt x="327" y="354" on="1"/>
        <pt x="327" y="342" on="0"/>
        <pt x="337" y="319" on="0"/>
        <pt x="367" y="301" on="0"/>
        <pt x="422" y="290" on="0"/>
        <pt x="467" y="290" on="1"/>
        <pt x="461" y="266" on="1"/>
        <pt x="412" y="266" on="0"/>
        <pt x="350" y="252" on="0"/>
        <pt x="313" y="228" on="0"/>
        <pt x="296" y="199" on="0"/>
        <pt x="293" y="184" on="1"/>
        <pt x="284" y="136" on="0"/>
        <pt x="268" y="27" on="0"/>
        <pt x="257" y="-24" on="1"/>
        <pt x="249" y="-62" on="0"/>
        <pt x="218" y="-111" on="0"/>
        <pt x="175" y="-140" on="0"/>
        <pt x="122" y="-152" on="0"/>
        <pt x="93" y="-152" on="1"/>
      </contour>
    </TTGlyph>
    <TTGlyph name="bracketleft" xMin="142" yMin="-152" xMax="570" yMax="708">
      <contour>
        <pt x="142" y="-152" on="1"/>
        <pt x="314" y="708" on="1"/>
        <pt x="570" y="708" on="1"/>
        <pt x="566" y="686" on="1"/>
        <pt x="334" y="686" on="1"/>
        <pt x="172" y="-130" on="1"/>
        <pt x="404" y="-130" on="1"/>
        <pt x="400" y="-152" on="1"/>
      </contour>
    </TTGlyph>
    <TTGlyph name="bracketleftwhite" xMin="112" yMin="-152" xMax="570" yMax="708">
      <contour>
        <pt x="112" y="-152" on="1"/>
        <pt x="284" y="708" on="1"/>
        <pt x="570" y="708" on="1"/>
        <pt x="566" y="686" on="1"/>
        <pt x="364" y="686" on="1"/>
        <pt x="202" y="-130" on="1"/>
        <pt x="404" y="-130" on="1"/>
        <pt x="400" y="-152" on="1"/>
      </contour>
      <contour>
        <pt x="142" y="-130" on="1"/>
        <pt x="176" y="-130" on="1"/>
        <pt x="340" y="686" on="1"/>
        <pt x="304" y="686" on="1"/>
      </contour>
    </TTGlyph>
    <TTGlyph name="bracketright" xMin="16" yMin="-152" xMax="444" yMax="708">
      <contour>
        <pt x="16" y="-152" on="1"/>
        <pt x="20" y="-130" on="1"/>
        <pt x="252" y="-130" on="1"/>
        <pt x="414" y="686" on="1"/>
        <pt x="182" y="686" on="1"/>
        <pt x="186" y="708" on="1"/>
        <pt x="444" y="708" on="1"/>
        <pt x="272" y="-152" on="1"/>
      </contour>
    </TTGlyph>
    <TTGlyph name="bracketrightwhite" xMin="16" yMin="-152" xMax="474" yMax="708">
      <contour>
        <pt x="16" y="-152" on="1"/>
        <pt x="20" y="-130" on="1"/>
        <pt x="222" y="-130" on="1"/>
        <pt x="384" y="686" on="1"/>
        <pt x="182" y="686" on="1"/>
        <pt x="186" y="708" on="1"/>
        <pt x="474" y="708" on="1"/>
        <pt x="302" y="-152" on="1"/>
      </contour>
      <contour>
        <pt x="246" y="-130" on="1"/>
        <pt x="282" y="-130" on="1"/>
        <pt x="444" y="686" on="1"/>
        <pt x="410" y="686" on="1"/>
      </contour>
    </TTGlyph>
    <TTGlyph name="brackhalfbotleft" xMin="142" yMin="-152" xMax="404" yMax="278">
      <contour>
        <pt x="142" y="-152" on="1"/>
        <pt x="228" y="278" on="1"/>
        <pt x="254" y="278" on="1"/>
        <pt x="172" y="-130" on="1"/>
        <pt x="404" y="-130" on="1"/>
        <pt x="400" y="-152" on="1"/>
      </contour>
    </TTGlyph>
    <TTGlyph name="brackhalfbotright" xMin="16" yMin="-152" xMax="358" yMax="278">
      <contour>
        <pt x="16" y="-152" on="1"/>
        <pt x="20" y="-130" on="1"/>
        <pt x="252" y="-130" on="1"/>
        <pt x="333" y="278" on="1"/>
        <pt x="358" y="278" on="1"/>
        <pt x="272" y="-152" on="1"/>
      </contour>
    </TTGlyph>
    <TTGlyph name="brackhalftopleft" xMin="228" yMin="278" xMax="570" yMax="708">
      <contour>
        <pt x="228" y="278" on="1"/>
        <pt x="314" y="708" on="1"/>
        <pt x="570" y="708" on="1"/>
        <pt x="566" y="686" on="1"/>
        <pt x="334" y="686" on="1"/>
        <pt x="254" y="278" on="1"/>
      </contour>
    </TTGlyph>
    <TTGlyph name="brackhalftopright" xMin="182" yMin="278" xMax="444" yMax="708">
      <contour>
        <pt x="332" y="278" on="1"/>
        <pt x="414" y="686" on="1"/>
        <pt x="182" y="686" on="1"/>
        <pt x="186" y="708" on="1"/>
        <pt x="444" y="708" on="1"/>
        <pt x="358" y="278" on="1"/>
      </contour>
    </TTGlyph>
    <TTGlyph name="breve" xMin="235" yMin="570" xMax="528" yMax="720">
      <component glyphName="brevecmb" x="0" y="0" flags="0x204"/>
    </TTGlyph>
    <TTGlyph name="breveacutecmb" xMin="235" yMin="570" xMax="528" yMax="811">
      <contour>
        <pt x="354" y="570" on="1"/>
        <pt x="317" y="570" on="0"/>
        <pt x="271" y="598" on="0"/>
        <pt x="244" y="641" on="0"/>
        <pt x="235" y="693" on="0"/>
        <pt x="236" y="716" on="1"/>
        <pt x="262" y="720" on="1"/>
        <pt x="260" y="698" on="0"/>
        <pt x="270" y="654" on="0"/>
        <pt x="293" y="618" on="0"/>
        <pt x="332" y="596" on="0"/>
        <pt x="360" y="596" on="1"/>
        <pt x="388" y="596" on="0"/>
        <pt x="433" y="618" on="0"/>
        <pt x="469" y="654" on="0"/>
        <pt x="494" y="698" on="0"/>
        <pt x="502" y="720" on="1"/>
        <pt x="528" y="716" on="1"/>
        <pt x="521" y="693" on="0"/>
        <pt x="494" y="641" on="0"/>
        <pt x="451" y="598" on="0"/>
        <pt x="392" y="570" on="0"/>
      </contour>
      <contour>
        <pt x="372" y="702" on="1"/>
        <pt x="357" y="719" on="1"/>
        <pt x="460" y="811" on="1"/>
        <pt x="480" y="789" on="1"/>
      </contour>
    </TTGlyph>
    <TTGlyph name="breveacutecmb.cap" xMin="269" yMin="712" xMax="534" yMax="932">
      <contour>
        <pt x="378" y="712" on="1"/>
        <pt x="346" y="712" on="0"/>
        <pt x="304" y="735" on="0"/>
        <pt x="278" y="770" on="0"/>
        <pt x="269" y="813" on="0"/>
        <pt x="270" y="834" on="1"/>
        <pt x="296" y="838" on="1"/>
        <pt x="295" y="818" on="0"/>
        <pt x="303" y="782" on="0"/>
        <pt x="324" y="755" on="0"/>
        <pt x="359" y="738" on="0"/>
        <pt x="384" y="738" on="1"/>
        <pt x="409" y="738" on="0"/>
        <pt x="449" y="755" on="0"/>
        <pt x="479" y="782" on="0"/>
        <pt x="501" y="818" on="0"/>
        <pt x="508" y="838" on="1"/>
        <pt x="534" y="834" on="1"/>
        <pt x="528" y="813" on="0"/>
        <pt x="503" y="770" on="0"/>
        <pt x="464" y="735" on="0"/>
        <pt x="411" y="712" on="0"/>
      </contour>
      <contour>
        <pt x="392" y="826" on="1"/>
        <pt x="378" y="842" on="1"/>
        <pt x="490" y="932" on="1"/>
        <pt x="508" y="910" on="1"/>
      </contour>
    </TTGlyph>
    <TTGlyph name="brevebelowcmb" xMin="80" yMin="-219" xMax="373" yMax="-69">
      <component glyphName="brevecmb" x="-155" y="-789" flags="0x204"/>
    </TTGlyph>
    <TTGlyph name="brevecmb" xMin="235" yMin="570" xMax="528" yMax="720">
      <contour>
        <pt x="354" y="570" on="1"/>
        <pt x="317" y="570" on="0"/>
        <pt x="271" y="598" on="0"/>
        <pt x="244" y="641" on="0"/>
        <pt x="235" y="693" on="0"/>
        <pt x="236" y="716" on="1"/>
        <pt x="262" y="720" on="1"/>
        <pt x="260" y="698" on="0"/>
        <pt x="270" y="654" on="0"/>
        <pt x="293" y="618" on="0"/>
        <pt x="332" y="596" on="0"/>
        <pt x="360" y="596" on="1"/>
        <pt x="388" y="596" on="0"/>
        <pt x="433" y="618" on="0"/>
        <pt x="469" y="654" on="0"/>
        <pt x="494" y="698" on="0"/>
        <pt x="502" y="720" on="1"/>
        <pt x="528" y="716" on="1"/>
        <pt x="521" y="693" on="0"/>
        <pt x="494" y="641" on="0"/>
        <pt x="451" y="598" on="0"/>
        <pt x="392" y="570" on="0"/>
      </contour>
    </TTGlyph>
    <TTGlyph name="brevecmb.cap" xMin="269" yMin="712" xMax="534" yMax="838">
      <contour>
        <pt x="378" y="712" on="1"/>
        <pt x="346" y="712" on="0"/>
        <pt x="304" y="735" on="0"/>
        <pt x="278" y="770" on="0"/>
        <pt x="269" y="813" on="0"/>
        <pt x="270" y="834" on="1"/>
        <pt x="296" y="838" on="1"/>
        <pt x="295" y="818" on="0"/>
        <pt x="303" y="782" on="0"/>
        <pt x="324" y="755" on="0"/>
        <pt x="359" y="738" on="0"/>
        <pt x="384" y="738" on="1"/>
        <pt x="409" y="738" on="0"/>
        <pt x="449" y="755" on="0"/>
        <pt x="479" y="782" on="0"/>
        <pt x="501" y="818" on="0"/>
        <pt x="508" y="838" on="1"/>
        <pt x="534" y="834" on="1"/>
        <pt x="528" y="813" on="0"/>
        <pt x="503" y="770" on="0"/>
        <pt x="464" y="735" on="0"/>
        <pt x="411" y="712" on="0"/>
      </contour>
    </TTGlyph>
    <TTGlyph name="brevecmb.cyr" xMin="258" yMin="576" xMax="493" yMax="691">
      <contour>
        <pt x="353" y="576" on="1"/>
        <pt x="324" y="576" on="0"/>
        <pt x="287" y="599" on="0"/>
        <pt x="265" y="633" on="0"/>
        <pt x="258" y="673" on="0"/>
        <pt x="260" y="691" on="1"/>
        <pt x="283" y="691" on="1"/>
        <pt x="281" y="674" on="0"/>
        <pt x="288" y="642" on="0"/>
        <pt x="306" y="615" on="0"/>
        <pt x="336" y="599" on="0"/>
        <pt x="358" y="599" on="1"/>
        <pt x="380" y="599" on="0"/>
        <pt x="416" y="615" on="0"/>
        <pt x="445" y="642" on="0"/>
        <pt x="464" y="674" on="0"/>
        <pt x="469" y="691" on="1"/>
        <pt x="493" y="691" on="1"/>
        <pt x="488" y="673" on="0"/>
        <pt x="464" y="633" on="0"/>
        <pt x="429" y="599" on="0"/>
        <pt x="382" y="576" on="0"/>
      </contour>
    </TTGlyph>
    <TTGlyph name="brevecmb.cyrcap" xMin="272" yMin="706" xMax="522" yMax="818">
      <contour>
        <pt x="380" y="706" on="1"/>
        <pt x="349" y="706" on="0"/>
        <pt x="306" y="727" on="0"/>
        <pt x="281" y="760" on="0"/>
        <pt x="272" y="799" on="0"/>
        <pt x="274" y="818" on="1"/>
        <pt x="298" y="818" on="1"/>
        <pt x="295" y="780" on="0"/>
        <pt x="337" y="729" on="0"/>
        <pt x="382" y="729" on="1"/>
        <pt x="404" y="729" on="0"/>
        <pt x="442" y="744" on="0"/>
        <pt x="471" y="770" on="0"/>
        <pt x="492" y="801" on="0"/>
        <pt x="498" y="818" on="1"/>
        <pt x="522" y="818" on="1"/>
        <pt x="515" y="799" on="0"/>
        <pt x="493" y="760" on="0"/>
        <pt x="458" y="727" on="0"/>
        <pt x="411" y="706" on="0"/>
      </contour>
    </TTGlyph>
    <TTGlyph name="brevegravecmb" xMin="235" yMin="570" xMax="528" yMax="816">
      <contour>
        <pt x="354" y="570" on="1"/>
        <pt x="317" y="570" on="0"/>
        <pt x="271" y="598" on="0"/>
        <pt x="244" y="641" on="0"/>
        <pt x="235" y="693" on="0"/>
        <pt x="236" y="716" on="1"/>
        <pt x="262" y="720" on="1"/>
        <pt x="260" y="698" on="0"/>
        <pt x="270" y="654" on="0"/>
        <pt x="293" y="618" on="0"/>
        <pt x="332" y="596" on="0"/>
        <pt x="360" y="596" on="1"/>
        <pt x="388" y="596" on="0"/>
        <pt x="433" y="618" on="0"/>
        <pt x="469" y="654" on="0"/>
        <pt x="494" y="698" on="0"/>
        <pt x="502" y="720" on="1"/>
        <pt x="528" y="716" on="1"/>
        <pt x="521" y="693" on="0"/>
        <pt x="494" y="641" on="0"/>
        <pt x="451" y="598" on="0"/>
        <pt x="392" y="570" on="0"/>
      </contour>
      <contour>
        <pt x="388" y="695" on="1"/>
        <pt x="312" y="798" on="1"/>
        <pt x="334" y="816" on="1"/>
        <pt x="406" y="708" on="1"/>
      </contour>
    </TTGlyph>
    <TTGlyph name="brevegravecmb.cap" xMin="269" yMin="712" xMax="534" yMax="938">
      <contour>
        <pt x="378" y="712" on="1"/>
        <pt x="346" y="712" on="0"/>
        <pt x="304" y="735" on="0"/>
        <pt x="278" y="770" on="0"/>
        <pt x="269" y="813" on="0"/>
        <pt x="270" y="834" on="1"/>
        <pt x="296" y="838" on="1"/>
        <pt x="295" y="818" on="0"/>
        <pt x="303" y="782" on="0"/>
        <pt x="324" y="755" on="0"/>
        <pt x="359" y="738" on="0"/>
        <pt x="384" y="738" on="1"/>
        <pt x="409" y="738" on="0"/>
        <pt x="449" y="755" on="0"/>
        <pt x="479" y="782" on="0"/>
        <pt x="501" y="818" on="0"/>
        <pt x="508" y="838" on="1"/>
        <pt x="534" y="834" on="1"/>
        <pt x="528" y="813" on="0"/>
        <pt x="503" y="770" on="0"/>
        <pt x="464" y="735" on="0"/>
        <pt x="411" y="712" on="0"/>
      </contour>
      <contour>
        <pt x="416" y="819" on="1"/>
        <pt x="332" y="921" on="1"/>
        <pt x="354" y="938" on="1"/>
        <pt x="430" y="831" on="1"/>
      </contour>
    </TTGlyph>
    <TTGlyph name="brevehoicmb" xMin="235" yMin="570" xMax="528" yMax="816">
      <contour>
        <pt x="354" y="570" on="1"/>
        <pt x="317" y="570" on="0"/>
        <pt x="271" y="598" on="0"/>
        <pt x="244" y="641" on="0"/>
        <pt x="235" y="693" on="0"/>
        <pt x="236" y="716" on="1"/>
        <pt x="262" y="720" on="1"/>
        <pt x="260" y="698" on="0"/>
        <pt x="270" y="654" on="0"/>
        <pt x="293" y="618" on="0"/>
        <pt x="332" y="596" on="0"/>
        <pt x="360" y="596" on="1"/>
        <pt x="388" y="596" on="0"/>
        <pt x="433" y="618" on="0"/>
        <pt x="469" y="654" on="0"/>
        <pt x="494" y="698" on="0"/>
        <pt x="502" y="720" on="1"/>
        <pt x="528" y="716" on="1"/>
        <pt x="521" y="693" on="0"/>
        <pt x="494" y="641" on="0"/>
        <pt x="451" y="598" on="0"/>
        <pt x="392" y="570" on="0"/>
      </contour>
      <contour>
        <pt x="354" y="670" on="1"/>
        <pt x="350" y="694" on="1"/>
        <pt x="378" y="700" on="0"/>
        <pt x="418" y="724" on="0"/>
        <pt x="422" y="742" on="1"/>
        <pt x="427" y="766" on="0"/>
        <pt x="389" y="788" on="0"/>
        <pt x="347" y="790" on="1"/>
        <pt x="354" y="816" on="1"/>
        <pt x="376" y="815" on="0"/>
        <pt x="415" y="807" on="0"/>
        <pt x="442" y="790" on="0"/>
        <pt x="456" y="764" on="0"/>
        <pt x="452" y="746" on="1"/>
        <pt x="449" y="729" on="0"/>
        <pt x="429" y="703" on="0"/>
        <pt x="401" y="685" on="0"/>
        <pt x="369" y="673" on="0"/>
      </contour>
    </TTGlyph>
    <TTGlyph name="brevehoicmb.cap" xMin="269" yMin="712" xMax="534" yMax="934">
      <contour>
        <pt x="378" y="712" on="1"/>
        <pt x="346" y="712" on="0"/>
        <pt x="304" y="735" on="0"/>
        <pt x="278" y="770" on="0"/>
        <pt x="269" y="813" on="0"/>
        <pt x="270" y="834" on="1"/>
        <pt x="296" y="838" on="1"/>
        <pt x="295" y="818" on="0"/>
        <pt x="303" y="782" on="0"/>
        <pt x="324" y="755" on="0"/>
        <pt x="359" y="738" on="0"/>
        <pt x="384" y="738" on="1"/>
        <pt x="409" y="738" on="0"/>
        <pt x="449" y="755" on="0"/>
        <pt x="479" y="782" on="0"/>
        <pt x="501" y="818" on="0"/>
        <pt x="508" y="838" on="1"/>
        <pt x="534" y="834" on="1"/>
        <pt x="528" y="813" on="0"/>
        <pt x="503" y="770" on="0"/>
        <pt x="464" y="735" on="0"/>
        <pt x="411" y="712" on="0"/>
      </contour>
      <contour>
        <pt x="380" y="796" on="1"/>
        <pt x="374" y="820" on="1"/>
        <pt x="398" y="826" on="0"/>
        <pt x="433" y="846" on="0"/>
        <pt x="437" y="864" on="1"/>
        <pt x="442" y="888" on="0"/>
        <pt x="407" y="906" on="0"/>
        <pt x="372" y="908" on="1"/>
        <pt x="381" y="934" on="1"/>
        <pt x="400" y="933" on="0"/>
        <pt x="435" y="926" on="0"/>
        <pt x="459" y="911" on="0"/>
        <pt x="471" y="886" on="0"/>
        <pt x="468" y="868" on="1"/>
        <pt x="461" y="835" on="0"/>
        <pt x="407" y="803" on="0"/>
      </contour>
    </TTGlyph>
    <TTGlyph name="breveinvertedbelowcmb" xMin="51" yMin="-243" xMax="344" yMax="-93">
      <component glyphName="breveinvertedcmb" x="-155" y="-813" flags="0x204"/>
    </TTGlyph>
    <TTGlyph name="breveinvertedcmb" xMin="206" yMin="570" xMax="499" yMax="720">
      <contour>
        <pt x="231" y="570" on="1"/>
        <pt x="206" y="574" on="1"/>
        <pt x="213" y="597" on="0"/>
        <pt x="241" y="649" on="0"/>
        <pt x="284" y="692" on="0"/>
        <pt x="342" y="720" on="0"/>
        <pt x="380" y="720" on="1"/>
        <pt x="418" y="720" on="0"/>
        <pt x="465" y="692" on="0"/>
        <pt x="491" y="649" on="0"/>
        <pt x="499" y="597" on="0"/>
        <pt x="498" y="574" on="1"/>
        <pt x="471" y="570" on="1"/>
        <pt x="472" y="592" on="0"/>
        <pt x="463" y="636" on="0"/>
        <pt x="441" y="672" on="0"/>
        <pt x="403" y="694" on="0"/>
        <pt x="375" y="694" on="1"/>
        <pt x="347" y="694" on="0"/>
        <pt x="300" y="672" on="0"/>
        <pt x="264" y="636" on="0"/>
        <pt x="238" y="592" on="0"/>
      </contour>
    </TTGlyph>
    <TTGlyph name="breveinvertedcmb.cap" xMin="247" yMin="712" xMax="512" yMax="838">
      <contour>
        <pt x="272" y="712" on="1"/>
        <pt x="247" y="716" on="1"/>
        <pt x="254" y="737" on="0"/>
        <pt x="280" y="780" on="0"/>
        <pt x="319" y="815" on="0"/>
        <pt x="370" y="838" on="0"/>
        <pt x="403" y="838" on="1"/>
        <pt x="436" y="838" on="0"/>
        <pt x="479" y="815" on="0"/>
        <pt x="504" y="780" on="0"/>
        <pt x="512" y="737" on="0"/>
        <pt x="511" y="716" on="1"/>
        <pt x="484" y="712" on="1"/>
        <pt x="485" y="731" on="0"/>
        <pt x="478" y="768" on="0"/>
        <pt x="457" y="795" on="0"/>
        <pt x="423" y="812" on="0"/>
        <pt x="398" y="812" on="1"/>
        <pt x="348" y="812" on="0"/>
        <pt x="285" y="751" on="0"/>
      </contour>
    </TTGlyph>
    <TTGlyph name="breveinverteddoublecmb" xMin="-99" yMin="562" xMax="805" yMax="712">
      <contour>
        <pt x="-91" y="562" on="1"/>
        <pt x="-99" y="582" on="1"/>
        <pt x="13" y="644" on="0"/>
        <pt x="245" y="712" on="0"/>
        <pt x="378" y="712" on="1"/>
        <pt x="511" y="712" on="0"/>
        <pt x="717" y="644" on="0"/>
        <pt x="805" y="582" on="1"/>
        <pt x="789" y="562" on="1"/>
        <pt x="706" y="622" on="0"/>
        <pt x="494" y="684" on="0"/>
        <pt x="373" y="684" on="1"/>
        <pt x="252" y="684" on="0"/>
        <pt x="16" y="622" on="0"/>
      </contour>
    </TTGlyph>
</ttFont>
